<svg width="30" height="30" viewBox="0 0 30 30" fill="none" xmlns="http://www.w3.org/2000/svg">
<g clip-path="url(#clip0)">
<path d="M24.8157 8.70689C25.2487 7.83431 24.8921 6.77669 24.0195 6.34374L21.2891 4.99128C20.4165 4.55833 19.3589 4.91487 18.926 5.78745L13.5228 16.6889L10.8916 12.2884C10.3916 11.452 9.30992 11.1799 8.47349 11.6799L5.85839 13.2428C5.02331 13.7428 4.74985 14.8245 5.24984 15.6609L10.4345 24.3333C10.7656 24.8869 11.3728 25.2166 12.0162 25.1912L15.6915 25.0464C16.3362 25.0209 16.9153 24.6456 17.2009 24.0679L24.8157 8.70689Z" fill="#0F516A"/>
<path d="M14.6219 18.5271L20.9361 5.78745C21.0769 5.50368 21.2844 5.27558 21.5295 5.1104L21.289 4.99128C20.4164 4.55833 19.3588 4.91487 18.9259 5.78745L13.5227 16.6889L14.6219 18.5271Z" fill="#0F516A"/>
<path d="M12.4446 24.3332L7.25995 15.6609C6.75997 14.8245 7.03343 13.7428 7.86851 13.2428L10.3787 11.7426C9.828 11.3631 9.0855 11.3141 8.47349 11.6799L5.85839 13.2428C5.02331 13.7428 4.74985 14.8245 5.24984 15.6609L10.4345 24.3333C10.7656 24.8869 11.3728 25.2166 12.0162 25.1912L13.5056 25.1325C13.0681 25.0159 12.684 24.7336 12.4446 24.3332Z" fill="#0F516A"/>
<path d="M24.7577 0H5.244C2.34848 0 0.000976562 2.3475 0.000976562 5.24303V24.7567C0.000976562 27.6523 2.34842 29.9998 5.244 29.9998H24.7577C27.6532 29.9998 30.0007 27.6523 30.0007 24.7567V5.24303C30.0007 2.3475 27.6532 0 24.7577 0ZM27.5863 24.7567C27.5863 26.3164 26.3175 27.5853 24.7577 27.5853H5.244C3.68424 27.5853 2.41545 26.3165 2.41545 24.7567V5.24303C2.41545 3.68332 3.68424 2.41447 5.244 2.41447H24.7577C26.3175 2.41447 27.5863 3.68326 27.5863 5.24303V24.7567Z" fill="#7FCAEB"/>
<path d="M1.32764 24.7576V5.24388C1.32764 2.34835 3.67508 0.000854492 6.57066 0.000854492H5.24352C2.34799 0.000854492 0.000488281 2.34835 0.000488281 5.24388V24.7576C0.000488281 27.6531 2.34799 30.0006 5.24352 30.0006H6.57061C3.67508 30.0006 1.32764 27.6531 1.32764 24.7576Z" fill="#7FCAEB"/>
<path d="M24.7568 27.5855H26.0839C27.6437 27.5855 28.9125 26.3167 28.9125 24.7569V5.24323C28.9125 3.68352 27.6437 2.41467 26.0839 2.41467H24.7568C26.3166 2.41467 27.5854 3.68346 27.5854 5.24323V24.7569C27.5854 26.3167 26.3166 27.5855 24.7568 27.5855Z" fill="#7FCAEB"/>
</g>
<defs>
<clipPath id="clip0">
<rect width="30" height="30" fill="white"/>
</clipPath>
</defs>
</svg>
