<svg width="384" height="324" viewBox="0 0 384 324" fill="none" xmlns="http://www.w3.org/2000/svg">
<path fill-rule="evenodd" clip-rule="evenodd" d="M78.4162 73.7358C76.0477 73.2832 73.8202 75.0135 73.6728 77.4203C73.5486 79.4499 73.4243 81.4795 73.3002 83.5091C73.1314 86.2674 75.7384 88.3399 78.4348 87.7348C82.9473 86.7221 88.3806 85.9969 87.8407 88.6053C87.2382 91.5131 83.4178 94.6586 81.4711 96.683C80.3216 97.879 81.6615 100.004 83.2276 99.457C84.3016 99.0819 85.3781 98.7141 86.4569 98.3539C89.1289 97.4615 91.8207 96.5907 94.5586 95.9219C95.5748 95.6734 98.3188 94.66 99.279 95.351C100.793 96.4411 96.4655 101.696 92.3584 106.131C91.1711 107.413 92.7154 109.685 94.3656 109.111C96.3594 108.417 102.519 105.765 104.283 108.029C106.171 110.453 101.493 116.016 100.195 117.78C99.1315 119.227 98.0165 120.641 96.8611 122.02C95.4349 123.722 95.5497 126.266 97.2492 127.696C105.339 134.498 114.561 140.46 124.304 144.331C132.36 147.532 140.273 148.347 148.774 146.59C157.506 144.786 165.882 141.325 173.843 137.368C177.178 135.71 180.482 133.955 183.698 132.06C185.76 130.844 186.19 128.081 184.716 126.195C183.882 125.127 183.059 124.05 182.247 122.965C179.808 119.703 176.809 116.139 175.418 112.256C174.057 108.456 179.164 109.198 181.614 109.404C182.185 109.452 182.755 109.509 183.325 109.574C185.27 109.794 186.486 106.972 184.94 105.772C181.857 103.379 177.745 100.673 175.727 97.2308C173.953 94.2039 177.847 94.9683 179.648 95.3646C183.941 96.3107 188.119 97.9223 192.214 99.4943C192.946 99.7755 193.678 100.06 194.408 100.348C195.614 100.823 196.75 99.0539 195.84 98.1293C193.552 95.8038 190.468 92.9632 189.442 89.7608C188.138 85.6856 193.132 86.077 197.648 87.19C200.534 87.9012 203.573 85.6777 203.378 82.7118C203.182 79.7246 202.987 76.7375 202.791 73.7503C202.626 71.2361 200.206 69.4985 197.771 70.1464C180.736 74.6792 163.701 79.2126 146.666 83.7456C144.656 84.2807 142.14 85.4457 140.043 85.5078C138.145 85.5647 135.851 84.7095 134 84.3561L100.337 77.9243C93.0301 76.528 85.7231 75.132 78.4162 73.7358Z" fill="#7FCAEB"/>
<path fill-rule="evenodd" clip-rule="evenodd" d="M273.883 305.275C271.874 306.424 269.522 307.311 267.291 307.906C265.98 308.256 263.815 309.336 262.664 308.347C262.112 307.871 261.985 306.791 261.659 306.166C261.143 305.175 260.409 304.32 259.722 303.445C258.056 301.323 256.323 299.276 254.51 297.28C253.65 296.335 252.081 294.127 250.566 294.272C248.679 294.453 248.724 297.065 249.197 298.4C250.366 301.697 253.373 304.666 256.052 307.327C257.355 308.62 257.173 310.363 255.341 310.471C254.067 310.547 252.745 310.444 252.17 310.308C250.407 309.892 250.228 308.637 249.424 307.201C247.542 303.846 243.725 301.968 240.587 299.995C239.443 299.275 237.011 297.282 235.52 297.784C234.107 298.259 234.168 300.064 234.618 301.243C235.298 303.024 237.232 304.26 238.662 305.386C238.751 305.456 238.84 305.526 238.929 305.597C241.165 307.386 239.898 310.82 237.044 311.055C234.281 311.283 231.978 309.767 229.434 308.907C227.07 308.108 224.715 307.433 222.391 306.513C219.782 305.479 217.048 305.12 214.415 304.213C204.085 300.655 193.962 296.18 184.007 291.669C179.264 289.519 174.618 287.369 169.675 285.687C166.073 284.46 160.412 282.017 159.551 277.726C159.096 275.459 160.753 273.021 160.997 270.756C161.283 268.091 161.058 265.159 160.246 262.602C159.53 260.35 158.345 258.264 157.41 256.102C156.322 253.581 157.296 253.622 159.411 253.336C161.942 252.993 164.896 251.568 167.276 250.64C170.016 249.57 172.734 248.076 175.244 246.539C177.514 245.15 179.49 243.358 181.297 241.413C182.042 240.611 182.681 239.749 183.295 238.873C184.717 236.844 187.529 236.816 189.078 238.749C194.578 245.611 199.961 252.496 205.872 259.042C209.162 262.686 212.74 265.699 216.795 268.47C218.488 269.627 220.168 270.948 222.013 271.863C224.319 273.008 226.898 273.718 229.269 274.763C238.359 278.769 247.035 283.147 255.516 288.316C259.619 290.815 263.062 293.682 266.675 296.818C267.8 297.795 277.011 303.485 273.883 305.275ZM167.244 239.173C165.175 240.111 163.401 238.527 164.859 236.785C165.949 235.482 167.39 234.573 169.009 234.797C170.245 234.969 171.177 235.928 170.634 237.251C170.14 238.454 168.29 238.7 167.244 239.173ZM63.8878 165.175C64.8233 165.312 64.4556 166.211 63.5567 166.504C63.4084 166.553 63.2623 166.592 63.1189 166.62C61.681 166.903 62.4378 164.962 63.8878 165.175ZM62.2158 160.266C60.9285 159.876 61.9579 159.465 62.4008 158.995C62.7458 158.628 63.8881 157.342 64.2877 157.13C66.3035 156.062 64.5877 160.926 62.3897 160.316C62.3316 160.3 62.2736 160.283 62.2158 160.266ZM75.9769 172.314C75.9344 172.321 75.8928 172.327 75.852 172.333C73.9548 172.571 77.8622 171.995 75.9769 172.314ZM84.0611 167.043C81.0869 167.544 79.1219 162.406 79.6552 160.158C80.1239 158.178 82.4288 157.073 84.264 156.781C86.0422 156.498 88.5184 156.884 89.0465 158.935C89.5134 160.748 86.0431 166.708 84.0611 167.043ZM154.461 244.611C152.324 245.267 150.23 245.35 148.082 245.995C145.644 246.727 143.389 246.662 140.946 247.16C139.953 247.361 137.273 248.809 136.303 248.486C133.866 247.674 135.69 243.504 137.89 242.178C140.314 240.717 142.454 238.909 144.257 236.512C146.522 233.503 148.95 228.994 147.526 225.109C145.919 220.73 140.38 219.78 136.687 221.609C134.94 222.474 133.208 223.549 131.768 224.868C130.121 226.375 129.473 228.02 128.406 229.879C127.327 231.759 126.57 230.713 125.492 229.116C124.571 227.752 124.691 226.374 123.539 225.028C122.952 224.341 122.042 223.678 121.736 222.79C121.541 222.228 121.951 221.231 121.582 220.788C121.064 220.166 120.433 220.896 119.999 220.341C119.752 220.025 119.762 219.392 119.621 218.89C119.547 218.627 119.368 218.41 119.159 218.232C118.959 218.063 118.745 217.911 118.516 217.777C117.976 217.51 118.225 216.6 117.998 216.041C117.929 215.87 117.805 215.673 117.555 215.41C116.436 214.233 115.415 213.105 114.619 211.716C114.255 211.08 114.291 210.137 113.838 209.587C113.217 208.831 112.183 208.944 111.65 208.009C111.269 207.341 111.397 206.274 111.061 205.487C110.896 205.102 110.498 204.901 110.095 204.788C109.684 204.672 109.27 204.473 109.086 204.087C108.918 203.732 108.803 203.344 108.646 202.984C108.414 202.448 108.262 201.875 107.851 201.346C106.799 199.991 105.384 198.74 104.454 197.312C103.477 195.81 103.995 195.557 105.692 195.02C107.223 194.535 108.621 194.085 110.04 193.26C116.6 189.442 122.819 179.315 112.406 176.222C108.543 175.074 105.368 171.986 101.084 173.199C99.2267 173.726 97.4649 174.846 96.0793 176.175C95.1219 177.094 94.2352 179.552 93.0599 180.022C90.9466 180.869 91.84 178.754 91.2403 177.783C90.9537 177.319 89.801 176.785 89.3736 176.363C88.8724 175.868 88.3876 175.244 88.0393 174.632C87.393 173.496 86.9977 172.863 86.0657 171.938C85.1316 171.009 85.1757 168.35 86.0926 167.404C86.3836 167.104 86.7401 166.777 87.129 166.348C88.6464 164.673 90.2133 162.345 90.2222 159.998C90.2397 155.491 84.8994 153.472 81.5454 156.146C80.8629 156.691 76.8264 161.946 77.6524 158.594C77.6773 158.493 77.7137 158.383 77.7606 158.266C78.4722 156.479 78.469 155.81 77.3225 157.354C76.5531 158.391 75.3378 157.942 74.7941 156.771C74.7502 156.677 74.7049 156.583 74.6576 156.49C74.1108 155.417 72.4422 155.691 72.4232 154.486C72.4202 154.294 72.4017 154.125 72.3433 154.031C71.7159 153.017 72.0604 154.176 71.7201 153.816C71.6154 153.705 71.4959 153.6 71.3685 153.496C70.7466 152.987 69.8944 152.637 69.4783 151.949C68.9252 151.034 69.1389 150.504 68.191 149.708C67.501 149.13 66.1417 148.231 65.213 148.149C64.1423 148.054 63.8457 148.464 62.7547 148.161C61.3667 147.775 59.62 147.182 60.2917 149.503C60.7798 151.19 62.7632 152.149 63.1976 153.873C63.6349 155.608 61.9193 157.356 61.0871 158.778C60.0182 160.603 59.1442 160.455 57.2078 160.866C55.9704 161.129 54.3188 161.691 55.3802 163.192C56.138 164.265 57.9143 164.039 58.9145 164.675C60.3171 165.565 60.2978 167.761 62.0887 168.143C64.0608 168.564 65.1904 166.369 66.8533 165.838C68.0357 165.461 71.6984 165.503 72.629 166.391C73.8969 167.6 72.8012 169.912 73.1203 171.414C73.5952 173.643 75.1028 173.779 77.0095 173.85C79.3568 173.938 80.1818 176.191 81.4442 177.98C84.4009 182.167 86.9708 186.631 89.9996 190.762C91.3406 192.592 93.3018 194.219 94.3995 196.205C95.755 198.656 93.8732 200.071 92.2489 201.83C90.1267 204.13 88.5424 206.747 86.7016 209.261C85.371 211.078 83.7776 211.049 81.8224 210.975C81.174 210.95 80.7489 210.207 81.2082 209.749C81.7632 209.195 81.9689 208.213 81.2895 208.604C80.6052 208.998 80.0018 209.919 79.4669 210.557C78.0605 212.234 76.2272 212.638 74.4208 213.741C73.7816 214.131 70.301 216.659 71.3586 217.522C71.417 217.57 72.8087 216.699 74.2989 215.751C75.9266 214.715 77.5176 215.816 77.7871 217.727C77.9306 218.747 78.6479 219.811 78.495 220.872C78.2055 222.875 75.6173 224.452 74.5065 226.013C73.6701 227.187 73.872 228.113 73.4465 229.374C73.0582 230.524 73.262 230.176 72.2948 230.531C70.3255 231.255 67.0105 230.864 65.2272 229.835C64.1201 229.197 63.2715 228.188 62.3721 227.299C61.6948 226.628 59.9909 225.483 59.8027 224.545C59.4798 222.93 62.6865 219.929 63.3209 218.263C64.7893 214.41 62.9918 211.261 59.664 210.102C58.8633 209.823 58.737 209.001 59.5771 209.115C60.435 209.232 60.8925 208.494 60.0648 208.24C58.6922 207.818 57.157 208.277 55.7603 209.092C54.1609 210.025 51.8965 209.608 51.3936 207.825C50.6278 205.112 50.0813 202.338 49.4436 199.586C48.803 196.823 46.3645 191.891 47.4522 189.046C47.9779 187.67 49.4624 186.903 50.489 185.949C51.6558 184.866 52.655 183.57 53.5079 182.228C55.3143 179.387 56.4349 175.875 54.6319 172.932C54.3579 172.485 54.5853 171.853 55.1028 171.768C55.6472 171.679 55.7965 171.054 55.2681 170.895C54.0031 170.516 52.4612 170.794 51.1338 170.51C50.0079 170.268 46.7678 170.424 46.0162 169.787C45.112 169.021 45.6914 165.495 45.7239 164.452C45.7982 162.014 46.002 159.669 46.2713 157.245C46.5264 154.956 46.4751 152.482 46.9481 150.233C47.3322 148.408 48.5597 147.851 49.9759 146.776C53.2637 144.278 55.9605 141.255 55.0537 137.021C55.0101 136.818 55.1422 136.614 55.3481 136.581C55.659 136.532 55.7351 136.157 55.4414 136.044C54.6835 135.752 53.8496 135.712 53.0309 135.612C52.2757 135.52 51.8854 134.747 52.1645 134.039C53.2257 131.348 54.9338 127.914 57.3439 125.972C59.0352 124.609 60.6913 126.276 61.3946 128.331C61.5514 128.789 61.771 129.22 62.0849 129.605C63.3925 131.209 65.6875 131.371 67.4586 130.523C69.066 129.752 70.5745 128.118 71.3153 126.505C71.8166 125.412 71.7262 123.566 72.6059 122.7C73.7854 121.538 81.9191 122.239 81.6701 124.199C81.5233 125.351 79.3483 127.288 78.7406 128.309C77.628 130.179 76.7375 132.2 76.3289 134.347C75.709 137.607 76.0682 141.91 79.3784 143.624C83.1433 145.573 87.7314 143.095 90.819 140.953C92.5144 139.777 94.1566 138.48 95.7051 137.117C96.5302 136.392 97.3591 135.644 98.0862 134.82C98.6233 134.211 99.0521 133.229 99.7129 132.773C101.274 131.696 102.804 133.524 104.125 134.447C106.277 135.95 108.418 137.378 110.729 138.629C115.415 141.168 119.701 144.532 123.845 147.871C126.841 150.285 129.904 152.75 132.644 155.499C134.346 157.206 134.065 160.23 133.188 162.476C133.159 162.548 133.129 162.623 133.098 162.7C132.452 164.292 131.563 165.648 131.46 167.418C131.283 170.471 133.243 173.074 136.219 173.75C137.883 174.128 139.468 173.825 141.01 173.145C142.208 172.616 143.402 171.314 144.654 170.991C146.981 170.391 148.843 174.787 150.147 176.336C155.94 183.213 162.064 189.818 167.519 196.976C168.123 197.769 169.918 199.317 170.063 200.367C170.273 201.874 167.902 203.311 166.918 204.175C166.402 204.628 160.925 209.78 162.764 210.599C163.288 210.833 164.822 207.672 165.206 207.401C166.643 206.389 165.556 208.373 165.471 209.376C165.256 211.869 166.969 213.227 169.375 212.911C170.416 212.774 171.41 212.36 172.33 211.789C174.431 210.484 177.348 210.292 178.825 212.276C180.081 213.964 181.181 215.798 181.5 217.507C181.868 219.475 180.165 224.293 183.344 224.695C183.83 224.756 185.586 223.453 185.914 224.193C186.187 224.81 184.288 225.866 184.014 226.07C182.844 226.944 182.137 227.879 181.193 228.937C180.084 230.18 178.568 231.226 177.32 232.416C176.006 233.669 173.405 237.074 171.671 235.429C170.799 234.602 171.028 233.522 169.632 233.037C168.36 232.595 166.749 233.155 165.568 233.645C164.237 234.196 159.855 236.209 159.369 237.866C158.93 239.363 162.035 240.259 161.137 241.535C160.819 241.986 160.435 242.373 159.954 242.652C158.4 243.556 156.165 244.087 154.461 244.611ZM137.125 223.909C135.176 225.081 134.117 224.227 136.012 222.97C136.318 222.768 136.628 222.578 136.939 222.404C138.689 221.424 138.844 222.876 137.125 223.909ZM132.366 241.958C130.559 240.95 130.656 238.025 130.026 236.313C129.663 235.331 128.939 234.613 129.152 233.524C129.401 232.246 131.031 230.825 131.898 229.904C134.628 227.003 139.433 223.04 143.827 223.705C149.42 224.551 145.628 232.061 143.724 234.646C142.101 236.851 135.846 243.897 132.366 241.958ZM118.479 234.656C119.484 235.929 118.261 237.002 116.643 236.881C111.493 236.494 106.362 235.961 101.276 235.015C99.1603 234.621 97.3882 234.679 98.5983 232.248C98.9979 231.445 101.407 226.414 101.951 226.558C102.274 226.644 102.2 230.101 102.295 230.498C102.722 232.278 103.922 233.936 105.944 233.824C107.542 233.734 108.866 232.69 110.004 231.375C111.747 229.361 114.548 229.312 116.005 231.543C116.3 231.995 116.606 232.439 116.934 232.871C117.245 233.28 117.913 233.939 118.479 234.656ZM83.8569 213.327C83.7262 213.626 83.5786 213.924 83.4174 214.22C81.9337 216.946 77.3473 215.364 79.6746 213.311C79.7509 213.244 79.8321 213.182 79.9183 213.125C80.6389 212.65 84.4984 211.854 83.8569 213.327ZM105.923 219.735C105.532 220.019 105.054 219.568 105.212 219.111C105.387 218.602 106.186 218.605 106.223 219.142C106.24 219.391 106.158 219.565 105.923 219.735ZM110.013 222.168C110.747 223.413 111.971 224.636 111.779 226.2C111.633 227.384 110.563 228.597 109.798 229.422C108.533 230.787 105.731 233.408 103.898 231.595C102.367 230.081 102.9 225.917 103.612 224.213C104.629 221.779 108.263 219.204 110.013 222.168ZM107.082 217.111C107.229 217.408 106.392 216.802 106.622 216.563C106.719 216.462 106.821 216.563 106.88 216.69C106.949 216.841 107.018 216.98 107.082 217.111ZM94.8626 183.064C94.5901 182.062 93.965 182.104 94.19 180.865C94.3378 180.053 94.9826 179.185 95.4717 178.542C96.4464 177.259 97.7323 176.201 99.1227 175.401C99.8898 174.959 100.732 174.585 101.604 174.321C104.646 173.398 104.052 176.732 101.357 178.42C99.2624 179.731 100.863 181.034 102.882 179.61C103.973 178.839 105.078 178.079 106.301 177.693C108.551 176.983 110.99 177.033 113.227 177.782C119.352 179.834 116.805 185.128 113.348 188.566C111.296 190.608 108.835 192.132 106.146 193.184C104.901 193.67 104.137 193.724 102.913 193.479C102.684 193.434 102.416 193.009 102.141 192.917C101.458 192.691 101.656 193.458 101.094 193.113C100.603 192.813 99.5562 190.876 99.2224 190.322C98.6911 189.439 98.4435 188.581 97.7911 187.775C97.1383 186.969 96.8206 185.889 96.2167 185.159C95.9268 184.808 95.1318 184.822 94.9186 184.48C94.5981 183.966 95.0062 183.59 94.8626 183.064ZM89.0815 220.722C87.9239 221.778 86.8756 220.469 87.934 219.313C89.0373 218.109 90.6815 218.942 89.6128 220.177C89.4473 220.368 89.2698 220.55 89.0815 220.722ZM87.3375 223.662C90.2123 222.651 91.7962 220.23 92.0894 217.296C92.4617 213.579 94.7953 211.628 96.2003 208.29C96.7392 207.01 97.3671 202.799 99.4554 204.004C100.172 204.417 100.597 205.972 100.97 206.675C101.873 208.374 102.9 210.022 103.858 211.69C104.638 213.048 105.807 214.414 105.463 216.05C105.163 217.476 104.197 218.995 103.632 220.34C102.296 223.515 100.542 226.441 99.0765 229.547C98.4854 230.799 97.7855 233.766 95.98 233.751C94.551 233.739 94.7106 232.177 93.7697 231.641C93.6179 231.555 93.4633 231.5 93.3073 231.472C92.3745 231.305 91.8509 230.915 92.7157 230.528C93.5422 230.158 93.8131 229.054 92.9478 229.321C91.5478 229.753 90.2983 231.377 88.8531 231.881C87.6883 232.287 86.0351 231.435 84.4768 230.41C82.5949 229.172 81.6332 226.091 83.4747 224.793C83.5122 224.767 83.5503 224.741 83.589 224.716C84.7182 223.984 86.1043 224.096 87.3375 223.662ZM65.6398 245.678C65.3363 246.26 64.6905 245.882 65.0205 245.315C65.3022 244.831 65.9543 244.922 65.7479 245.443C65.7163 245.523 65.68 245.601 65.6398 245.678ZM109.64 257.021C109.485 262.126 109.068 267.216 108.918 272.322C108.849 274.677 108.432 276.923 108.155 279.251C107.921 281.219 108.04 283.152 106.801 284.834C104.848 287.484 101.05 288.247 98.1018 289.229C95.9367 289.95 93.7466 290.604 91.6084 291.405C89.6843 292.126 88.1339 293.219 86.3044 294.076C84.6678 294.842 82.9014 295.297 81.2724 296.114C79.5874 296.959 78.2559 297.988 76.5252 298.741C74.4533 299.641 72.7462 301.244 70.9035 302.515C69.2815 303.635 67.5655 304.5 66.1699 305.908C64.8614 307.229 63.2051 307.808 61.7225 308.982C60.1547 310.222 58.5135 311.029 56.7814 312.002C54.5772 313.241 51.8951 315.024 49.1557 315.733C46.6469 316.382 46.285 313.949 47.5937 311.712C47.8594 311.258 48.0406 310.776 48.0866 310.256C48.3338 307.456 45.8971 308.487 44.486 309.381C42.3487 310.735 41.1664 312.369 39.5392 314.174C39.378 314.353 39.2133 314.507 39.0452 314.637C36.8788 316.323 35.6287 311.798 37.6655 309.958C39.0064 308.747 41.0586 307.437 41.8752 305.762C42.4588 304.564 42.4301 302.923 41.0219 302.301C39.446 301.606 37.6641 303.072 36.4968 303.945C33.3988 306.263 31.3585 309.202 29.3242 312.428C28.2421 314.143 27.7437 314.012 25.7527 313.669C23.1605 313.222 22.0815 309.969 23.8401 308.013C25.215 306.483 26.5159 304.896 27.5983 303.249C28.3193 302.152 29.2597 299.261 27.0631 298.995C26.158 298.885 24.3558 300.736 23.6578 301.235C20.6064 303.416 17.6727 306.167 15.6507 309.351C14.9828 310.402 14.7734 311.571 13.4804 311.658C13.2053 311.677 12.8916 311.65 12.5524 311.589C9.77786 311.093 8.89736 307.26 10.6883 305.084C12.6315 302.722 14.6492 300.426 16.8702 298.312C20.2153 295.129 23.5519 292.817 27.4641 290.375C31.6569 287.758 35.5625 284.746 39.4117 281.654C43.0966 278.694 46.9457 275.902 50.3374 272.598C57.1127 265.997 63.1473 258.406 68.1444 250.378C69.3135 248.501 70.4144 246.573 71.3657 244.575C72.2595 242.698 72.6713 240.453 73.8777 238.746C74.2942 238.156 74.8816 237.718 75.253 237.103C75.6031 236.523 75.4845 235.822 76.0187 235.309C77.2543 234.123 79.5041 234.838 80.6586 235.67C82.5159 237.007 84.0183 238.63 86.0596 239.749C88.1127 240.874 90.3333 241.693 92.6067 242.246C96.4536 243.181 100.277 243.995 104.148 244.671C106.51 245.083 109.238 247.24 109.846 249.56C109.852 249.584 109.858 249.608 109.864 249.632C110.414 251.887 109.709 254.724 109.64 257.021ZM61.2884 219.193C60.0701 221.22 57.3685 220.853 56.1194 218.846C55.7578 218.264 55.3928 217.685 55.0168 217.113C54.2958 216.016 53.402 214.838 54.0186 213.496C55.0564 211.234 58.7187 210.831 60.7059 211.818C63.6598 213.283 62.8883 216.531 61.2884 219.193ZM46.5221 181.642C46.1061 178.144 47.4437 175.662 50.6085 173.828C52.864 172.521 54.6803 174.307 54.372 176.69C54.0827 178.933 52.4914 181.332 50.6191 183.285C49.1272 184.84 46.7771 183.783 46.5221 181.642ZM46.0397 171.633C46.3318 171.401 46.7775 171.335 47.2851 171.354C48.5009 171.402 48.9719 173.286 48.0556 174.086C47.2276 174.809 45.746 174.327 45.6641 173.231C45.6125 172.54 45.6791 171.92 46.0397 171.633ZM51.0589 137.85C53.936 137.476 54.4474 138.425 53.8596 139.811C52.5098 142.993 47.6021 139.534 50.6838 137.968C50.8043 137.907 50.9293 137.866 51.0589 137.85ZM71.0974 123.707C70.0868 127.847 62.2294 132.364 62.1471 125.582C62.1169 123.055 63.536 123.26 65.6079 123.017C66.7898 122.879 71.6754 121.341 71.0974 123.707ZM43.957 130.119C43.0749 132.434 42.3675 134.809 41.5029 137.127C41.1198 138.154 40.6693 138.859 39.9558 139.672C39.54 140.145 39.0693 140.373 38.8295 140.829C38.6366 141.197 39.0505 141.523 39.4233 141.341C39.9313 141.092 40.5316 141.425 40.4391 141.983C40.155 143.695 39.631 145.462 39.3453 147.126C38.9085 149.672 38.5447 152.22 38.4096 154.803C38.1169 160.419 38.1145 166.014 38.2378 171.633C38.3009 174.497 38.3291 177.362 38.4835 180.221C38.5607 181.644 38.6478 183.073 38.8238 184.487C38.8953 185.058 39.3095 186.274 39.0535 186.808C38.3877 188.2 36.2097 186.139 34.2527 184.835C33.2456 184.163 31.2015 182.667 30.2255 181.952C29.7925 181.634 29.4855 181.13 29.0814 180.775C28.9225 180.635 28.7576 180.501 28.5997 180.36C28.5337 180.301 28.4655 180.245 28.395 180.191C28.3241 180.137 28.2522 180.058 28.186 179.998C27.8647 179.708 27.2816 180.039 26.9512 179.76C25.2762 178.341 24.7153 175.937 23.6667 174.263C23.0652 173.303 22.4839 173.153 22.3813 171.826C22.2924 170.669 22.4665 169.49 22.4194 168.328C22.3663 167.018 22.2895 165.573 21.9219 164.304C21.5594 163.052 21.0808 162.951 20.2429 162.467C20.03 162.344 20.059 162.025 20.2194 161.839C20.3727 161.661 20.1917 161.46 19.966 161.525C19.4986 161.659 18.9037 161.808 18.712 161.582C18.1975 160.976 18.6189 160.135 18.7647 159.354C18.8199 159.058 18.9841 158.712 19.1774 158.276C19.3238 157.946 19.4636 157.453 19.5884 157.174C19.8604 156.566 20.0171 156.951 20.107 156.195C20.1922 155.475 19.5535 154.058 19.3653 153.29C19.0499 152.003 18.8753 150.89 19.1586 149.548C19.3883 148.462 20.0063 147.478 20.0491 146.361C20.0614 146.047 19.5836 145.943 19.577 145.641C19.5676 145.198 19.9809 145.003 20.0882 144.594C20.3626 143.548 20.2388 142.44 20.7081 141.447C21.1303 140.555 21.9831 139.401 22.5865 138.622C23.005 138.083 24.0315 137.474 24.144 136.762C24.2184 136.29 23.4836 136.345 23.5161 135.989C23.5608 135.507 23.9647 135.352 24.0753 134.994C24.3807 134.013 24.4575 133.069 25.2468 132.317C26.2413 131.37 26.6729 131.767 26.7143 130.204C26.7341 129.442 26.1246 129.325 26.4512 128.446C26.6287 127.97 27.1521 127.688 27.4867 127.35C28.4808 126.347 29.151 125.457 29.8589 124.217C30.4849 123.123 31.4832 122.486 32.1247 121.541C32.2771 121.316 32.36 121.112 32.4042 120.926C32.6736 119.794 32.7285 118.151 33.5429 117.319C33.9429 116.91 34.9572 117.16 35.3112 116.688C35.7169 116.145 35.1173 114.86 35.7287 114.508C36.2257 114.222 36.9698 115.104 37.7511 114.667C37.873 114.599 38.0076 114.468 38.143 114.297C38.7573 113.519 40.3978 111.808 40.9456 110.982C41.1108 110.733 41.6111 110.678 41.7533 110.426C42.0376 109.924 41.9726 109.411 42.3826 109.003C43.065 108.323 44.182 108.498 44.9331 108.012C45.554 107.611 45.521 107.179 46.0162 106.8C46.4393 106.477 47.1345 106.415 47.5458 106.08C48.3516 105.423 48.3596 104.73 49.3678 104.165C50.5619 103.496 51.6195 102.926 52.7058 102.039C53.4137 101.461 54.0858 100.436 54.9142 100.054C56.0599 99.5264 56.9522 99.4892 58.0729 98.7362C58.8829 98.1921 59.6487 97.294 60.4437 96.8351C61.0438 96.4896 61.4646 96.564 62.2205 96.3498C63.5812 95.9639 63.9126 94.6818 65.0224 94.1598C65.7844 93.8016 66.8938 94.1297 67.7307 93.9414C70.3344 93.3568 72.9066 92.0959 75.5198 91.3974C78.7919 90.5234 80.9793 94.0645 78.5139 96.3867C77.2381 97.5884 75.9247 98.74 74.6048 99.8399C73.3524 100.883 66.49 105.641 70.189 107.673C71.674 108.489 74.8995 105.855 76.0983 105.211C78.5124 103.914 81.0126 102.876 83.541 101.828C85.4503 101.036 87.6291 99.9557 89.872 99.0542C92.9082 97.834 94.4027 100.763 91.9758 102.958C90.6843 104.126 89.3769 105.278 88.1155 106.473C86.9178 107.608 85.4701 108.714 84.2775 109.937C82.1025 112.169 78.3742 115.185 75.3047 114.648C73.6569 114.36 71.9806 114.211 70.2031 114.325C68.3016 114.447 66.3987 114.218 64.5056 114.485C62.4474 114.776 60.5091 115.465 58.5309 116.069C56.9659 116.547 55.2366 116.585 53.7969 117.38C53.1012 117.764 52.2408 118.313 51.6158 118.79C50.7822 119.426 50.593 119.847 49.9383 120.685C47.6037 123.674 45.3445 126.477 43.957 130.119ZM31.6677 186.266C31.4651 186.484 31.1076 186.383 31.0364 186.094C30.9508 185.746 31.3369 185.433 31.6141 185.659C31.8853 185.881 31.8893 186.027 31.6677 186.266ZM21.3647 170.223C21.2046 170.444 20.5316 170.515 20.3362 170.324C20.3317 170.32 20.3274 170.315 20.3234 170.31C19.8383 169.704 21.819 169.594 21.3647 170.223ZM18.9964 164.304C18.7559 164.274 18.6297 164.052 18.6934 163.818C18.8185 163.359 19.7407 163.173 20.0261 163.554C20.1721 163.749 20.2771 163.94 20.284 164.121C20.2935 164.386 19.5091 164.366 18.9964 164.304ZM19.4826 167.698C19.0966 166.719 20.3836 166.1 20.6395 167.121C20.8492 167.957 19.8806 168.59 19.527 167.803C19.5114 167.769 19.4967 167.734 19.4826 167.698ZM43.8092 99.0171C43.5235 98.4746 44.6625 99.5181 44.0862 99.3089C43.9907 99.2742 43.8969 99.1836 43.8092 99.0171ZM44.6385 96.8445C45.007 96.5122 45.7498 96.9255 46.1668 96.6572C46.4591 96.4689 46.3621 96.2778 46.4995 96.1663C46.5268 96.1442 46.9241 95.3398 47.0869 95.1572C47.3745 94.8366 48.0015 94.6366 48.3507 94.3467C49.3273 93.5376 49.8785 92.4729 50.4932 91.3904C51.226 90.0979 51.46 89.9482 52.6423 89.3561C53.4575 88.9485 54.0891 88.4491 54.7523 87.7554C55.5167 86.9566 55.4607 86.3848 56.0881 85.5117C56.3983 85.081 56.8445 85.0273 57.2055 84.68C57.6385 84.2644 57.8583 83.6826 58.2588 83.2633C58.4316 83.0816 58.987 83.082 59.0915 82.9267C59.1615 82.8236 59.2234 82.5586 59.2845 82.3088C59.3503 82.0397 59.611 82.0104 59.7759 82.2331C59.962 82.4843 60.3444 82.4608 60.4982 82.1886C61.2894 80.7883 61.9884 79.6097 63.3769 78.638C65.0318 77.4796 66.4603 75.7852 68.1707 74.7483C68.5553 74.5153 69.3385 74.4174 69.6322 74.0738C70.1287 73.4926 69.6985 72.9758 70.061 72.482C70.4719 71.9229 71.2682 72.3756 71.7907 72.1347C72.6077 71.7573 72.7455 71.9869 72.3367 72.7887C70.6996 75.9998 70.7037 80.1746 70.5796 83.6374C70.5152 85.4199 71.6377 86.3184 69.9805 87.6264C68.5708 88.7391 66.5832 88.4087 64.9165 89.141C62.8234 90.0607 60.5849 90.5497 58.4499 91.3513C56.2411 92.1802 54.4652 93.6312 52.3397 94.5914C50.465 95.4377 49.1852 96.6407 47.4705 97.6856C46.8332 98.0739 45.8462 98.6378 45.0861 98.1737C44.6103 97.8828 44.0172 97.4051 44.6385 96.8445ZM75.76 69.4983C76.0954 69.2328 76.3615 68.8655 76.703 68.6077C77.4522 68.0422 78.9128 67.2676 79.3549 66.9643C80.8749 65.9188 83.1167 63.5061 84.7072 62.5712C84.9308 62.4397 85.1564 62.3424 85.3767 62.2882C86.6818 61.9662 88.9204 60.8474 90.2044 59.8703C90.5795 59.5851 90.7028 59.1681 91.1443 58.9007C91.9129 58.4343 92.6749 58.6889 93.4153 58.0535C93.5095 57.9726 94.2381 56.782 94.5004 56.3993C94.5544 56.3206 94.6086 56.3352 94.6337 56.4272C94.6885 56.6278 94.917 56.7307 95.0992 56.6306C95.7271 56.2856 96.2812 55.9698 96.6883 55.5077C96.798 55.3829 96.0859 55.0586 96.3109 54.8115C96.5543 54.544 97.3246 55.4197 97.2792 55.7785C97.0492 57.5956 97.1006 59.5458 97.5801 61.3238C98.1004 63.2529 96.7981 66.62 94.8063 66.4621C91.9354 66.2345 89.0603 65.9833 86.1274 66.5181C83.6168 66.9766 81.0644 67.7282 78.7806 68.8833C77.978 69.2893 77.0471 70.2963 76.1362 70.849C75.1227 71.464 74.8305 70.2343 75.76 69.4983ZM101.396 56.7201C103.333 54.3503 106.272 53.4127 109.232 54.2613C109.747 54.409 110.153 54.5881 110.469 54.7949C112.333 56.0129 107.928 57.4536 105.702 57.4002C103.087 57.3381 104.075 59.5169 105.645 60.2977C107.073 61.0065 109.521 61.2042 110.543 62.4943C111.269 63.4097 111.262 64.7496 111.268 65.9821C111.271 66.6403 110.681 67.1872 110.029 67.0904C109.466 67.0066 109.106 66.4667 109.088 65.897C109.01 63.4354 106.492 63.2069 104.126 62.3414C101.435 61.3581 99.1909 59.4171 101.396 56.7201ZM108.696 48.7955C109.35 48.5195 110.074 49.0003 110.074 49.7106C110.074 50.4724 109.252 50.9508 108.59 50.5735C107.875 50.166 107.938 49.1152 108.696 48.7955ZM118.735 73.8291C122.332 74.8043 125.905 75.8356 129.364 77.1807C130.62 77.6693 131.995 77.842 133.226 78.3937C134.398 78.9185 134.574 78.8639 134.157 79.8909C132.989 82.7686 130.223 82.2715 127.8 81.8315C124.006 81.1424 120.291 80.1869 116.545 79.2879C112.883 78.4101 109.144 77.8345 105.538 76.7336C101.837 75.6049 98.2307 74.5356 94.4239 73.79C93.7494 73.658 90.2438 73.3088 87.6091 72.8493C85.7374 72.5228 85.9452 71.6569 87.8434 71.575C92.3417 71.3808 96.908 71.8518 101.384 71.912C107.162 71.9897 113.131 72.3102 118.735 73.8291ZM113.851 62.6981C113.929 60.4692 117.5 59.1336 119.197 57.6858C119.264 57.6279 119.333 57.5672 119.402 57.5038C121.389 55.6799 121.833 54.7292 124.352 56.4438C126.536 57.9307 128.603 57.862 130.922 56.5606C132.337 55.7665 134.611 52.5227 136.098 53.1905C136.807 53.5087 137.326 54.7918 138.042 55.2639C138.94 55.855 140.32 56.2655 141.366 56.4951C143.838 57.0364 145.311 55.4469 146.862 53.7464C149.112 51.281 149.046 52.7128 151.132 54.4228C151.568 54.7799 151.99 55.0375 152.403 55.2096C154.934 56.2652 158.383 56.4913 158.849 59.1939C159.215 61.3171 159.442 63.4714 159.636 65.5787C159.758 66.9097 160.215 68.7995 159.02 69.7408C158.177 70.4045 156.389 70.4304 155.374 70.797C151.747 72.1083 148.262 73.9689 145.229 76.3505C144.047 77.2782 143.017 78.4144 141.402 78.203C139.863 78.0016 138.368 76.7134 137.13 75.8624C135.787 74.9403 134.427 73.8926 132.858 73.3782C131.938 73.077 130.466 73.1861 129.661 72.634C128.166 71.607 129.926 68.9138 129.553 67.106C129.271 65.7335 128.481 62.8718 126.591 63.6762C124.293 64.6541 121.159 69.8006 118.769 69.0721C118.25 68.9138 117.74 68.7495 117.241 68.5792C114.884 67.7734 113.767 65.1117 113.851 62.6981ZM166.927 72.3352C173.424 70.5108 179.503 69.281 186.264 68.9487C189.257 68.8014 192.154 68.8945 195.113 68.9214C196.816 68.9369 198.115 67.563 196.754 65.9825C194.87 63.7943 189.124 64.6274 186.578 64.5291C181.143 64.3191 176.068 64.7684 170.962 66.0965C169.557 66.462 169.229 65.9441 170.486 65.2172C171.866 64.418 172.804 63.1015 173.394 61.6405C173.761 60.7324 173.952 59.8368 174.008 58.9522C174.223 55.5654 176.558 52.7682 179.837 53.6442C180.347 53.7806 180.856 53.8913 181.362 53.9667C182.027 54.0655 182.453 54.002 183.041 54.2439C183.402 54.3922 183.516 54.9052 183.963 55.0172C184.179 55.0718 184.698 54.5833 184.943 54.6525C185.908 54.9254 185.145 54.9979 185.755 55.3928C186.24 55.7063 186.2 56.1101 187.089 55.9619C187.483 55.8969 187.91 55.2874 188.117 55.2709C188.382 55.2493 188.321 54.9273 188.726 55.0215C189.462 55.1923 189.397 56.1407 189.642 56.6076C189.904 57.1047 189.532 57.7655 190.326 58.0371C190.92 58.2409 191.069 57.6135 191.574 57.6586C191.881 57.6859 192.517 58.1279 192.788 58.3967C193.512 59.1169 194.459 59.8992 195.431 60.4669C195.544 60.5328 196.541 60.3735 196.42 60.3241C196.313 60.2803 197.015 60.4497 197.004 60.4474C197.681 60.6013 198.039 61.641 198.381 62.0204C199.011 62.7151 199.989 63.4489 200.871 63.7557C201.968 64.1373 204.172 65.534 204.952 66.3955C205.182 66.6503 205.442 66.8572 205.752 66.9295C206.448 67.0923 206.367 66.7939 207 67.1587C207.26 67.3084 207.469 67.6428 207.664 67.9664C207.818 68.2212 208.154 68.1579 208.23 67.87C208.316 67.5414 208.769 67.4857 208.948 67.7747C209.742 69.0574 210.924 70.5118 212.27 71.0306C213.027 71.3226 213.462 72.0904 214.007 72.6915C214.278 72.9903 214.717 72.651 214.928 72.8247C215.113 72.9762 215.556 73.5796 215.698 73.6789C215.977 73.8747 216.483 74.0178 216.725 74.2127C216.939 74.3845 217.045 75.2049 217.282 75.5009C217.457 75.72 217.682 75.87 217.913 76.012C218.253 76.221 218.97 75.9694 219.02 75.5736C219.06 75.258 219.433 75.1071 219.619 75.3646C219.883 75.7281 219.95 76.1079 220.071 76.6677C220.324 77.8303 219.989 77.5578 220.791 78.0487C221.579 78.5311 221.99 78.477 222.712 79.3143C222.75 79.358 222.786 79.4008 222.82 79.4426C223.449 80.2165 224.486 81.0321 225.207 81.7213C225.271 81.7822 225.368 81.8334 225.486 81.8805C226.193 82.1625 225.484 82.0129 225.906 82.6468C226.301 83.24 227.698 84.0959 228.219 84.5827C228.638 84.9749 229.165 85.3267 229.725 85.8044C230.809 86.7265 230.986 86.6596 231.356 88.2096C231.275 87.8841 231.493 88.7634 231.658 89.0557C231.886 89.4611 232.621 89.9948 232.798 90.1332C233 90.2904 233.264 89.9143 233.599 90.169C233.982 90.4608 234.295 91.1235 234.607 91.5231C235.453 92.6066 236.079 93.5376 236.97 94.4182C237.93 95.369 238.398 96.5711 239.32 97.6823C240.344 98.9164 240.897 100.335 241.753 101.675C242.567 102.949 243.647 103.972 244.59 105.139C245.76 106.586 246.329 109.388 247.848 110.606C248.358 111.015 249.419 112.213 249.494 112.863C249.547 113.328 249.565 113.786 249.611 114.236C249.684 114.934 251.078 115.527 251.537 116.057C252.436 117.097 251.647 116.835 251.695 117.888C251.752 119.165 251.897 118.177 252.384 119.292C252.922 120.527 251.812 121.697 251.023 120.605C250.735 120.206 250.501 119.741 250.287 119.281C250.043 118.758 249.958 117.897 249.525 117.487C249.065 117.051 248.432 117.017 247.959 116.531C247.051 115.597 246.658 114.14 245.588 113.231C244.378 112.204 244.111 111.718 243.111 110.49C242.005 109.132 240.478 108.178 239.319 106.864C238.157 105.548 238.251 106.266 236.792 105.79C236.087 105.559 235.183 104.425 234.223 103.433C233.213 102.388 229.393 100.079 228.082 99.452C227.679 99.2595 227.211 99.4337 226.809 99.1452C226.593 98.9903 226.476 98.7643 226.36 98.5299C226.13 98.0662 225.55 98.1812 225.088 97.9478C224.81 97.8066 224.807 97.3067 224.561 97.1425C223.88 96.6868 223.068 96.2096 222.345 95.8217C220.587 94.879 219.034 93.7183 217.338 92.5835C215.885 91.6111 214.127 89.855 212.448 89.3425C210.981 88.8949 210.059 89.1231 208.858 88.2265C208.203 87.7384 208.396 87.5741 207.345 87.2706C206.344 86.9816 205.782 87.1303 205.251 86.0689C204.324 84.2117 204.909 80.5865 204.73 78.5038C204.539 76.2935 204.313 74.0282 203.737 71.8791C203.055 69.3389 202.155 68.0111 199.43 68.6093C194.032 69.7959 188.698 70.925 183.275 71.9666C172.469 74.0428 161.847 77.4302 151.278 80.4378C150.474 80.6675 145.982 81.6954 146.9 79.3731C147.322 78.3019 150.165 77.9028 151.116 77.5662C156.34 75.7174 161.588 73.8338 166.927 72.3352ZM163.779 66.8809C164.304 67.1669 164.252 67.936 163.694 68.1488C163.236 68.3235 162.744 67.9853 162.744 67.495C162.744 66.9639 163.313 66.6265 163.779 66.8809ZM161.832 56.0033C162.518 56.5639 163.912 55.2149 164.495 54.9414C165.491 54.475 166.759 54.0745 167.872 54.17C169.925 54.3479 171.426 56.3685 171.049 58.4169C170.644 60.6268 168.489 62.0939 166.275 63.2183C164.62 64.0587 161.96 62.5513 163.129 61.1096C163.876 60.1871 165.327 60.2539 166.017 59.2726C167.101 57.7329 165.673 57.0674 164.192 57.2621C163.205 57.3917 161.48 56.9868 161.167 56.0422C160.948 55.3816 161.376 54.8893 161.568 55.558C161.616 55.7241 161.686 55.8846 161.832 56.0033ZM164.649 49.0293C165.454 48.816 165.646 49.8932 164.947 50.3455C164.367 50.7205 163.514 50.3484 163.794 49.7172C163.956 49.3527 164.259 49.1326 164.649 49.0293ZM255.385 124.902C255.681 125.215 255.434 125.776 255.031 125.623C254.446 125.401 254.743 124.254 255.186 124.696C255.248 124.759 255.314 124.827 255.385 124.902ZM261.189 157.471C261.349 159.573 261.223 161.699 261.503 163.793C261.717 165.386 262.362 166.868 262.431 168.479C262.581 172.006 261.39 175.598 258.984 178.184C256.709 180.63 253.453 182.736 250.381 183.764C248.997 184.227 247.552 185.254 246.208 185.633C244.655 186.072 241.805 183.925 241.733 182.313C241.484 176.673 241.847 170.912 241.796 165.32C241.731 158.228 241.808 151.133 240.608 144.117C239.539 137.868 237.433 130.84 233.55 125.728C231.973 123.652 230.031 121.952 227.983 120.36C226.921 119.535 225.858 118.652 224.675 118C222.853 116.996 221.302 117.135 219.321 116.849C216.486 116.44 213.851 116.094 211.005 116.892C208.356 117.636 205.439 118.482 203.066 119.773C200.702 121.06 197.957 121.591 195.504 122.743C193.835 123.527 190.368 126.146 188.516 125.675C186.723 125.218 184.07 122.176 182.925 120.813C181.462 119.071 180.252 117.052 178.954 115.179C178.499 114.521 177.57 113.504 177.452 112.659C177.246 111.193 177.833 111.672 179.234 111.836C182.836 112.258 186.223 112.926 189.675 114.06C191.393 114.624 194.753 116.906 196.471 115.539C199.094 113.451 195.108 109.862 193.648 108.657C191.161 106.602 188.269 105.077 185.618 103.251C185.444 103.131 185.267 103.011 185.087 102.891C182.052 100.854 183.654 98.223 187.102 99.4384C189.079 100.135 191.042 100.865 192.984 101.626C195.336 102.548 197.66 103.521 199.868 104.747C201.109 105.435 203.615 107.297 205.108 106.405C208.355 104.467 200.898 98.8373 199.822 97.687C198.149 95.8994 196.511 94.1287 194.674 92.5068C193.12 91.1354 193.661 90.5013 195.428 91.5831C195.798 91.8093 196.173 92.0262 196.558 92.2244C197.567 92.744 198.487 93.0429 199.601 93.202C200.789 93.3719 200.931 93.5611 201.867 94.0332C202.595 94.4017 203.344 94.8936 204.163 95.144C204.599 95.2778 205.278 95.3286 205.806 95.4842C206.13 95.5793 206.372 95.8269 206.57 96.0993C206.614 96.1595 206.658 96.2195 206.702 96.2793C206.945 96.6078 207.294 96.837 207.678 96.9752C207.892 97.052 208.09 97.1706 208.24 97.3413C208.56 97.7061 208.803 98.1346 209.159 98.4712C212.351 101.489 216.62 103.649 220.198 106.177C223.583 108.569 227.175 110.733 230.426 113.343C234.168 116.348 238.051 119.578 241.233 123.181C243.031 125.217 244.51 127.525 246.021 129.777C247.114 131.407 248.705 132.76 249.65 134.441C251.712 138.106 253.423 142.068 255.642 145.674C257.903 149.348 260.849 152.999 261.189 157.471ZM234.666 175.418C233.548 176.488 232.48 175.679 233.609 174.621C233.638 174.594 233.666 174.568 233.695 174.541C234.765 173.552 235.719 174.411 234.666 175.418ZM236.512 187.61C234.616 191.543 226.279 191.993 227.41 186.172C227.964 183.32 230.317 181.57 232.336 179.704C232.799 179.275 233.596 178.299 234.458 177.485C235.733 176.282 236.957 177.447 236.891 179.198C236.844 180.439 236.804 181.68 236.807 182.918C236.81 184.399 237.183 186.218 236.512 187.61ZM230.522 145.882C232.012 143.893 235.896 145.158 234.21 146.984C233.567 147.682 231.468 149.208 230.519 148.869C229.149 148.38 229.57 147.154 230.522 145.882ZM215.671 126.901C216.405 126.861 217.118 126.97 217.843 126.925C218.468 126.887 218.609 126.786 219.07 126.818C219.224 126.829 219.361 126.916 219.449 127.044C219.498 127.115 219.527 127.197 219.545 127.282C219.626 127.667 219.816 127.805 220.115 127.696C220.464 127.568 220.84 127.424 221.201 127.513C222.04 127.72 222.103 128.757 221.389 129.243C219.455 130.563 217.278 131.834 215.088 132.266C210.691 133.133 211.906 127.108 215.671 126.901ZM148.266 163.694C148.26 163.705 148.255 163.715 148.249 163.725C147.621 164.837 148.835 162.552 148.266 163.694ZM183.594 139.551C185.676 138.337 187.996 137.212 190.32 136.183C192.602 135.174 194.882 136.707 193.71 138.91C192.746 140.721 191.345 142.422 190.297 143.572C188.73 145.292 186.841 147.076 184.716 148.065C182.419 149.136 179.908 148.666 180.02 145.663C180.061 144.565 180.311 142.799 180.758 141.796C181.334 140.503 182.423 140.234 183.594 139.551ZM143.253 83.4552C142.067 85.0835 143.504 80.9405 143.419 82.9531C143.41 83.1537 143.352 83.3196 143.253 83.4552ZM101.945 125.31C99.9995 124.024 99.6631 121.388 101.213 119.646C103.631 116.927 106.006 113.94 106.054 110.378C106.082 108.339 105.479 107.141 104.504 106.484C101.414 104.4 99.2393 102.152 101.23 99.0018C102.827 96.4754 103.281 94.0119 100.478 92.6311C98.612 91.7118 95.9597 92.6099 94.0874 93.0914C91.4178 93.7779 90.0943 91.1818 90.5677 88.4663C90.6286 88.1168 90.6554 87.7588 90.6425 87.392C90.4811 82.8156 86.7247 83.9222 83.4765 84.5934C82.2283 84.8518 76.6523 87.0701 75.6046 85.5639C75.221 85.0123 75.8418 84.3114 75.9731 83.8201C76.2056 82.9512 76.1336 82.6476 76.1416 81.7599C76.1562 80.1264 77.1474 78.0691 76.585 76.4561C76.5115 76.2454 76.2387 76.2423 76.1378 76.4413C76.0141 76.6855 75.6735 76.6606 75.6436 76.3886C75.6071 76.0565 75.5982 75.7215 75.5767 75.3878C75.5437 74.8745 76.0362 74.3842 76.5358 74.5066C84.2729 76.4007 92.1274 77.5108 99.9007 79.1971C104.032 80.0933 107.92 81.6361 112.107 82.3308C116.33 83.0307 120.48 84.1025 124.711 84.7703C128.572 85.3789 132.27 86.3932 136.093 87.1708C139.82 87.929 143.642 86.2676 147.279 85.426C155.426 83.5419 163.57 81.6117 171.728 79.7836C179.32 78.0814 187.158 76.5783 194.634 74.214C197.259 73.3839 200.053 75.2234 200.249 77.9693C200.278 78.3646 200.307 78.7598 200.338 79.1549C200.586 82.2967 197.346 84.5105 194.244 83.9498C191.73 83.4952 189.202 83.7042 187.16 85.4133C185.55 86.7599 185.053 89.0855 185.69 91.0628C186.296 92.945 185.78 94.1395 183.966 93.3513C179.307 91.3261 173.999 89.6443 172.697 94.8267C172.244 96.6275 172.663 98.2195 173.547 99.6549C175.174 102.298 173.063 105.094 171.773 107.917C170.113 111.553 172.113 115.508 174.162 118.506C175.272 120.131 176.521 121.66 177.701 123.234C178.326 124.066 178.935 124.911 179.591 125.719C180.249 126.529 181.489 127.378 181.951 128.25C182.879 130.009 181.006 130.116 179.549 130.752C177.731 131.545 176.169 132.878 174.506 133.94C170.698 136.371 167.369 138.629 162.869 139.407C158.236 140.206 153.774 141.042 149.202 142.158C144.644 143.27 140.924 144.338 136.264 142.901C134.14 142.246 132.41 141.663 130.157 141.786C127.79 141.916 126.407 141.793 124.461 140.327C117.24 134.888 109.486 130.291 101.945 125.31ZM88.0535 118.73C85.5105 117.939 85.634 115.358 88.0342 114.204C89.7064 113.4 91.3923 112.626 93.1004 111.913C94.5399 111.311 96.3679 110.659 98.217 110.242C100.692 109.685 102.142 112.142 100.454 114.036C99.9942 114.553 99.509 115.047 99.0139 115.526C97.536 116.954 95.6896 119.11 93.9015 120.107C92.2772 121.011 90.3879 119.578 88.7862 118.977C88.5523 118.89 88.3067 118.808 88.0535 118.73ZM84.0776 124.754C85.6901 124.084 89.1557 126.332 90.6223 126.917C92.1471 127.525 93.6763 128.147 95.1545 128.867C97.2733 129.898 97.6253 132.636 95.9472 134.29C93.6106 136.594 91.0407 138.652 88.1546 140.243C85.4087 141.758 80.7801 143.496 78.1895 140.745C75.1285 137.494 78.4081 131.071 80.7258 127.854C80.8826 127.636 81.2175 127.723 81.2576 127.989C81.3 128.269 81.6461 128.332 81.7676 128.076C82.3458 126.857 82.9297 125.231 84.0776 124.754ZM143.277 155.432C141.265 155.856 140.581 155.473 139.253 153.93C138.356 152.888 137.474 151.805 136.461 150.867C135.428 149.91 132.877 147.603 136.127 148.932C139.09 150.142 141.628 150.747 144.888 150.273C145.96 150.117 147.012 149.876 148.053 149.592C150.119 149.028 151.346 151.253 149.732 152.659C147.6 154.516 145.986 154.861 143.277 155.432ZM143.894 169.108C143.981 169.484 143.584 169.733 143.261 169.943C138.724 172.894 130.557 172.315 133.44 165.269C133.894 164.16 134.529 163.117 135.263 162.172C135.508 161.857 135.944 161.203 136.293 160.992C137.268 160.4 136.998 160.328 137.935 161.314C138.637 162.053 143.497 167.392 143.894 169.108ZM143.947 157.416C142.718 158.073 143.143 156.167 144.537 156.191C144.706 156.194 144.843 156.241 144.923 156.354C145.093 156.593 144.565 157.086 143.947 157.416ZM174.524 207.525C173.533 209.897 165.6 213.33 167.078 208.549C167.733 206.431 168.35 204.828 170.819 204.667C172.245 204.574 175.398 205.436 174.524 207.525ZM191.617 174.822C190.239 174.765 189.756 174.15 190.937 173.436C192.727 172.354 195.005 171.881 196.215 173.745C197.103 175.112 194.95 175.812 193.648 175.461C192.949 175.271 192.377 174.853 191.617 174.822ZM187.076 179.414C188.739 177.594 189.192 179.991 187.099 181.293C185.732 182.143 185.775 180.915 186.826 179.697C186.908 179.601 186.992 179.507 187.076 179.414ZM183.47 222.877C181.951 222.963 185.175 222.587 183.676 222.854C183.613 222.865 183.544 222.873 183.47 222.877ZM189.639 216.589C189.004 217.682 187.759 217.251 187.063 216.196C186.551 215.42 186.135 214.582 186.339 213.812C186.62 212.759 189.15 211.343 190.21 211.947C191.15 212.484 190.552 215.019 189.639 216.589ZM232.327 206.627C231.531 209.368 230.707 208.661 228.212 209.192C227.553 209.333 226.948 209.583 226.374 209.897C224.8 210.757 223.045 209.371 224.297 208.087C224.594 207.784 226.41 207.185 225.375 206.483C224.47 205.869 223.17 207.861 222.782 208.404C220.873 211.076 219.538 214.34 218.436 217.414C217.894 218.924 217.46 220.463 217.204 222.048C216.975 223.461 217.222 224.94 216.989 226.316C216.613 228.533 213.603 228.544 211.792 229.116C210.153 229.633 208.521 230.194 206.819 230.473C205.344 230.715 203.814 230.274 202.384 230.565C200.836 230.879 200.141 231.798 198.381 231.59C196.947 231.421 195.604 230.761 194.151 230.695C192.79 230.634 191.433 231.105 190.08 230.722C189.073 230.436 188.845 230.28 188.919 229.678C188.956 229.385 189.354 229.334 189.494 229.594C189.588 229.77 189.815 229.812 189.932 229.652C190.343 229.09 190.651 228.101 190.928 227.591C191.446 226.645 191.867 226.318 191.675 225.14C191.392 223.4 189.824 222.162 189.468 220.506C189.096 218.779 190.373 217.367 191.128 215.925C191.997 214.264 192.125 212.963 191.627 211.375C191.506 210.99 191.849 210.597 192.24 210.7C192.637 210.805 192.925 210.413 192.588 210.177C191.325 209.294 189.046 209.911 187.793 210.385C187.029 210.673 185.818 211.809 184.996 211.78C183.867 211.74 183.278 210.255 182.793 209.437C181.388 207.071 179.784 204.735 178.123 202.538C177.666 201.934 177.067 201.546 177.225 200.857C177.359 200.273 178.669 199.445 179.094 199.085C180.688 197.737 182.717 196.99 184.213 195.571C186.476 193.428 189.085 191.892 191.398 189.791C193.807 187.602 196.29 185.592 198.801 183.523C200.094 182.459 201.298 181.298 202.502 180.136C204.312 178.387 206.8 179.099 208.091 181.26C208.512 181.965 208.969 182.495 209.444 182.603C211.134 182.985 211.084 180.986 211 179.782C210.88 178.068 209.928 176.401 209.822 174.765C209.708 173.014 211.393 172.232 212.664 171.219C214.627 169.655 218.972 166.092 216.637 163.16C214.624 160.634 208.081 165.477 206.278 166.933C204.745 168.17 203.561 169.29 201.835 170.266C200.621 170.951 198.586 173.59 197.147 173.346C195.436 173.057 194.768 171.188 192.675 171.25C190.629 171.31 188.892 172.783 187.624 174.262C184.756 177.605 183.771 182.079 181.158 185.564C179.87 187.282 178.199 188.701 176.802 190.327C176.44 190.747 176.146 191.182 175.887 191.625C174.601 193.826 171.981 193.989 170.397 191.991C166.944 187.635 163.333 183.404 159.814 179.103C157.533 176.316 155.3 173.497 153.068 170.672C152.232 169.613 151.289 168.619 150.523 167.507C149.474 165.984 149.663 164.761 149.251 163.062C149.069 162.309 148.213 161.407 148.442 160.688C148.75 159.721 150.912 158.962 151.692 158.566C154.875 156.95 157.762 154.931 160.73 152.956C165.744 149.622 170.811 146.477 176.1 143.581C176.763 143.218 177.457 143.722 177.266 144.454C177.046 145.296 177.586 145.312 177.815 144.472C178.089 143.469 178.461 142.532 178.989 142.456C178.791 142.485 178.954 146.892 179.114 147.521C179.593 149.398 180.981 150.682 182.967 150.67C186.75 150.645 190.14 146.531 192.24 143.805C193.661 141.959 195.027 139.813 195.527 137.503C195.977 135.429 195.482 133.987 197.638 132.934C200.335 131.617 203.045 130.448 205.822 129.477C208.43 128.565 210.044 131.192 211.766 133.352C211.917 133.541 212.094 133.718 212.301 133.882C214.347 135.501 217.023 134.058 218.948 132.987C220.856 131.927 223.797 129.014 226.038 129.86C228.241 130.692 229.775 133.456 231.009 135.291C232.096 136.909 233.279 138.075 232.02 139.879C230.609 141.899 229.691 143.871 228.56 146.066C228.126 146.91 227.711 147.46 228.018 148.324C228.118 148.605 229.251 150.275 229.558 150.515C231.969 152.391 235.932 152.001 236.081 155.052C236.197 157.456 236.276 159.861 236.377 162.276C236.523 165.765 237.874 169.201 235.01 171.751C232.148 174.301 229.758 176.919 228.013 180.372C227.081 182.216 226.245 184.109 225.237 185.916C224.763 186.765 223.918 187.894 223.764 188.983C223.663 189.687 224.481 189.829 224.821 189.205C225.272 188.376 226.255 188.532 226.568 189.422C227.004 190.664 227.689 191.756 229.041 192.297C229.164 192.347 229.286 192.389 229.408 192.425C232.413 193.315 235.528 194.611 234.788 197.657C234.056 200.669 233.191 203.651 232.327 206.627ZM229.792 212.888C228.091 216.524 226.554 220.909 223.412 223.587C222.722 224.175 219.79 226.471 218.675 226.087C217.728 225.759 218.249 223.846 218.414 223.026C219.251 218.865 220.699 216.246 224.074 213.591C225.471 212.492 227.264 211.087 229.065 210.816C231.004 210.524 230.446 211.49 229.792 212.888ZM277.789 299.212C273.377 293.213 267.142 288.551 261.249 284.043C258.58 282.002 255.638 280.471 252.941 278.429C249.893 276.12 246.796 273.893 243.381 272.153C236.907 268.854 229.843 266.554 223.733 262.653C220.753 260.75 217.493 258.911 214.692 256.775C213.461 255.837 212.374 254.637 211.262 253.562C211.062 253.369 210.819 253.16 210.553 252.937C208.725 251.404 209.209 248.158 211.525 247.587C211.625 247.562 211.727 247.544 211.831 247.532C212.047 247.508 212.746 247.647 213.444 247.695C214.594 247.773 216.202 246.772 217.317 246.48C217.716 246.376 218.188 246.539 218.592 246.396C219.209 246.178 219.628 245.549 220.251 245.308C220.694 245.137 222.339 245.328 222.588 245.115C223.155 244.63 223.03 243.938 223.767 244.053C224.376 244.148 224.975 244.17 225.697 243.783C226.101 243.566 226.443 243.067 226.835 242.809C227.362 242.46 228.77 243.091 229.349 242.838C229.465 242.787 229.6 242.73 229.759 242.673C230.827 242.288 231.599 242.01 232.815 241.913C235.721 241.684 238.637 242.036 241.529 241.83C242.588 241.754 243.492 241.514 244.543 241.653C245.469 241.774 245.19 242.418 245.959 241.551C246.138 241.349 245.56 240.797 245.837 240.508C245.959 240.38 246.358 240.47 246.509 240.404C247.352 240.036 247.672 240.218 247.851 240.668C248.071 241.219 248.583 241.619 249.152 241.451C249.297 241.408 249.441 241.361 249.582 241.307C250.017 241.143 249.973 240.668 249.765 240.252C249.61 239.943 250.041 239.763 250.375 239.857C250.553 239.907 250.713 239.949 250.848 239.994C251.58 240.242 251.806 241.419 252.541 241.18C252.811 241.093 253.098 240.982 253.523 240.938C254.135 240.874 254.988 241.254 255.497 240.765C255.983 240.3 255.376 239.8 255.893 239.375C256.066 239.232 256.327 239.242 256.481 239.405C256.51 239.436 256.537 239.469 256.562 239.504C256.637 239.608 256.768 239.701 256.88 239.762C257.23 239.949 256.944 240.638 257.333 240.711C258.236 240.882 258.079 239.949 258.747 238.974C258.942 238.69 259.815 237.808 260.212 238.235C260.815 238.88 259.584 239.086 259.848 239.728C260.306 240.841 261.902 239.414 262.392 238.85C262.762 238.424 262.914 237.607 263.313 237.289C263.868 236.847 264.667 237.53 265.362 237.408C268.536 236.851 271.534 232.583 269.142 229.726C268.5 228.958 267.956 229.111 267.19 228.626C266.433 228.147 266.008 227.318 265.401 226.634C264.013 225.072 262.315 223.902 260.376 223.154C255.877 221.419 251.03 220.153 246.307 219.222C244.119 218.791 241.79 218.131 239.551 218.136C238.231 218.138 236.244 219.164 235.01 218.673C232.612 217.717 236.133 212.824 236.714 211.244C238.421 206.602 239.708 201.652 240.553 196.778C240.718 195.824 240.654 194.589 240.998 193.68C241.393 192.635 241.477 192.783 242.321 192.698C243.846 192.544 245.514 193.343 247.102 193.067C248.862 192.761 250.764 192.903 252.54 192.359C253.357 192.109 254.114 191.837 254.652 191.148C254.821 190.932 254.633 190.743 254.74 190.592C254.766 190.555 255.14 190.149 255.314 189.953C255.372 189.888 255.399 189.805 255.4 189.717C255.403 189.321 255.792 189.221 255.922 189.596C255.99 189.795 256.055 189.989 256.168 190.142C256.429 190.496 256.878 190.125 256.968 189.695C257.08 189.152 257.229 188.903 257.776 188.435C257.76 188.449 257.797 188.417 257.858 188.365C258.012 188.234 258.35 187.671 258.451 187.497C258.472 187.461 258.505 187.432 258.543 187.414C258.721 187.333 258.904 187.273 259.092 187.232C259.411 187.163 259.741 187.053 259.916 186.778C260.108 186.476 260.148 186.21 260.139 185.904C260.124 185.387 260.619 185.056 261.078 185.294C261.525 185.526 262.065 185.216 262.155 184.721C262.639 182.044 264.368 180.341 265.562 177.949C266.136 176.801 266.72 175.903 266.857 174.518C266.936 173.719 266.73 173.014 267.061 172.26C267.36 171.577 268.032 171.209 268.313 170.464C268.865 169 268.453 167.13 268.483 165.608C268.525 163.499 268.736 161.396 268.805 159.287C268.94 155.148 268.524 150.894 267.905 146.802C267.609 144.845 267.113 142.946 266.724 141.01C266.404 139.418 265.638 137.925 265.364 136.445C265.25 135.829 265.426 135.277 265.241 134.597C264.996 133.702 264.587 132.823 264.283 131.944C263.574 129.892 262.872 127.844 262.074 125.823C260.527 121.908 258.716 118.111 256.996 114.271C255.341 110.579 253.97 106.772 251.827 103.324C249.715 99.9279 247.442 96.5889 245.116 93.3385C242.692 89.9529 239.627 87.0442 237.277 83.6276C232.863 77.2128 226.708 71.9266 220.268 67.5616C206.978 58.5539 192.617 49.5602 176.682 46.4717C174.28 46.0067 171.847 45.6838 169.4 45.6235C167.881 45.5859 165.365 46.3201 163.927 45.8062C162.316 45.2305 162.463 43.4217 162.061 42.0027C161.542 40.1788 160.373 38.9837 159.045 37.6941C157.647 36.3372 156.378 34.7515 154.635 33.8285C152.868 32.8937 150.784 32.544 148.826 32.2616C147.079 32.0089 144.467 32.2447 142.871 31.4831C142.285 31.2037 142.052 30.9197 142.071 30.7189C142.147 29.9195 143.549 29.8263 144.062 29.2083C144.255 28.9749 145.168 28.6478 145.19 28.4303C145.216 28.1753 144.45 27.4494 144.34 27.1207C143.968 26.002 145.33 26.0876 146.506 26.0072C146.863 25.9827 147.268 25.7841 147.822 25.3628C148.469 24.8702 148.668 24.6531 149.417 24.4046C149.621 24.3371 150.077 24.5455 150.254 24.4286C150.932 23.9825 150.308 24.0876 150.63 23.5604C150.549 23.6934 151.118 22.292 151.091 22.585C151.16 21.8386 151.381 22.068 150.931 21.1509C150.048 19.3568 147.8 19.2834 148.946 17.2359C149.396 16.4303 149.793 16.5105 149.92 15.3425C149.988 14.7144 149.904 13.9944 149.901 13.3556C149.895 12.0492 150.141 11.1345 148.917 10.4693C147.74 9.82947 146.655 10.5314 146.177 8.94465C145.677 7.27965 146.181 5.14505 144.377 4.00489C143.059 3.1719 141.156 3.88407 139.7 3.47666C138.24 3.06872 136.898 1.57537 135.417 2.72193C134.364 3.53681 133.806 5.54028 131.823 4.45688C130.928 3.96823 130.436 2.3277 129.871 1.40763C128.972 -0.058802 128.251 -0.588498 126.867 0.839759C126.014 1.72067 124.216 3.86501 124.106 5.08443C123.985 6.43051 125.159 6.99301 123.685 7.78929C122.218 8.58172 121.395 8.00063 120.205 9.60887C119.024 11.2044 119.938 12.0858 118.57 13.6124C116.859 15.5205 115.95 16.3442 115.974 18.9151C115.99 20.6784 114.432 22.2015 115.341 23.8744C115.874 24.8559 116.943 25.5372 118.099 26.0731C119.69 26.8109 119.492 28.7657 120.41 30.2608C121.046 31.2972 122.845 31.5128 123.96 31.3245C124.709 31.1984 124.736 31.3118 125.326 30.7842C125.713 30.4392 125.183 30.008 125.979 29.8169C127.81 29.3746 127.583 32.7661 125.784 33.3228C124.55 33.7046 123.24 33.9832 122.336 34.3923C121.247 34.8856 120.246 35.6156 119.137 36.0566C118.131 36.4567 116.907 36.364 115.995 36.9829C114.42 38.0523 113.764 40.7012 112.799 42.2587C111.706 44.0218 110.647 44.8403 108.55 45.2065C105.934 45.6626 103.828 45.8462 101.388 46.9852C98.4096 48.3765 95.4731 49.8455 92.5474 51.345C87.8284 53.7638 83.4445 56.2466 79.0626 59.1719C74.4782 62.2331 70.0191 65.428 65.5957 68.6263C61.2203 71.7897 57.5472 75.6812 53.7465 79.5068C50.6744 82.5991 47.9784 85.9367 44.9181 89.0281C41.3052 92.6786 38.6478 97.2855 35.298 101.158C33.4652 103.276 31.7115 105.359 30.5616 107.855C29.6297 109.878 28.0087 111.863 26.9266 113.985C25.5443 116.699 24.2358 119.37 22.6835 121.993C22.0467 123.069 21.2898 123.993 20.6177 125.021C19.9074 126.107 19.8174 127.161 19.6779 128.349C19.6458 128.622 19.2973 128.7 19.147 128.469C19.0181 128.272 18.7213 128.294 18.6185 128.506C18.2348 129.297 17.8167 130.083 17.5019 130.896C17.2595 131.522 17.2976 132.41 17.0542 132.957C16.7488 133.645 16.3769 133.553 15.9962 134.126C15.589 134.737 15.4577 135.56 15.0289 136.216C13.174 139.053 12.4605 142.653 11.5074 145.89C10.229 150.233 10.4305 155.224 10.5001 159.702C10.574 164.432 10.8324 169.162 11.5436 173.842C12.188 178.081 13.5651 182.146 15.7213 185.862C17.6002 189.1 20.1908 190.987 23.5095 192.646C25.0336 193.408 26.4479 193.172 28.0473 193.294C29.7996 193.427 30.9946 193.903 32.8486 193.484C33.7377 193.284 34.159 192.636 34.8654 192.42C35.3027 192.287 35.5385 192.505 35.9584 192.454C36.5589 192.381 37.8081 192.087 38.4595 192.157C40.4867 192.378 40.1464 195.443 40.346 197.007C40.6528 199.417 40.8774 201.854 41.2915 204.248C41.9086 207.82 43.033 211.225 44.0308 214.668C44.6893 216.94 43.11 219.171 40.7826 219.596C37.379 220.217 34.1739 221.101 30.7645 222.477C25.9246 224.432 21.031 225.095 15.9373 226.066C11.1722 226.975 6.58883 228.673 2.7745 231.75C0.986885 233.191 -0.870391 234.878 0.442316 237.252C1.21157 238.643 2.54612 239.084 3.76884 239.826C3.95903 239.942 4.19889 239.917 4.12431 239.708C3.99486 239.344 4.14092 238.993 4.43376 239.245C4.69807 239.472 4.88624 239.739 5.32884 239.985C6.02968 240.375 6.60343 240.361 7.37062 240.636C9.2439 241.31 10.1645 242.989 12.0162 243.46C12.5989 243.608 13.3609 243.963 13.9563 244.064C14.4943 244.155 14.9305 244.001 15.4219 243.975C15.7601 243.957 16.0742 244.11 16.3782 244.259C16.4835 244.311 16.5908 244.358 16.7002 244.4C17.0183 244.523 17.3719 244.481 17.677 244.329C17.6804 244.327 17.6838 244.325 17.6872 244.324C17.9488 244.193 18.2445 244.123 18.5265 244.201C18.9579 244.319 19.3238 244.532 19.6829 244.775C20.1104 245.065 20.5956 244.794 20.7371 244.297C20.8591 243.869 21.3045 244.014 21.3392 244.458C21.3575 244.694 21.4329 244.905 21.7652 245.126C22.972 245.927 25.3348 245.985 26.743 246.324C28.3902 246.721 30.5132 246.67 31.4531 246.651C33.6817 246.608 35.908 245.724 38.1564 246.218C39.3034 246.469 40.5276 246.732 41.6695 247.058C43.0443 247.451 44.7063 247.803 46.0595 248.298C46.5979 248.495 47.2569 249.127 47.8297 249.084C48.2857 249.05 48.4081 248.377 48.939 248.396C49.5396 248.418 49.7415 249.087 50.2612 249.289C51.0397 249.59 51.7551 249.017 52.4945 249.306C52.7604 249.41 53.1205 249.856 53.4608 250.001C53.9771 250.221 54.9994 250.224 55.5741 250.33C56.3889 250.481 57.1184 250.379 57.8164 250.429C58.3793 250.47 58.3671 250.849 58.6363 250.873C58.9455 250.901 59.4835 249.839 59.8987 249.683C60.9132 249.302 61.4418 251.136 60.771 251.987C56.6077 257.268 51.7489 261.991 46.5283 266.181C40.2321 271.235 33.7843 276.282 27.0325 280.715C20.902 284.74 14.9678 288.222 10.2149 293.904C6.20712 298.695 -0.172381 303.821 0.810855 310.765C1.79362 317.703 9.32768 320.527 15.3645 321.851C22.9574 323.517 30.7734 322.847 38.3866 323.783C41.6333 324.183 45.2405 323.97 48.5088 323.629C52.3688 323.227 55.6772 320.708 58.9959 318.887C64.965 315.61 70.068 311.226 75.9477 307.847C83.3095 303.616 90.5936 299.133 98.6642 296.3C102.419 294.981 106.284 293.477 109.313 290.766C109.764 290.362 110.099 289.753 110.608 289.42C111.474 288.856 111.706 289.428 112.209 289.257C112.595 289.126 112.97 288.708 113.304 288.583C113.868 288.371 114.354 287.201 114.393 286.6C114.412 286.307 114.524 286.011 114.763 285.732C115.922 284.378 116.313 285.844 116.702 286.801C116.827 287.11 117.21 287.118 117.275 286.791C117.311 286.613 117.307 286.435 117.285 286.25C117.255 285.993 117.524 285.81 117.74 285.953C117.959 286.098 118.257 285.902 118.241 285.639C118.176 284.606 118.45 283.637 119.012 282.711C119.575 281.787 121.494 280.707 121.874 279.694C122.277 278.621 122.427 277.029 122.52 276.196C122.692 274.649 122.522 273.538 123.539 272.185C124.632 270.732 126.293 269.814 127.679 268.686C129.87 266.902 132.28 264.65 135.309 266.36C137.7 267.711 139.002 271.021 141.246 272.721C142.606 273.754 144.043 273.858 144.91 275.458C145.612 276.751 145.839 278.299 146.502 279.627C148.106 282.846 150.415 286.53 153.049 288.999C155.501 291.297 158.649 291.286 161.519 292.711C164.359 294.122 167.311 295.652 170.318 296.674C173.602 297.791 177.143 298.267 180.341 299.62C181.985 300.316 183.456 301.365 185.115 302.031C186.905 302.75 188.79 303.257 190.603 303.915C197.787 306.525 204.817 309.724 212.365 311.171C215.712 311.812 218.811 313.555 222.183 313.922C223.629 314.079 224.809 314.278 226.225 314.64C228.445 315.208 227.975 315.509 228.793 317.36C230.138 320.409 233.424 318.603 235.958 318.68C240.012 318.802 244.006 318.146 248.054 318.115C255.134 318.061 261.951 317.263 268.799 314.939C275.675 312.605 283.503 306.982 277.789 299.212Z" fill="#323D4B"/>
<path fill-rule="evenodd" clip-rule="evenodd" d="M71.2423 190.892C72.78 189.334 79.3224 189.649 79.817 192.436C80.3682 195.547 74.5225 200.247 72.3828 201.565C69.6298 203.26 66.2692 203.578 66.7573 199.321C67.1263 196.105 69.0528 193.111 71.2423 190.892ZM76.6452 187.684C76.7227 188.019 76.5483 188.179 76.2823 188.239C75.4308 188.428 75.1052 187.436 75.9693 187.317C76.2846 187.273 76.5697 187.357 76.6452 187.684ZM65.3632 193.39C65.5356 193.405 65.7113 193.382 65.8887 193.329C68.0834 192.668 68.5542 192.489 67.301 194.408C66.8656 195.075 66.4994 195.642 66.3977 195.914C65.6093 198.021 65.1707 200.684 66.2457 202.787C69.3869 208.931 77.426 200.157 79.4368 197.093C80.8436 194.95 81.8174 192.292 79.8302 190.192C79.1228 189.443 77.9541 189.236 77.2971 188.525C76.432 187.59 77.1126 186.383 75.3734 186.586C74.1732 186.728 72.7325 187.81 71.5657 188.202C70.1593 188.674 68.8951 189.163 67.6676 190.038C67.3908 190.235 63.7511 193.245 65.3632 193.39Z" fill="#323D4B"/>
<path fill-rule="evenodd" clip-rule="evenodd" d="M157.591 195.452C156.77 199.673 152.588 204.003 148.187 204.171C143.804 204.338 142.385 199.746 143.158 196.086C143.818 192.965 146.516 187.542 150.365 188.14C153.391 188.609 158.293 191.834 157.591 195.452ZM154.799 188.397C152.021 186.247 148.181 185.252 144.961 186.958C144.347 187.283 142.666 188.252 141.618 189.335C140.604 190.382 141.874 190.878 142.983 189.933C144.424 188.704 145.465 189.866 144.267 191.333C143.815 191.887 143.401 192.444 143.145 193.015C142.256 194.997 141.769 197.266 141.915 199.444C142.174 203.321 144.771 206.333 148.791 205.8C152.472 205.312 155.689 202.491 157.445 199.32C159.789 195.085 158.468 191.236 154.799 188.397Z" fill="#323D4B"/>
<path fill-rule="evenodd" clip-rule="evenodd" d="M128.993 205.047C127.015 207.976 123.998 210.732 120.51 211.637C115.993 212.808 117.262 209.076 118.612 206.398C119.805 204.03 121.852 199.957 124.969 199.979C126.027 199.986 127.997 200.498 128.925 201.063C130.752 202.179 130.035 203.506 128.993 205.047ZM127.493 199.008C126.374 198.752 125.85 197.409 126.773 196.728C126.792 196.714 126.811 196.7 126.83 196.687C127.779 196.001 129.255 195.155 128.089 195.044C126.695 194.911 125.17 196.463 124.164 197.235C122.093 198.822 120.499 200.447 119.126 202.672C117.613 205.126 113.755 210.67 117.132 213.104C120.781 215.735 126.093 210.876 128.379 208.37C129.84 206.767 131.776 204.413 131.22 202.062C130.776 200.185 129.201 199.4 127.493 199.008Z" fill="#323D4B"/>
<path fill-rule="evenodd" clip-rule="evenodd" d="M109.206 151.395C107.164 153.725 103.015 157.12 99.5966 156.72C96.4789 156.355 97.696 152.856 98.7993 151.162C100.457 148.617 102.678 146.227 105.886 146.088C107.271 146.028 109.067 146.056 110.139 147.105C111.604 148.538 110.285 150.164 109.206 151.395ZM108.989 144.92C106.596 144.094 105.657 143.779 103.331 145.093C101.464 146.148 99.8084 147.64 98.5273 149.334C96.6097 151.869 94.6757 157.571 99.5994 158.284C105 159.067 117.847 147.984 108.989 144.92Z" fill="#323D4B"/>
<path fill-rule="evenodd" clip-rule="evenodd" d="M116.35 159.469C114.385 161.477 112.133 159.118 113.997 157.015C114.663 156.264 115.388 155.697 116.15 155.502C117.292 155.208 118.595 155.593 118.501 156.894C118.433 157.835 116.963 158.842 116.35 159.469ZM118.35 153.945C117.064 153.3 117.469 152.86 115.973 153.366C114.793 153.764 113.305 154.455 112.323 155.252C111.787 155.687 110.119 157.228 110.323 158.012C110.734 159.596 112.024 158.118 111.205 159.535C110.562 160.647 109.869 161.746 109.788 162.068C109.152 164.581 111.126 164.847 113.06 164.025C115.668 162.916 123.391 156.471 118.35 153.945Z" fill="#323D4B"/>
<path fill-rule="evenodd" clip-rule="evenodd" d="M156.665 222.097C156.61 221.765 156.607 221.425 156.651 221.091C156.85 219.583 157.209 218.072 158.585 217.23C159.963 216.387 161.391 216.509 161.595 218.239C161.785 219.846 160.21 222.7 158.937 223.576C157.343 224.674 156.906 223.555 156.665 222.097ZM158.868 225.388C162.508 223.257 164.803 213.488 158.092 216.226C154.278 217.782 155.681 227.252 158.868 225.388Z" fill="#323D4B"/>
<path fill-rule="evenodd" clip-rule="evenodd" d="M128.842 183.984C128.593 184.198 128.332 183.969 128.57 183.744C128.591 183.724 128.612 183.704 128.634 183.685C128.891 183.456 129.104 183.76 128.842 183.984ZM128.615 181.975C127.79 182.802 125.901 184.064 126.166 185.485C126.407 186.782 127.398 186.707 128.296 186.303C128.779 186.086 129.207 185.681 129.61 185.192C130.811 183.736 129.947 180.638 128.615 181.975Z" fill="#323D4B"/>
<path fill-rule="evenodd" clip-rule="evenodd" d="M128.905 108.323C129.01 112.273 129.102 116.222 129.189 120.171C129.219 121.559 128.888 123.538 129.305 124.867C129.489 125.453 131.152 127.992 131.742 128.156C133.807 128.731 133.07 123.554 133.084 122.279C133.134 117.979 133.071 113.673 133.054 109.373C133.044 107.157 133.67 88.5734 130.794 88.6643C130.299 88.6798 129.078 90.8044 128.895 91.2304C128.317 92.568 128.529 94.551 128.543 95.9771C128.582 100.091 128.795 104.21 128.905 108.323Z" fill="#323D4B"/>
<path fill-rule="evenodd" clip-rule="evenodd" d="M146.316 119.836C146.478 120.928 146.393 122.748 147.622 123.315C148.692 123.807 149.102 123.222 149.502 122.307C150.421 120.202 150.089 116.984 150.073 114.807C150.039 110.494 149.553 106.199 149.217 101.902C149.07 100.017 149.376 98.1233 149.141 96.1503C149.037 95.2847 148.934 91.8017 147.329 91.9641C145.878 92.1105 146.009 95.7606 145.93 96.701C145.272 104.53 145.157 112.021 146.316 119.836Z" fill="#323D4B"/>
<path fill-rule="evenodd" clip-rule="evenodd" d="M214.808 209.739C214.193 212.883 204.159 223.833 201.632 217.709C200.133 214.075 203.383 210.12 205.916 208.017C207.485 206.716 209.444 205.438 211.581 205.833C213.395 206.168 215.199 207.742 214.808 209.739ZM209.627 204.099C208.918 204.267 202.994 208.426 202.94 208.372C202.425 207.856 206.162 202.286 206.546 201.799C207.435 200.673 208.239 200.102 208.981 199.933C210.24 199.646 211.469 199.053 210.275 198.563C207.826 197.557 205.917 200.04 204.738 201.825C203.073 204.348 202.155 207.088 201.23 209.935C200.789 211.293 200.286 212.525 199.539 213.749C199.175 214.345 198.676 214.972 198.287 215.637C197.732 216.587 198.676 217.094 199.288 216.18C199.69 215.579 200.369 215.514 200.463 216.23C200.567 217.033 200.51 218.038 200.601 218.4C200.977 219.903 202.004 221.079 203.592 221.338C206.552 221.819 209.747 219.081 211.726 217.221C213.812 215.261 216.057 212.574 216.039 209.557C216.019 206.406 212.92 203.32 209.627 204.099Z" fill="#323D4B"/>
<path fill-rule="evenodd" clip-rule="evenodd" d="M217.652 153.576C215.972 156.146 213.026 159.227 209.907 159.824C207.618 160.262 206.108 158.566 207.028 156.276C207.805 154.341 210.451 153.119 212.185 152.267C213.561 151.592 219.976 150.019 217.652 153.576ZM216.416 149.372C215.513 149.337 214.655 149.484 213.835 149.754C211.535 150.513 209.484 148.986 211.371 147.469C211.818 147.109 212.261 146.853 212.702 146.681C215.13 145.734 216.037 144.803 213.461 145.205C211.103 145.573 209.407 147.586 208.215 149.534C206.793 151.857 206.306 154.595 204.632 156.774C204.182 157.359 202.363 158.886 201.153 160.356C200.161 161.559 201.194 161.968 202.264 160.832C203.632 159.38 205.766 160.518 207.472 161.552C207.946 161.839 208.546 161.984 209.319 161.925C211.587 161.752 214.174 159.824 215.833 158.35C217.974 156.447 222.19 149.59 216.416 149.372Z" fill="#323D4B"/>
<path fill-rule="evenodd" clip-rule="evenodd" d="M168.225 171.319C166.768 171.989 163.56 172.9 162.745 170.887C161.613 168.09 165.255 163.186 166.989 161.322C168.055 160.176 168.778 159.583 170.265 160.325C171.452 160.918 173.197 162.601 173.652 163.895C174.629 166.674 170.504 170.27 168.225 171.319ZM171.569 157.889C172.755 158.157 172.901 159.664 171.417 159.085C170.305 158.652 170.046 157.546 171.569 157.889ZM173.058 160.012C172.615 158.66 173.517 156.54 171.334 156.443C170.098 156.387 167.832 157.645 166.753 158.156C165.256 158.864 163.848 159.945 163.066 161.467C162.344 162.875 163.64 163.193 163.106 164.681C162.38 166.705 161.458 169.234 161.444 169.635C161.341 172.741 163.54 174.787 166.629 174.237C169.468 173.73 172.026 171.409 173.588 169.066C174.378 167.88 175.027 166.523 175.086 165.07C175.177 162.843 173.692 161.947 173.058 160.012Z" fill="#323D4B"/>
<path fill-rule="evenodd" clip-rule="evenodd" d="M190.736 153.82C188.251 152.685 185.476 156.566 186.674 158.873C188.245 161.897 195.91 156.184 190.736 153.82ZM187.773 158.159C186.798 156.425 189.311 159.704 187.889 158.313C187.846 158.271 187.807 158.22 187.773 158.159Z" fill="#323D4B"/>
<path fill-rule="evenodd" clip-rule="evenodd" d="M21.6254 151.599C21.514 150.81 21.7126 152.538 21.6423 151.745C21.6382 151.698 21.6326 151.65 21.6254 151.599Z" fill="#323D4B"/>
<path fill-rule="evenodd" clip-rule="evenodd" d="M142.052 77.3652C144.855 77.1591 141.283 63.0163 139.24 64.2669C137.026 65.6224 139.479 77.554 142.052 77.3652Z" fill="#323D4B"/>
<path fill-rule="evenodd" clip-rule="evenodd" d="M147.287 70.7613C149.913 71.1373 149.496 65.1066 148.083 64.0274C145.476 62.035 144.098 70.3047 147.287 70.7613Z" fill="#323D4B"/>
<path d="M117.779 108.621L113.294 108.256L112.917 112.89L110.581 112.7L111.503 101.362L118.885 101.962L118.731 103.854L113.685 103.444L113.447 106.372L117.932 106.737L117.779 108.621Z" fill="#F7F7F9"/>
<path d="M140.578 115.242H137.496L136.91 117H135.041L138.217 108.469H139.846L143.039 117H141.17L140.578 115.242ZM137.971 113.818H140.104L139.031 110.625L137.971 113.818Z" fill="#F7F7F9"/>
<path d="M168.271 105.707C168.482 106.749 168.497 107.689 168.316 108.528C168.134 109.362 167.792 110.071 167.288 110.657L169.436 111.737L168.235 113.327L165.476 111.901C165.214 112.001 164.938 112.081 164.647 112.14C163.723 112.327 162.854 112.272 162.039 111.974C161.224 111.677 160.535 111.157 159.97 110.416C159.405 109.67 159.011 108.761 158.789 107.69L158.677 107.139C158.455 106.041 158.456 105.037 158.681 104.125C158.91 103.207 159.339 102.453 159.969 101.864C160.603 101.268 161.384 100.876 162.314 100.688C163.243 100.5 164.112 100.557 164.923 100.861C165.738 101.158 166.427 101.686 166.989 102.444C167.556 103.195 167.95 104.117 168.171 105.21L168.271 105.707ZM165.841 105.673C165.605 104.504 165.216 103.658 164.674 103.135C164.133 102.613 163.474 102.43 162.698 102.587C161.927 102.743 161.393 103.164 161.097 103.851C160.799 104.533 160.765 105.454 160.994 106.614L161.104 107.158C161.335 108.296 161.723 109.137 162.268 109.68C162.814 110.223 163.48 110.415 164.266 110.256C165.037 110.1 165.568 109.679 165.86 108.993C166.15 108.302 166.181 107.376 165.951 106.217L165.841 105.673Z" fill="#F7F7F9"/>
<rect x="291" y="201" width="92" height="23" rx="4" fill="#0F516A"/>
<rect x="298" y="190" width="86" height="11" rx="3" fill="#7FCAEB"/>
<rect x="291" y="180" width="86" height="10" rx="2" fill="#3B8DB1"/>
<rect x="295" y="161" width="86" height="19" rx="4" fill="#7FCAEB"/>
<rect x="293" y="147" width="86" height="14" rx="3" fill="#3B8DB1"/>
<rect x="296" y="135" width="86" height="12" rx="3" fill="#DBF4FF"/>
<path d="M328.783 213.385H325.35V217H323.867V208.469H329.287V209.664H325.35V212.201H328.783V213.385ZM334.115 215.014H330.811L330.119 217H328.578L331.801 208.469H333.131L336.359 217H334.812L334.115 215.014ZM331.227 213.818H333.699L332.463 210.279L331.227 213.818ZM343.982 212.957C343.982 213.766 343.854 214.467 343.596 215.061C343.342 215.65 342.984 216.119 342.523 216.467L343.988 217.609L343.027 218.477L341.211 217.041C340.973 217.092 340.717 217.117 340.443 217.117C339.756 217.117 339.141 216.949 338.598 216.613C338.059 216.273 337.641 215.791 337.344 215.166C337.051 214.541 336.902 213.82 336.898 213.004V212.523C336.898 211.691 337.045 210.957 337.338 210.32C337.635 209.684 338.051 209.197 338.586 208.861C339.125 208.521 339.74 208.352 340.432 208.352C341.135 208.352 341.754 208.52 342.289 208.855C342.828 209.188 343.244 209.668 343.537 210.297C343.83 210.922 343.979 211.65 343.982 212.482V212.957ZM342.494 212.512C342.494 211.551 342.314 210.822 341.955 210.326C341.596 209.83 341.088 209.582 340.432 209.582C339.795 209.582 339.295 209.834 338.932 210.338C338.572 210.838 338.389 211.545 338.381 212.459V212.957C338.381 213.879 338.561 214.6 338.92 215.119C339.283 215.639 339.791 215.898 340.443 215.898C341.104 215.898 341.609 215.648 341.961 215.148C342.316 214.648 342.494 213.918 342.494 212.957V212.512ZM348.904 215.277C348.904 215.023 348.799 214.83 348.588 214.697C348.381 214.564 348.035 214.447 347.551 214.346C347.066 214.244 346.662 214.115 346.338 213.959C345.627 213.615 345.271 213.117 345.271 212.465C345.271 211.918 345.502 211.461 345.963 211.094C346.424 210.727 347.01 210.543 347.721 210.543C348.479 210.543 349.09 210.73 349.555 211.105C350.023 211.48 350.258 211.967 350.258 212.564H348.834C348.834 212.291 348.732 212.064 348.529 211.885C348.326 211.701 348.057 211.609 347.721 211.609C347.408 211.609 347.152 211.682 346.953 211.826C346.758 211.971 346.66 212.164 346.66 212.406C346.66 212.625 346.752 212.795 346.936 212.916C347.119 213.037 347.49 213.16 348.049 213.285C348.607 213.406 349.045 213.553 349.361 213.725C349.682 213.893 349.918 214.096 350.07 214.334C350.227 214.572 350.305 214.861 350.305 215.201C350.305 215.771 350.068 216.234 349.596 216.59C349.123 216.941 348.504 217.117 347.738 217.117C347.219 217.117 346.756 217.023 346.35 216.836C345.943 216.648 345.627 216.391 345.4 216.062C345.174 215.734 345.061 215.381 345.061 215.002H346.443C346.463 215.338 346.59 215.598 346.824 215.781C347.059 215.961 347.369 216.051 347.756 216.051C348.131 216.051 348.416 215.98 348.611 215.84C348.807 215.695 348.904 215.508 348.904 215.277Z" fill="#F7F7F9"/>
<path d="M317.351 155.172H315.974L315.686 156H315.044L316.387 152.445H316.941L318.286 156H317.642L317.351 155.172ZM316.147 154.674H317.178L316.663 153.2L316.147 154.674ZM320.952 154.706C320.952 155.116 320.86 155.443 320.676 155.685C320.494 155.928 320.243 156.049 319.922 156.049C319.613 156.049 319.372 155.937 319.199 155.714L319.17 156H318.633V152.25H319.226V153.612C319.397 153.41 319.627 153.31 319.917 153.31C320.239 153.31 320.492 153.429 320.676 153.668C320.86 153.908 320.952 154.242 320.952 154.672V154.706ZM320.359 154.655C320.359 154.368 320.308 154.153 320.208 154.01C320.107 153.867 319.96 153.795 319.768 153.795C319.511 153.795 319.33 153.908 319.226 154.132V155.221C319.332 155.451 319.514 155.565 319.773 155.565C319.958 155.565 320.102 155.496 320.203 155.358C320.304 155.22 320.356 155.01 320.359 154.73V154.655ZM321.34 154.655C321.34 154.396 321.392 154.163 321.494 153.957C321.597 153.748 321.741 153.589 321.926 153.478C322.112 153.366 322.325 153.31 322.566 153.31C322.922 153.31 323.211 153.424 323.433 153.654C323.656 153.883 323.776 154.188 323.794 154.567L323.796 154.706C323.796 154.966 323.746 155.199 323.645 155.404C323.546 155.609 323.403 155.768 323.215 155.88C323.03 155.993 322.815 156.049 322.571 156.049C322.198 156.049 321.899 155.925 321.675 155.678C321.452 155.429 321.34 155.097 321.34 154.684V154.655ZM321.934 154.706C321.934 154.978 321.99 155.191 322.102 155.346C322.214 155.499 322.371 155.575 322.571 155.575C322.771 155.575 322.926 155.497 323.037 155.341C323.149 155.185 323.206 154.956 323.206 154.655C323.206 154.388 323.148 154.176 323.032 154.02C322.918 153.864 322.763 153.786 322.566 153.786C322.372 153.786 322.218 153.863 322.104 154.018C321.991 154.171 321.934 154.4 321.934 154.706ZM325.898 155.741C325.724 155.946 325.477 156.049 325.156 156.049C324.87 156.049 324.653 155.965 324.504 155.797C324.358 155.63 324.285 155.387 324.285 155.07V153.358H324.878V155.062C324.878 155.398 325.017 155.565 325.295 155.565C325.583 155.565 325.778 155.462 325.879 155.255V153.358H326.472V156H325.913L325.898 155.741ZM327.82 152.716V153.358H328.286V153.798H327.82V155.272C327.82 155.373 327.839 155.447 327.878 155.492C327.919 155.536 327.991 155.558 328.093 155.558C328.162 155.558 328.231 155.55 328.301 155.534V155.993C328.166 156.03 328.035 156.049 327.91 156.049C327.454 156.049 327.227 155.797 327.227 155.294V153.798H326.792V153.358H327.227V152.716H327.82ZM332.339 156H329.949V155.592L331.133 154.301C331.304 154.11 331.425 153.952 331.497 153.825C331.57 153.696 331.606 153.568 331.606 153.439C331.606 153.27 331.558 153.133 331.462 153.029C331.368 152.925 331.24 152.873 331.079 152.873C330.887 152.873 330.738 152.931 330.632 153.048C330.527 153.166 330.474 153.326 330.474 153.529H329.88C329.88 153.313 329.929 153.118 330.027 152.946C330.126 152.772 330.267 152.637 330.449 152.541C330.633 152.444 330.845 152.396 331.084 152.396C331.429 152.396 331.701 152.484 331.899 152.658C332.1 152.83 332.2 153.069 332.2 153.375C332.2 153.553 332.149 153.739 332.048 153.935C331.949 154.128 331.785 154.349 331.558 154.596L330.688 155.526H332.339V156ZM334.797 154.733H335.239V155.209H334.797V156H334.204V155.209H332.668L332.651 154.848L334.185 152.445H334.797V154.733ZM333.274 154.733H334.204V153.249L334.16 153.327L333.274 154.733ZM335.837 156.305H335.371L336.77 152.445H337.236L335.837 156.305ZM339.976 152.775L338.555 156H337.932L339.351 152.921H337.512V152.445H339.976V152.775ZM341.943 156V153.798H341.541V153.358H341.943V153.117C341.943 152.824 342.025 152.597 342.188 152.438C342.35 152.278 342.578 152.199 342.871 152.199C342.975 152.199 343.086 152.213 343.203 152.243L343.188 152.707C343.123 152.694 343.048 152.687 342.961 152.687C342.678 152.687 342.537 152.833 342.537 153.124V153.358H343.074V153.798H342.537V156H341.943ZM343.396 154.655C343.396 154.396 343.447 154.163 343.55 153.957C343.652 153.748 343.796 153.589 343.982 153.478C344.167 153.366 344.381 153.31 344.622 153.31C344.978 153.31 345.267 153.424 345.488 153.654C345.711 153.883 345.832 154.188 345.85 154.567L345.852 154.706C345.852 154.966 345.802 155.199 345.701 155.404C345.601 155.609 345.458 155.768 345.271 155.88C345.085 155.993 344.871 156.049 344.626 156.049C344.254 156.049 343.955 155.925 343.73 155.678C343.507 155.429 343.396 155.097 343.396 154.684V154.655ZM343.989 154.706C343.989 154.978 344.045 155.191 344.158 155.346C344.27 155.499 344.426 155.575 344.626 155.575C344.827 155.575 344.982 155.497 345.093 155.341C345.205 155.185 345.261 154.956 345.261 154.655C345.261 154.388 345.203 154.176 345.088 154.02C344.974 153.864 344.819 153.786 344.622 153.786C344.428 153.786 344.274 153.863 344.16 154.018C344.046 154.171 343.989 154.4 343.989 154.706ZM347.737 153.9C347.659 153.887 347.578 153.881 347.495 153.881C347.223 153.881 347.04 153.985 346.946 154.193V156H346.353V153.358H346.919L346.934 153.654C347.077 153.424 347.275 153.31 347.529 153.31C347.614 153.31 347.684 153.321 347.739 153.344L347.737 153.9ZM350.281 155.15L350.818 153.358H351.45L350.4 156.4C350.239 156.845 349.966 157.067 349.58 157.067C349.494 157.067 349.399 157.052 349.294 157.023V156.564L349.407 156.571C349.556 156.571 349.669 156.544 349.744 156.488C349.82 156.435 349.88 156.343 349.924 156.215L350.01 155.988L349.082 153.358H349.722L350.281 155.15ZM351.643 154.655C351.643 154.396 351.694 154.163 351.797 153.957C351.899 153.748 352.043 153.589 352.229 153.478C352.415 153.366 352.628 153.31 352.869 153.31C353.225 153.31 353.514 153.424 353.735 153.654C353.958 153.883 354.079 154.188 354.097 154.567L354.099 154.706C354.099 154.966 354.049 155.199 353.948 155.404C353.848 155.609 353.705 155.768 353.518 155.88C353.333 155.993 353.118 156.049 352.874 156.049C352.501 156.049 352.202 155.925 351.978 155.678C351.755 155.429 351.643 155.097 351.643 154.684V154.655ZM352.236 154.706C352.236 154.978 352.292 155.191 352.405 155.346C352.517 155.499 352.673 155.575 352.874 155.575C353.074 155.575 353.229 155.497 353.34 155.341C353.452 155.185 353.508 154.956 353.508 154.655C353.508 154.388 353.451 154.176 353.335 154.02C353.221 153.864 353.066 153.786 352.869 153.786C352.675 153.786 352.521 153.863 352.407 154.018C352.293 154.171 352.236 154.4 352.236 154.706ZM356.201 155.741C356.027 155.946 355.78 156.049 355.459 156.049C355.173 156.049 354.955 155.965 354.807 155.797C354.661 155.63 354.587 155.387 354.587 155.07V153.358H355.181V155.062C355.181 155.398 355.32 155.565 355.598 155.565C355.886 155.565 356.081 155.462 356.182 155.255V153.358H356.775V156H356.216L356.201 155.741Z" fill="#F7F7F9"/>
<path d="M323.547 187H323.055V185.736H321.783V187H321.289V184.156H321.783V185.34H323.055V184.156H323.547V187ZM323.998 185.924C323.998 185.717 324.039 185.531 324.121 185.365C324.203 185.199 324.318 185.071 324.467 184.982C324.615 184.893 324.786 184.848 324.979 184.848C325.264 184.848 325.495 184.939 325.672 185.123C325.85 185.307 325.947 185.55 325.961 185.854L325.963 185.965C325.963 186.173 325.923 186.359 325.842 186.523C325.762 186.688 325.648 186.814 325.498 186.904C325.35 186.994 325.178 187.039 324.982 187.039C324.684 187.039 324.445 186.94 324.266 186.742C324.087 186.543 323.998 186.278 323.998 185.947V185.924ZM324.473 185.965C324.473 186.182 324.518 186.353 324.607 186.477C324.697 186.599 324.822 186.66 324.982 186.66C325.143 186.66 325.267 186.598 325.355 186.473C325.445 186.348 325.49 186.165 325.49 185.924C325.49 185.71 325.444 185.541 325.352 185.416C325.26 185.291 325.136 185.229 324.979 185.229C324.824 185.229 324.701 185.29 324.609 185.414C324.518 185.536 324.473 185.72 324.473 185.965ZM328.221 186.346L328.557 184.887H329.02L328.443 187H328.053L327.6 185.549L327.154 187H326.764L326.186 184.887H326.648L326.99 186.33L327.424 184.887H327.781L328.221 186.346ZM330.838 187H330.363V184.887H330.838V187ZM330.334 184.338C330.334 184.265 330.357 184.204 330.402 184.156C330.449 184.108 330.516 184.084 330.602 184.084C330.688 184.084 330.754 184.108 330.801 184.156C330.848 184.204 330.871 184.265 330.871 184.338C330.871 184.41 330.848 184.469 330.801 184.518C330.754 184.564 330.688 184.588 330.602 184.588C330.516 184.588 330.449 184.564 330.402 184.518C330.357 184.469 330.334 184.41 330.334 184.338ZM331.951 184.373V184.887H332.324V185.238H331.951V186.418C331.951 186.499 331.967 186.557 331.998 186.594C332.031 186.629 332.088 186.646 332.17 186.646C332.225 186.646 332.28 186.64 332.336 186.627V186.994C332.228 187.024 332.124 187.039 332.023 187.039C331.659 187.039 331.477 186.838 331.477 186.436V185.238H331.129V184.887H331.477V184.373H331.951ZM335.541 186.346L335.877 184.887H336.34L335.764 187H335.373L334.92 185.549L334.475 187H334.084L333.506 184.887H333.969L334.311 186.33L334.744 184.887H335.102L335.541 186.346ZM336.568 185.924C336.568 185.717 336.609 185.531 336.691 185.365C336.773 185.199 336.889 185.071 337.037 184.982C337.186 184.893 337.356 184.848 337.549 184.848C337.834 184.848 338.065 184.939 338.242 185.123C338.421 185.307 338.517 185.55 338.531 185.854L338.533 185.965C338.533 186.173 338.493 186.359 338.412 186.523C338.333 186.688 338.218 186.814 338.068 186.904C337.92 186.994 337.748 187.039 337.553 187.039C337.255 187.039 337.016 186.94 336.836 186.742C336.658 186.543 336.568 186.278 336.568 185.947V185.924ZM337.043 185.965C337.043 186.182 337.088 186.353 337.178 186.477C337.268 186.599 337.393 186.66 337.553 186.66C337.713 186.66 337.837 186.598 337.926 186.473C338.016 186.348 338.061 186.165 338.061 185.924C338.061 185.71 338.014 185.541 337.922 185.416C337.831 185.291 337.706 185.229 337.549 185.229C337.394 185.229 337.271 185.29 337.18 185.414C337.089 185.536 337.043 185.72 337.043 185.965ZM340.041 185.32C339.979 185.31 339.914 185.305 339.848 185.305C339.63 185.305 339.484 185.388 339.408 185.555V187H338.934V184.887H339.387L339.398 185.123C339.513 184.939 339.672 184.848 339.875 184.848C339.943 184.848 339.999 184.857 340.043 184.875L340.041 185.32ZM341.027 186.094L340.816 186.311V187H340.342V184H340.816V185.73L340.965 185.545L341.549 184.887H342.119L341.334 185.768L342.203 187H341.654L341.027 186.094ZM343.615 186.426C343.615 186.341 343.58 186.277 343.51 186.232C343.441 186.188 343.326 186.149 343.164 186.115C343.003 186.081 342.868 186.038 342.76 185.986C342.523 185.872 342.404 185.706 342.404 185.488C342.404 185.306 342.481 185.154 342.635 185.031C342.788 184.909 342.984 184.848 343.221 184.848C343.473 184.848 343.677 184.91 343.832 185.035C343.988 185.16 344.066 185.322 344.066 185.521H343.592C343.592 185.43 343.558 185.355 343.49 185.295C343.423 185.234 343.333 185.203 343.221 185.203C343.117 185.203 343.031 185.227 342.965 185.275C342.9 185.324 342.867 185.388 342.867 185.469C342.867 185.542 342.898 185.598 342.959 185.639C343.02 185.679 343.144 185.72 343.33 185.762C343.516 185.802 343.662 185.851 343.768 185.908C343.874 185.964 343.953 186.032 344.004 186.111C344.056 186.191 344.082 186.287 344.082 186.4C344.082 186.59 344.003 186.745 343.846 186.863C343.688 186.98 343.482 187.039 343.227 187.039C343.053 187.039 342.899 187.008 342.764 186.945C342.628 186.883 342.523 186.797 342.447 186.688C342.372 186.578 342.334 186.46 342.334 186.334H342.795C342.801 186.446 342.844 186.533 342.922 186.594C343 186.654 343.104 186.684 343.232 186.684C343.357 186.684 343.452 186.66 343.518 186.613C343.583 186.565 343.615 186.503 343.615 186.426ZM344.938 186.164C344.938 185.991 344.959 185.853 345.002 185.75C345.045 185.647 345.13 185.535 345.256 185.412C345.383 185.288 345.464 185.201 345.498 185.148C345.55 185.069 345.576 184.983 345.576 184.891C345.576 184.768 345.546 184.675 345.484 184.611C345.424 184.546 345.336 184.514 345.219 184.514C345.107 184.514 345.016 184.546 344.947 184.609C344.88 184.672 344.846 184.757 344.846 184.865H344.371C344.374 184.635 344.452 184.452 344.605 184.318C344.76 184.184 344.965 184.117 345.219 184.117C345.48 184.117 345.684 184.184 345.83 184.316C345.977 184.449 346.051 184.635 346.051 184.873C346.051 185.085 345.952 185.294 345.754 185.5L345.514 185.736C345.428 185.834 345.383 185.977 345.381 186.164H344.938ZM344.904 186.771C344.904 186.695 344.928 186.633 344.977 186.586C345.025 186.538 345.09 186.514 345.172 186.514C345.255 186.514 345.321 186.538 345.369 186.588C345.417 186.636 345.441 186.697 345.441 186.771C345.441 186.843 345.418 186.903 345.371 186.951C345.324 186.999 345.258 187.023 345.172 187.023C345.086 187.023 345.02 186.999 344.973 186.951C344.927 186.903 344.904 186.843 344.904 186.771Z" fill="#F7F7F9"/>
</svg>
