<svg width="32" height="32" viewBox="0 0 32 32" fill="none" xmlns="http://www.w3.org/2000/svg">
<g clip-path="url(#clip0)">
<path d="M9.62192 31.1777H3.73865V29.1024C3.73865 28.4986 4.22811 28.0092 4.83193 28.0092H8.52864C9.13246 28.0092 9.62192 28.4986 9.62192 29.1024V31.1777Z" fill="#DBF4FF"/>
<path d="M15.5054 31.1777H9.62192V26.3884C9.62192 25.7846 10.1114 25.2951 10.7152 25.2951H14.4121C15.016 25.2951 15.5054 25.7846 15.5054 26.3884V31.1777Z" fill="#DBF4FF"/>
<path d="M21.3889 31.1777H15.5054V23.4729C15.5054 22.8691 15.9949 22.3796 16.5987 22.3796H20.2957C20.8992 22.3796 21.3889 22.8691 21.3889 23.4729V31.1777Z" fill="#DBF4FF"/>
<path d="M27.2722 31.1777H21.3889V19.0504C21.3889 18.4466 21.8784 17.9572 22.4822 17.9572H26.1789C26.7828 17.9572 27.2722 18.4466 27.2722 19.0504V31.1777Z" fill="#DBF4FF"/>
<path d="M22.9858 5.56985H28.9035C29.0867 5.56985 29.1725 5.3428 29.0348 5.22161L27.4976 3.86827C27.4078 3.78905 27.4078 3.649 27.4976 3.56978L29.0348 2.2162C29.1725 2.09501 29.0867 1.86819 28.9035 1.86819H22.9858V5.56985Z" fill="#FDB659"/>
<path d="M23.4571 7.30208L17.0467 10.7833C16.4747 11.0938 16.3184 11.6399 16.1187 12.3432L14.8438 16.8509L17.9679 15.5709L19.1804 11.9056L22.4065 9.94558C23.3079 9.39788 23.7368 8.31897 23.4571 7.30208Z" fill="#DBF4FF"/>
<path d="M23.4571 7.30208L22.7175 7.7036C22.5928 8.34019 22.2083 8.91501 21.6266 9.26844L18.6872 11.0542C18.5021 11.1667 18.3632 11.3414 18.2951 11.547L17.8754 12.8159C17.439 14.1348 16.4481 15.197 15.1626 15.7237L14.8438 16.8512L17.9679 15.5709L19.1804 11.9058L22.4065 9.94582C23.3079 9.39788 23.7368 8.31897 23.4571 7.30208Z" fill="#DBF4FF"/>
<path d="M17.9679 15.5709L19.8142 17.7525C20.12 18.1576 20.3862 18.4424 20.331 18.888L19.8991 22.3777H18.7726L18.4781 19.3775C18.4601 19.1962 18.3451 19.0387 18.1777 18.9665L14.8438 16.8511L17.9679 15.5709Z" fill="#F2FFE0"/>
<path d="M14.8438 16.8511L14.6637 20.1588C14.6522 20.433 14.6906 20.6186 14.5833 20.8225L12.4573 25.2952H13.6525L16.8489 21.0493C17.0358 20.8317 17.0573 20.5365 17.1202 20.2647L17.9679 15.5709L14.8438 16.8511Z" fill="#F9FFF0"/>
<path d="M17.7387 8.01596L18.263 9.03922C18.5094 9.5202 18.3192 10.1099 17.8382 10.3563L17.4329 10.5637C16.9519 10.8101 16.3625 10.6199 16.1161 10.1389L15.5917 9.11561C15.3453 8.63463 15.5356 8.04496 16.0166 7.79857L16.4219 7.59109C16.9029 7.34471 17.4923 7.53498 17.7387 8.01596Z" fill="#FECBAA"/>
<path d="M29.3343 4.88161L28.0137 3.71878L29.3343 2.55618C29.5396 2.3751 29.6099 2.09288 29.5135 1.83683C29.4165 1.58055 29.1772 1.41503 28.9035 1.41503H23.4387V1.1802C23.4387 0.930045 23.236 0.72728 22.9858 0.72728C22.7357 0.72728 22.5329 0.930045 22.5329 1.1802V7.28863L18.8131 9.3085C18.7926 9.14488 18.7435 8.98408 18.666 8.83271L18.1418 7.80945C17.7821 7.10685 16.9177 6.8284 16.2156 7.18795L15.8103 7.39543C15.4698 7.56991 15.2178 7.86604 15.1004 8.23007C14.9829 8.59387 15.0143 8.98172 15.1888 9.32194L15.7129 10.3454C15.8353 10.5843 16.0161 10.7734 16.2288 10.9059C15.9506 11.2805 15.8185 11.7412 15.6827 12.2198L15.5851 12.5655C15.517 12.8062 15.657 13.0566 15.8977 13.1245C15.9388 13.1363 15.9803 13.1417 16.0211 13.1417C16.2186 13.1417 16.4002 13.0116 16.4568 12.8119L16.5544 12.4669C16.7529 11.7669 16.8748 11.392 17.2629 11.1813L17.9586 10.8033L18.0445 10.7595C18.073 10.7448 18.0996 10.7283 18.1268 10.7121L23.0855 8.01929C23.0542 8.63914 22.7206 9.2248 22.1712 9.55842L18.9465 11.5177C18.9428 11.5198 18.939 11.5219 18.9355 11.5243L17.9318 12.134C17.7182 12.2639 17.65 12.5426 17.7799 12.7565C17.9023 12.958 18.1569 13.0297 18.3646 12.9286L17.6031 15.2307L17.0464 15.4589L15.5328 16.0792L15.969 14.5373C16.0369 14.2965 15.897 14.0461 15.6563 13.978C15.4154 13.9096 15.1652 14.0499 15.0971 14.2906L14.4079 16.7278C14.3989 16.7592 14.393 16.7936 14.3916 16.8264L14.2113 20.1395C14.2058 20.2659 14.2327 20.5047 14.1742 20.628L12.1711 24.8422H10.7154C9.86265 24.8422 9.169 25.5359 9.169 26.3884V27.6958C8.97378 27.6064 8.7571 27.5565 8.52864 27.5565H4.83194C3.97938 27.5565 3.28573 28.2499 3.28573 29.1027V30.7248H2.19834C1.94819 30.7248 1.74542 30.9275 1.74542 31.1777C1.74542 31.4279 1.94819 31.6306 2.19834 31.6306H28.903C29.1532 31.6306 29.356 31.4279 29.356 31.1777C29.356 30.9275 29.1532 30.7248 28.903 30.7248H27.7251V19.0504C27.7251 18.1979 27.0315 17.5042 26.1789 17.5042H23.4387V9.60275C23.9409 8.92207 24.127 8.0299 23.8938 7.18206C23.8572 7.04885 23.7617 6.93945 23.6344 6.88546C23.572 6.85881 23.505 6.84702 23.4387 6.84962V6.02276H28.9033C29.1772 6.02276 29.4165 5.85725 29.5132 5.6012C29.6099 5.34515 29.5396 5.06269 29.3343 4.88161ZM15.9626 8.50829C16.0057 8.3746 16.0982 8.26568 16.2231 8.20178L16.6284 7.9943C16.7048 7.95516 16.7864 7.93654 16.867 7.93654C17.058 7.93654 17.2426 8.04098 17.3355 8.22229L17.8599 9.24579C17.9822 9.48486 17.903 9.77463 17.6854 9.92104L17.5378 10.001L17.2263 10.1606C16.9686 10.2926 16.6513 10.1903 16.5192 9.93236L15.9949 8.9091C15.931 8.78414 15.9194 8.64174 15.9626 8.50829ZM15.0525 24.9816C14.8985 24.9113 14.7311 24.8653 14.5553 24.8491L15.0525 24.1887V24.9816ZM17.203 21.332C17.4208 21.071 17.481 20.7662 17.5295 20.5205C17.5418 20.462 17.7653 19.2412 17.7653 19.2412C17.7653 19.2412 17.9768 19.373 17.999 19.3824C18.0143 19.3892 18.0251 19.4043 18.0268 19.422L18.2732 21.9266H16.7553L17.203 21.332ZM19.8814 18.8321L19.499 21.9245H19.1833L18.9284 19.3334C18.8958 19.0014 18.6926 18.7116 18.3948 18.5676L17.9393 18.2788L18.2428 16.597C18.2428 16.597 19.5211 18.1156 19.5508 18.1543C19.8154 18.4983 19.9059 18.636 19.8814 18.8321ZM14.9891 21.0241C15.0806 20.7487 15.123 20.4684 15.1159 20.1833L15.2805 17.1617L17.3753 16.3032L16.9946 18.4124C16.9934 18.4181 16.9922 18.424 16.9915 18.4296L16.6765 20.1737C16.6355 20.3543 16.5996 20.6282 16.4869 20.777L13.4264 24.8422H13.1741L14.9891 21.0241ZM4.19158 29.1024C4.19158 28.7495 4.47875 28.4623 4.83194 28.4623H8.52864C8.88182 28.4623 9.16923 28.7495 9.16923 29.1024V30.7248H4.19158V29.1024ZM10.0748 29.1024V26.3884C10.0748 26.0352 10.3622 25.7481 10.7154 25.7481H14.4121C14.7653 25.7481 15.0525 26.0352 15.0525 26.3884V30.7248H10.0751L10.0748 29.1024ZM26.8193 19.0504V30.7248H21.8418V28.0091C21.8418 27.759 21.6391 27.5562 21.3889 27.5562C21.1385 27.5562 20.9358 27.759 20.9358 28.0091V30.7248H15.9583V23.4726C15.9583 23.1197 16.2455 22.8325 16.5987 22.8325H20.2954C20.6486 22.8325 20.9358 23.1197 20.9358 23.4726V25.7431C20.9358 25.9933 21.1385 26.196 21.3887 26.196C21.6391 26.196 21.8416 25.9933 21.8416 25.7431V19.0504C21.8416 18.6973 22.129 18.4101 22.4822 18.4101H22.9811C22.9825 18.4101 22.9842 18.4103 22.9858 18.4103C22.9872 18.4103 22.9889 18.4101 22.9903 18.4101H26.1787C26.5319 18.4101 26.8193 18.6975 26.8193 19.0504ZM22.4822 17.5042C21.6296 17.5042 20.936 18.1979 20.936 19.0504V22.066C20.7738 21.992 20.597 21.945 20.4109 21.9314L20.7804 18.9436C20.853 18.3613 20.5559 17.9753 20.2688 17.6018C20.2383 17.5622 18.4778 15.4719 18.4778 15.4719L19.5579 12.2064L22.5329 10.399V17.5042H22.4822ZM23.4387 5.11668V2.32111H28.2304L27.1984 3.22978C27.0579 3.35356 26.9772 3.53181 26.9772 3.71901C26.9772 3.90622 27.0579 4.08446 27.1984 4.20824L28.2304 5.11692L23.4387 5.11668Z" fill="#4A4A4A"/>
</g>
<defs>
<clipPath id="clip0">
<rect width="30.9034" height="30.9034" fill="white" transform="translate(0.176086 0.72728)"/>
</clipPath>
</defs>
</svg>
