<svg width="1440" height="985" viewBox="0 0 1440 985" fill="none" xmlns="http://www.w3.org/2000/svg">
<path opacity="0.49" d="M39 283L135.995 634.75H-57.9948L39 283Z" fill="#DBF4FF"/>
<path opacity="0.49" d="M970.5 142L995.182 247.75H945.818L970.5 142Z" fill="#DBF4FF"/>
<path opacity="0.49" d="M719.5 14L744.182 119.75H694.818L719.5 14Z" fill="#DBF4FF"/>
<path opacity="0.49" d="M1439.5 457L1549.05 667H1329.95L1439.5 457Z" fill="#DBF4FF"/>
<path opacity="0.49" d="M293 0L337.167 483H248.833L293 0Z" fill="#DBF4FF"/>
<path opacity="0.49" d="M483.5 458L593.052 955.25H373.948L483.5 458Z" fill="#DBF4FF"/>
<path opacity="0.49" d="M987.5 517L1097.05 727H877.948L987.5 517Z" fill="#DBF4FF"/>
<path opacity="0.49" d="M97 103L146.363 197.5H47.6366L97 103Z" fill="#DBF4FF"/>
<path opacity="0.49" d="M1351 143L1428.08 307.25H1273.92L1351 143Z" fill="#DBF4FF"/>
<path opacity="0.49" d="M150.5 685L178.646 763H122.354L150.5 685Z" fill="#DBF4FF"/>
</svg>
