<svg width="37" height="37" viewBox="0 0 37 37" fill="none" xmlns="http://www.w3.org/2000/svg">
<g clip-path="url(#clip0)">
<path d="M31.6299 0.808008L25.6984 1.61796C24.9965 1.71378 24.5049 2.36389 24.6002 3.06963C24.6955 3.77552 25.3417 4.27011 26.0436 4.17428L28.6884 3.8131L22.1279 11.6783L21.0855 8.50589C20.784 7.5884 19.6192 7.31784 18.9488 8.01087L13.4634 13.601C12.9693 14.1115 12.9802 14.9281 13.4876 15.425C13.9954 15.9219 14.8072 15.9108 15.3013 15.4006L19.3128 11.3329L20.414 14.6846C20.7295 15.6446 21.9714 15.8797 22.6144 15.1088L30.7326 5.37635L30.8787 7.6082C30.9338 8.44966 31.7648 9.01305 32.5619 8.74827C33.1035 8.56832 33.4774 8.03775 33.4382 7.43881L33.0822 2.00155C33.0331 1.24738 32.3497 0.709437 31.6299 0.808008Z" fill="#DBF4FF"/>
<path d="M15.3138 14.8176C15.4116 14.9142 15.5221 14.9915 15.6401 15.0502L15.3014 15.4005C14.8073 15.9112 13.9949 15.9217 13.4872 15.4248C12.9808 14.9275 12.969 14.1109 13.4631 13.6002L18.9483 8.00992C19.3619 7.58312 19.9644 7.52141 20.435 7.75352L15.2896 12.9931C14.7955 13.5037 14.8073 14.3203 15.3138 14.8176Z" fill="#DBF4FF"/>
<path d="M33.0829 2.00132L33.4376 7.43816C33.4779 8.03738 33.1038 8.56796 32.5618 8.74804C32.1916 8.87104 31.8143 8.81583 31.5109 8.6369C31.5892 8.45595 31.6243 8.25418 31.6109 8.04533L31.2562 2.6085C31.2071 1.85462 30.5235 1.31567 29.8038 1.41496L24.8719 2.08819C25.0697 1.83901 25.3592 1.66399 25.6981 1.61803L31.6305 0.807784C32.3502 0.708347 33.0338 1.2473 33.0829 2.00132Z" fill="#DBF4FF"/>
<path d="M35.0314 24.6615H33.4217C33.2823 24.1847 33.0933 23.7219 32.8516 23.2779L33.9903 22.1326C34.2677 21.8537 34.2677 21.4003 33.9903 21.1213L32.128 19.2501C31.8492 18.9695 31.3998 18.9695 31.121 19.2501L29.9838 20.3937C29.5424 20.1506 29.0806 19.9606 28.6065 19.8204V18.2015C28.6065 17.8074 28.2873 17.4864 27.8954 17.4864H25.2632C24.8698 17.4864 24.5506 17.8074 24.5506 18.2015V19.8204C24.0765 19.9606 23.6163 20.1522 23.1749 20.3937L22.0361 19.2501C21.7587 18.9695 21.3079 18.9695 21.0306 19.2501L19.1699 21.1213C18.8911 21.4003 18.8911 21.8537 19.1699 22.1326L20.3071 23.2779C20.0469 23.7609 19.8454 24.2657 19.703 24.7862H18.1273C17.7354 24.7862 17.4162 25.1056 17.4162 25.4997V28.1486C17.4162 28.5427 17.7354 28.8637 18.1273 28.8637H19.7757C19.9089 29.2969 20.0871 29.7206 20.3071 30.1242L19.1699 31.2694C18.8911 31.55 18.8911 32.0018 19.1699 32.2822L21.0306 34.155C21.3079 34.4339 21.7587 34.4339 22.0361 34.155L23.1749 33.0097C23.6163 33.2512 24.0765 33.4413 24.5506 33.5831V35.202C24.5506 35.5977 24.8698 35.9187 25.2632 35.9187H27.8954C28.2873 35.9187 28.6065 35.5977 28.6065 35.202V33.5832C29.0806 33.4414 29.5422 33.2514 29.9838 33.0099L31.121 34.1551C31.3998 34.4341 31.8492 34.4341 32.128 34.1551L33.9902 32.2823C34.2675 32.0018 34.2675 31.55 33.9902 31.2696L32.8514 30.1259C33.0931 29.6818 33.2821 29.2175 33.4215 28.7407H35.0312C35.4247 28.7407 35.7439 28.4197 35.7439 28.0256V25.3782C35.744 24.9825 35.4248 24.6615 35.0314 24.6615ZM26.5801 30.8238C24.3166 30.8238 22.4823 28.979 22.4823 26.7025C22.4823 24.4262 24.3166 22.5814 26.5801 22.5814C28.8435 22.5814 30.6778 24.4262 30.6778 26.7025C30.678 28.979 28.8436 30.8238 26.5801 30.8238Z" fill="#DBF4FF"/>
<path d="M15.2349 35.2766C15.2349 35.7885 14.8217 36.204 14.3127 36.204H2.18429C1.71781 36.204 1.2621 35.8619 1.2621 35.1867C1.2621 28.9674 8.77958 25.7833 13.1885 30.2176C14.4538 31.4899 15.2349 33.2167 15.2349 35.2766Z" fill="#FEE2F7"/>
<path d="M9.28257 28.2362C6.1083 28.6926 3.32952 31.4514 3.32952 35.2769C3.32952 35.7885 3.74312 36.2045 4.25185 36.2045H2.18386C1.72112 36.2045 1.26153 35.865 1.26153 35.1867C1.26153 30.9 5.04456 27.6075 9.28257 28.2362Z" fill="#FFEFEE"/>
<path d="M3.31357 21.8047V23.1929C3.31357 25.9226 5.53432 28.1559 8.24843 28.1559C10.9591 28.1559 13.1834 25.9261 13.1834 23.1929V21.8047C13.1834 19.0758 10.9929 16.8588 8.27961 16.8416C5.54194 16.8244 3.31357 19.0515 3.31357 21.8047Z" fill="#FFBB98"/>
<path d="M15.2355 35.2768C15.2355 35.7885 14.8219 36.2044 14.3131 36.2044H12.2452C12.7079 36.2044 13.1675 35.8649 13.1675 35.1867C13.1675 31.6506 10.5652 28.7274 7.21445 28.236C11.3772 27.6212 15.2355 30.7854 15.2355 35.2768Z" fill="#FFCFCF"/>
<path d="M9.8679 28.3486L9.15596 29.9902H7.40486L6.64204 28.3459C7.70234 28.096 8.81135 28.0976 9.8679 28.3486Z" fill="#87828E"/>
<path d="M7.40471 29.9902L6.15889 36.2045H10.3618L9.15596 29.9902H7.40471Z" fill="#796E84"/>
<path d="M9.28255 28.0448C6.24064 28.7148 3.31298 26.3477 3.31298 23.1933V21.8041C3.31298 19.0616 5.52569 16.8418 8.24985 16.8418H8.28018C8.62479 16.8445 8.95978 16.8819 9.28385 16.9513C7.05462 17.4283 5.38097 19.4193 5.38097 21.8041V23.1933C5.38097 25.5671 7.06008 27.5637 9.28255 28.0448Z" fill="#FFCAA6"/>
<path d="M13.184 21.8041V23.1933C13.184 24.559 12.6284 25.7985 11.7337 26.6985C10.5107 27.9303 8.78821 28.3915 7.21445 28.0448C8.15876 27.841 9.00536 27.3641 9.66571 26.6985C10.5604 25.7986 11.116 24.559 11.116 23.1933V21.8041C11.116 19.4221 9.44511 17.4283 7.21588 16.9513C7.54958 16.8792 7.89549 16.8418 8.24988 16.8418H8.2802C10.9934 16.8584 13.184 19.0753 13.184 21.8041Z" fill="#FFAA80"/>
<path d="M12.2887 14.9608H7.92867C6.52893 14.9608 5.36747 15.9835 5.1407 17.3264C5.09902 16.6079 4.50809 16.0377 3.78321 16.0377C3.03118 16.0377 2.4217 16.6508 2.4217 17.407V20.337C2.4217 20.5769 2.61499 20.7713 2.85355 20.7713H13.6436C13.8821 20.7713 14.0754 20.5769 14.0754 20.337V16.7578C14.0754 15.7653 13.2754 14.9608 12.2887 14.9608Z" fill="#FFF5FD"/>
<path d="M35.0318 24.0838H33.8389C33.7545 23.8469 33.6589 23.6152 33.553 23.39L34.3958 22.5424C34.8987 22.0387 34.9003 21.2185 34.3965 20.7117L32.5338 18.8406C32.0333 18.3374 31.2175 18.3369 30.7149 18.8406L29.872 19.6883C29.6474 19.5815 29.4168 19.4855 29.1814 19.401V18.202C29.1814 17.4885 28.6041 16.9081 27.8947 16.9081H25.2628C24.5533 16.9081 23.9762 17.4885 23.9762 18.202V19.4013C23.7425 19.4855 23.5122 19.5815 23.2868 19.6887L22.4437 18.8416C21.9397 18.3328 21.1227 18.338 20.625 18.8406L18.763 20.712C18.2596 21.2185 18.2616 22.039 18.7628 22.5412L19.6063 23.3903C19.4821 23.6551 19.3726 23.928 19.2786 24.2072H18.1281C17.4186 24.2072 16.8416 24.7871 16.8416 25.4999V28.1482C16.8416 28.8617 17.4187 29.4421 18.1281 29.4421H19.3651C19.437 29.635 19.5173 29.8254 19.6055 30.0126L18.762 30.8617C18.262 31.3666 18.2624 32.1869 18.7628 32.6902L20.6247 34.5638C20.8672 34.8076 21.1901 34.9417 21.5337 34.9417C21.8776 34.9417 22.2004 34.8074 22.4425 34.5638L23.287 33.7146C23.5112 33.821 23.7411 33.917 23.9761 34.0021V35.2026C23.9761 35.9161 24.5533 36.4966 25.2627 36.4966H27.8946C28.6041 36.4966 29.1812 35.9161 29.1812 35.2026V34.0023C29.4173 33.917 29.648 33.821 29.8722 33.7148L30.7163 34.5655C31.2177 35.0659 32.0329 35.0657 32.5337 34.5639L34.3965 32.6905C34.897 32.1871 34.8974 31.3667 34.3962 30.8606L33.5527 30.0139C33.6588 29.7883 33.7544 29.556 33.8389 29.3187H35.0317C35.7412 29.3187 36.3182 28.7383 36.3182 28.0247V25.3776C36.3183 24.6642 35.7413 24.0838 35.0318 24.0838ZM35.1686 28.0247C35.1686 28.1006 35.1073 28.1625 35.0318 28.1625H33.4224C33.1679 28.1625 32.9437 28.3308 32.8713 28.5763C32.7396 29.0227 32.5632 29.4511 32.3469 29.8494C32.2244 30.0748 32.2647 30.3543 32.4453 30.5358L33.5831 31.6779C33.6377 31.7328 33.638 31.8185 33.5839 31.8729L31.722 33.7456C31.6684 33.7993 31.5806 33.799 31.5283 33.7469L30.3916 32.6015C30.2113 32.4199 29.9338 32.3797 29.7101 32.502C29.314 32.7187 28.8873 32.8964 28.442 33.0304C28.1987 33.1036 28.0318 33.3287 28.0318 33.5843V35.2029C28.0318 35.2787 27.9703 35.3406 27.8949 35.3406H25.263C25.1875 35.3406 25.126 35.2789 25.126 35.2029V33.5843C25.126 33.3287 24.9593 33.1036 24.7159 33.0304C24.2738 32.8975 23.8479 32.7197 23.4499 32.502C23.2239 32.3786 22.9474 32.4217 22.7689 32.6012L21.6297 33.7467C21.5974 33.7792 21.5599 33.786 21.5338 33.786C21.5078 33.786 21.4702 33.7792 21.4378 33.7469L19.5761 31.8733C19.5219 31.819 19.5223 31.7333 19.5762 31.6788L20.7141 30.5332C20.8946 30.3515 20.9341 30.0719 20.8116 29.8467C20.6105 29.4778 20.447 29.0901 20.3254 28.6941C20.2509 28.4517 20.0283 28.2865 19.7761 28.2865H18.1281C18.0526 28.2865 17.9913 28.2248 17.9913 28.1487V25.5005C17.9913 25.4252 18.0526 25.3641 18.1281 25.3641H19.7031C19.9617 25.3641 20.1884 25.1905 20.2571 24.9397C20.3902 24.4551 20.577 23.9893 20.8121 23.5552C20.934 23.3302 20.8941 23.0513 20.714 22.87L19.5751 21.7236C19.5226 21.6713 19.5226 21.5837 19.5757 21.5302L21.4384 19.6581C21.4897 19.6064 21.5754 19.6041 21.6298 19.659L22.7689 20.8034C22.9492 20.9846 23.2265 21.0245 23.4498 20.9024C23.853 20.6818 24.2781 20.5046 24.7133 20.3757C24.9579 20.3033 25.1257 20.0775 25.1257 19.8211V18.2025C25.1257 18.1267 25.1872 18.0649 25.2627 18.0649H27.8946C27.97 18.0649 28.0316 18.1267 28.0316 18.2025V19.8211C28.0316 20.0775 28.1994 20.3033 28.444 20.3757C28.8848 20.5064 29.31 20.6833 29.7076 20.9018C29.932 21.0249 30.2092 20.9848 30.3897 20.8032L31.5269 19.6596C31.5812 19.6048 31.6667 19.6043 31.721 19.659L33.5836 21.5301C33.6362 21.583 33.638 21.6697 33.5836 21.7243L32.4447 22.8697C32.2641 23.0513 32.2243 23.3309 32.3469 23.5563C32.5633 23.9537 32.7396 24.3811 32.871 24.8267C32.9434 25.0721 33.1675 25.2405 33.4221 25.2405H35.0315C35.107 25.2405 35.1683 25.3022 35.1683 25.3782V28.0247H35.1686Z" fill="#4A4A4A"/>
<path d="M26.5799 22.0031C24.0035 22.0031 21.9073 24.1111 21.9073 26.7023C21.9073 29.2934 24.0035 31.4016 26.5799 31.4016C29.1564 31.4016 31.2525 29.2936 31.2525 26.7023C31.2524 24.1113 29.1562 22.0031 26.5799 22.0031ZM26.5799 30.2453C24.6374 30.2453 23.057 28.6559 23.057 26.7023C23.057 24.7486 24.6374 23.1594 26.5799 23.1594C28.5225 23.1594 30.1028 24.7488 30.1028 26.7023C30.1027 28.656 28.5223 30.2453 26.5799 30.2453Z" fill="#4A4A4A"/>
<path d="M27.1551 25.8293V24.9345C27.1551 24.6153 26.8977 24.3564 26.5802 24.3564C26.2628 24.3564 26.0054 24.6153 26.0054 24.9345V25.8293C25.7241 26.0172 25.5382 26.3384 25.5382 26.7026C25.5382 27.2804 26.0057 27.7506 26.5802 27.7506C27.1548 27.7506 27.6223 27.2804 27.6223 26.7026C27.6223 26.3384 27.4363 26.0172 27.1551 25.8293Z" fill="#4A4A4A"/>
<path d="M7.76598 19.1288H8.91566C9.23311 19.1288 9.4905 18.8699 9.4905 18.5507C9.4905 18.2314 9.23311 17.9725 8.91566 17.9725H7.76598C7.44852 17.9725 7.19114 18.2314 7.19114 18.5507C7.19114 18.8699 7.44852 19.1288 7.76598 19.1288Z" fill="#4A4A4A"/>
<path d="M11.0713 19.1288H11.4886C11.8061 19.1288 12.0635 18.8699 12.0635 18.5507C12.0635 18.2314 11.8061 17.9725 11.4886 17.9725H11.0713C10.7539 17.9725 10.4965 18.2314 10.4965 18.5507C10.4965 18.8699 10.7539 19.1288 11.0713 19.1288Z" fill="#4A4A4A"/>
<path d="M10.8828 28.0576C11.3386 27.8061 11.7621 27.4882 12.1401 27.1074C13.184 26.0577 13.759 24.6677 13.759 23.1935C13.7527 21.8687 13.7735 21.7728 13.7383 21.3445C14.2492 21.2962 14.6504 20.8629 14.6504 20.337V16.7578C14.6504 16.6192 14.636 16.4842 14.6133 16.352C15.0166 16.3018 15.4059 16.121 15.7096 15.8074L19.0613 12.4087L19.8685 14.8656C20.3248 16.254 22.1208 16.6004 23.055 15.4799L30.2532 6.85034L30.3052 7.64555C30.3847 8.86496 31.5887 9.68026 32.7422 9.29653C33.5456 9.02958 34.0675 8.24969 34.0118 7.40014L33.6558 1.96301C33.5844 0.86501 32.5928 0.0922014 31.5526 0.234565L25.6211 1.04452C24.6041 1.18341 23.8924 2.12359 24.0305 3.14687C24.1688 4.16972 25.1036 4.88558 26.1209 4.74654L27.2924 4.58654L22.3503 10.5117L21.6313 8.32383C21.1924 6.98764 19.5019 6.60912 18.5395 7.60421L13.0515 13.1974C12.7358 13.5236 12.5544 13.9449 12.5298 14.395C12.3597 14.3777 12.6806 14.3827 7.92867 14.3827C6.73674 14.3827 5.67515 14.9961 5.06582 15.9497C4.72336 15.6443 4.2734 15.4595 3.78321 15.4595C2.71544 15.4595 1.84686 16.333 1.84686 17.4069V20.3368C1.84686 20.8629 2.2481 21.2962 2.75884 21.3444C2.72363 21.772 2.74447 21.8677 2.73815 23.1934C2.73815 25.2891 3.90162 27.1165 5.61307 28.0577C2.78902 29.1131 0.687262 31.8193 0.687262 35.2765C0.687262 36.1066 1.35882 36.782 2.18429 36.782H14.3127C15.068 36.782 15.8096 36.2072 15.8096 35.1864C15.8096 31.9057 13.7588 29.1329 10.8828 28.0576ZM7.47986 28.7843C7.96847 28.7249 8.52277 28.7227 9.04989 28.7887L8.77943 29.4121H7.77087L7.47986 28.7843ZM13.8725 14.0068L19.3607 8.41359C19.7304 8.0313 20.3725 8.17829 20.5397 8.6869L21.5821 11.8594C21.723 12.2883 22.2791 12.3963 22.5683 12.0496L29.1286 4.18431C29.4661 3.77992 29.1292 3.16884 28.6108 3.2398L25.966 3.60113C25.5803 3.65388 25.2223 3.38289 25.1696 2.99164C25.117 2.6017 25.3879 2.24355 25.7756 2.19065C29.4468 1.68927 28.0363 1.88193 31.7072 1.38055C32.0939 1.32765 32.4807 1.61599 32.5084 2.03918L32.8644 7.47659C32.8855 7.80034 32.687 8.0975 32.3814 8.1991C31.9407 8.34523 31.4825 8.03434 31.4521 7.5701L31.306 5.33825C31.2719 4.81939 30.6244 4.60635 30.292 5.00467L22.1739 14.737C21.8215 15.1592 21.1349 15.0354 20.9599 14.503L19.8586 11.1513C19.7242 10.7423 19.2067 10.6193 18.9047 10.9255L14.8893 14.997C14.6169 15.2782 14.1678 15.284 13.8886 15.0106C13.6051 14.7326 13.6068 14.2813 13.8725 14.0068ZM2.99654 17.4069C2.99654 16.9706 3.34935 16.6157 3.78321 16.6157C4.19853 16.6157 4.54257 16.9427 4.56686 17.3599C4.58382 17.6535 4.8172 17.8873 5.10908 17.9035C5.3975 17.9184 5.65834 17.7129 5.70734 17.4231C5.89172 16.3313 6.82584 15.5388 7.92852 15.5388H12.2887C12.9568 15.5388 13.5006 16.0856 13.5006 16.7577V20.193C12.2454 20.193 4.31881 20.193 2.99654 20.193V17.4069ZM3.88783 23.1934C3.89415 21.8631 3.87259 21.7264 3.91125 21.3493H12.5856C12.6245 21.7269 12.603 21.8833 12.6092 23.1934C12.6092 24.3587 12.1539 25.4583 11.3267 26.2899C8.60109 29.036 3.88783 27.1041 3.88783 23.1934ZM1.83709 35.2766C1.83709 32.1985 3.78234 29.8357 6.32687 29.0336L6.80399 30.0621L5.68852 35.6258H2.18443C1.99287 35.6259 1.83709 35.4691 1.83709 35.2766ZM6.86119 35.6259L7.87535 30.5683H8.68243L9.66397 35.6259H6.86119ZM14.6599 35.2766C14.6599 35.4693 14.5041 35.6259 14.3127 35.6259H10.8353L9.75436 30.0561L10.1945 29.0412C12.7115 29.8468 14.6599 32.1956 14.6599 35.2766Z" fill="#4A4A4A"/>
</g>
<defs>
<clipPath id="clip0">
<rect width="36.7898" height="37" fill="white" transform="translate(0.107969)"/>
</clipPath>
</defs>
</svg>
