<svg width="89" height="89" viewBox="0 0 89 89" fill="none" xmlns="http://www.w3.org/2000/svg">
<g filter="url(#filter0_d)">
<circle cx="44.5" cy="40.5" r="40.5" fill="#0F516A"/>
</g>
<g clip-path="url(#clip0)">
<path d="M51.0771 42.7691L57.2694 42.7691C58.0067 42.7691 58.6334 43.027 59.1495 43.5431C59.6653 44.0592 59.9235 44.6858 59.9235 45.4232L59.9235 46.3074C59.9235 48.261 59.2323 49.9288 57.8499 51.3111C56.4676 52.693 54.7996 53.3843 52.8462 53.3843L51.0771 53.3843C50.598 53.3843 50.1835 53.5594 49.8331 53.9095C49.483 54.2597 49.308 54.6742 49.308 55.1534L49.308 58.6922C49.308 59.1712 49.4831 59.5861 49.8331 59.9364C50.1834 60.2861 50.5979 60.4615 51.0771 60.4615L52.8462 60.4615C54.763 60.4615 56.5918 60.088 58.3335 59.342C60.0751 58.5954 61.5816 57.5863 62.8534 56.3145C64.1251 55.0433 65.1339 53.5368 65.8803 51.795C66.6267 50.0534 67 48.2241 67 46.3075L67 26.8464C67 25.3713 66.4842 24.1187 65.4522 23.0863C64.42 22.0544 63.1665 21.5385 61.6922 21.5385L51.0764 21.5385C49.6022 21.5385 48.3491 22.0544 47.3168 23.0863C46.285 24.1187 45.7689 25.3713 45.7689 26.8464L45.7689 37.4613C45.7689 38.9361 46.285 40.1887 47.3175 41.2212C48.3493 42.253 49.6029 42.7691 51.0771 42.7691Z" fill="#FAF5F5"/>
<path d="M22.5472 41.2212C23.579 42.253 24.8322 42.7691 26.3067 42.7691L32.499 42.7691C33.2358 42.7691 33.8632 43.027 34.3784 43.5431C34.8946 44.0592 35.1524 44.6858 35.1524 45.4232L35.1524 46.3074C35.1524 48.261 34.4612 49.9288 33.0795 51.3111C31.6977 52.693 30.0298 53.3843 28.0753 53.3843L26.3066 53.3843C25.8274 53.3843 25.4126 53.5594 25.0626 53.9095C24.7128 54.2597 24.537 54.6742 24.537 55.1534L24.537 58.6922C24.537 59.1712 24.7127 59.5861 25.0626 59.9364C25.4125 60.2861 25.8273 60.4615 26.3066 60.4615L28.0753 60.4615C29.9932 60.4615 31.8216 60.088 33.5639 59.342C35.3052 58.5954 36.8111 57.5863 38.0829 56.3145C39.3547 55.0433 40.364 53.5368 41.1102 51.795C41.8564 50.0534 42.2301 48.2241 42.2301 46.3075L42.2301 26.8464C42.2301 25.3713 41.7139 24.1187 40.6821 23.0863C39.6502 22.0544 38.397 21.5385 36.9226 21.5385L26.3073 21.5385C24.8327 21.5385 23.5796 22.0544 22.5479 23.0863C21.5153 24.1187 21.0001 25.3713 21.0001 26.8464L21.0001 37.4613C21 38.9362 21.5153 40.1887 22.5472 41.2212Z" fill="#FAF5F5"/>
</g>
<defs>
<filter id="filter0_d" x="0" y="0" width="89" height="89" filterUnits="userSpaceOnUse" color-interpolation-filters="sRGB">
<feFlood flood-opacity="0" result="BackgroundImageFix"/>
<feColorMatrix in="SourceAlpha" type="matrix" values="0 0 0 0 0 0 0 0 0 0 0 0 0 0 0 0 0 0 127 0"/>
<feOffset dy="4"/>
<feGaussianBlur stdDeviation="2"/>
<feColorMatrix type="matrix" values="0 0 0 0 0 0 0 0 0 0 0 0 0 0 0 0 0 0 0.25 0"/>
<feBlend mode="normal" in2="BackgroundImageFix" result="effect1_dropShadow"/>
<feBlend mode="normal" in="SourceGraphic" in2="effect1_dropShadow" result="shape"/>
</filter>
<clipPath id="clip0">
<rect width="46" height="46" fill="white" transform="translate(67 64) rotate(-180)"/>
</clipPath>
</defs>
</svg>
