<svg width="34" height="34" viewBox="0 0 34 34" fill="none" xmlns="http://www.w3.org/2000/svg">
<g clip-path="url(#clip0)">
<path d="M17.0451 18.1997C21.6995 18.1997 25.4727 14.4266 25.4727 9.77218C25.4727 5.11776 21.6995 1.3446 17.0451 1.3446C12.3907 1.3446 8.61752 5.11776 8.61752 9.77218C8.61752 14.4266 12.3907 18.1997 17.0451 18.1997Z" fill="#FDB659"/>
<path d="M6.80147 21.9249L3.14046 24.0386C2.96163 24.1418 2.90034 24.3705 3.00357 24.5493L7.62712 32.5576C7.73036 32.7364 7.95905 32.7977 8.13788 32.6945L11.7989 30.5807C11.9777 30.4775 12.039 30.2488 11.9358 30.07L7.3123 22.0617C7.20899 21.8829 6.98037 21.8216 6.80147 21.9249Z" fill="#DBF4FF"/>
<path d="M6.80147 21.9249L3.14046 24.0386C2.96163 24.1418 2.90034 24.3705 3.00357 24.5493L7.62712 32.5576C7.73036 32.7364 7.95905 32.7977 8.13788 32.6945L11.7989 30.5807C11.9777 30.4775 12.039 30.2488 11.9358 30.07L7.3123 22.0617C7.20899 21.8829 6.98037 21.8216 6.80147 21.9249Z" fill="#DBF4FF"/>
<path d="M7.96536 23.193L12.2079 21.0096C13.2209 20.4883 14.389 20.3535 15.4942 20.6304L21.532 22.1432C22.2249 22.3168 22.7109 22.9396 22.7109 23.6539C22.7109 24.514 22.0136 25.2113 21.1534 25.2113H16.4078H20.4635H21.7031C22.149 25.2113 22.5767 25.0341 22.8921 24.7188L28.2809 19.3299C28.8869 18.7239 29.8522 18.6716 30.5202 19.2087C31.2987 19.8347 31.3616 20.9978 30.6553 21.7042L24.9762 27.3833C24.0876 28.2719 22.8823 28.7711 21.6256 28.7711H11.3084L7.96536 23.193Z" fill="#DBF4FF"/>
<path d="M17.0451 18.8382C22.0441 18.8382 26.1111 14.7712 26.1111 9.77217C26.1111 4.77315 22.0441 0.706146 17.0451 0.706146C12.046 0.706146 7.97903 4.77315 7.97903 9.77217C7.97903 14.7712 12.046 18.8382 17.0451 18.8382ZM17.0451 1.98305C21.34 1.98305 24.8342 5.47724 24.8342 9.77217C24.8342 14.0671 21.34 17.5613 17.0451 17.5613C12.7501 17.5613 9.25594 14.0671 9.25594 9.77217C9.25594 5.47724 12.7501 1.98305 17.0451 1.98305Z" fill="#DBF4FF"/>
<path d="M22.7607 10.4178H23.3029C23.6555 10.4178 23.9414 10.132 23.9414 9.77934C23.9414 9.42672 23.6555 9.14088 23.3029 9.14088H22.7607C22.4081 9.14088 22.1222 9.42672 22.1222 9.77934C22.1222 10.132 22.4081 10.4178 22.7607 10.4178Z" fill="#4A4A4A"/>
<path d="M11.9679 9.76505C11.9679 9.41244 11.682 9.1266 11.3294 9.1266H10.7872C10.4346 9.1266 10.1487 9.41244 10.1487 9.76505C10.1487 10.1177 10.4346 10.4035 10.7872 10.4035H11.3294C11.682 10.4035 11.9679 10.1177 11.9679 9.76505Z" fill="#4A4A4A"/>
<path d="M17.0522 4.695C17.4047 4.695 17.6906 4.40916 17.6906 4.05654V3.51431C17.6906 3.16169 17.4047 2.87585 17.0522 2.87585C16.6996 2.87585 16.4137 3.16169 16.4137 3.51431V4.05654C16.4137 4.40916 16.6996 4.695 17.0522 4.695Z" fill="#4A4A4A"/>
<path d="M17.038 14.8493C16.6854 14.8493 16.3995 15.1352 16.3995 15.4878V16.03C16.3995 16.3827 16.6854 16.6685 17.038 16.6685C17.3905 16.6685 17.6764 16.3827 17.6764 16.03V15.4878C17.6764 15.1352 17.3905 14.8493 17.038 14.8493Z" fill="#4A4A4A"/>
<path d="M16.5874 10.2174L16.5946 10.2246C16.7191 10.3486 16.8821 10.4106 17.0451 10.4106C17.2085 10.4106 17.3719 10.3483 17.4965 10.2236L21.9101 5.81008C22.1594 5.56076 22.1594 5.1565 21.9101 4.90712C21.6607 4.6578 21.2565 4.65786 21.0071 4.90712L17.0451 8.86929L14.7433 6.56754C14.494 6.31822 14.0898 6.31822 13.8403 6.56754C13.591 6.81686 13.591 7.22112 13.8403 7.47044L16.5874 10.2174Z" fill="#4A4A4A"/>
<path d="M30.9203 18.7112C29.9965 17.9683 28.6677 18.0402 27.8295 18.8785L23.3319 23.3761C23.2196 22.4874 22.5748 21.7463 21.6872 21.5239L15.6494 20.0112C14.3931 19.6963 13.0673 19.8494 11.9158 20.442L8.21421 22.3469L7.86529 21.7427C7.73007 21.5084 7.51172 21.3409 7.25046 21.2708C6.98953 21.2011 6.71659 21.2369 6.48234 21.372L2.82126 23.4857C2.33789 23.7648 2.17164 24.3851 2.45071 24.8686L7.07425 32.8768C7.20948 33.111 7.42776 33.2785 7.68895 33.3486C7.77617 33.3719 7.86472 33.3835 7.9527 33.3835C8.12808 33.3835 8.30123 33.3375 8.4572 33.2474L12.1182 31.1338C12.6016 30.8547 12.7679 30.2343 12.4888 29.7508L8.85336 23.4541L12.5 21.5774C13.3756 21.1267 14.3838 21.0104 15.339 21.2498L21.3768 22.7625C21.7864 22.865 22.0725 23.2317 22.0725 23.6539C22.0725 24.1607 21.6602 24.5729 21.1534 24.5729H20.4634H16.4078C16.0553 24.5729 15.7694 24.8588 15.7694 25.2114C15.7694 25.5639 16.0553 25.8498 16.4078 25.8498H20.4634H21.1534H21.703C22.3227 25.8498 22.9053 25.6085 23.3434 25.1703L28.7323 19.7815C29.1085 19.4051 29.7052 19.3728 30.1199 19.7063C30.3532 19.8939 30.4907 20.162 30.5069 20.4609C30.5231 20.7599 30.4154 21.0411 30.2037 21.2528L24.5246 26.9318C23.7502 27.7062 22.7206 28.1327 21.6255 28.1327H16.4159C16.0633 28.1327 15.7774 28.4186 15.7774 28.7712C15.7774 29.1237 16.0633 29.4096 16.4159 29.4096H21.6255C23.0617 29.4096 24.412 28.8503 25.4276 27.8348L31.1066 22.1557C31.5713 21.691 31.8175 21.0481 31.7819 20.3919C31.7465 19.7356 31.4324 19.123 30.9203 18.7112ZM10.2298 30.7495L8.64267 28.0005C8.46633 27.6953 8.07585 27.5905 7.77055 27.7668C7.46518 27.9432 7.36053 28.3336 7.53687 28.639L9.124 31.388L8.04795 32.0093L3.68886 24.4593L6.89165 22.6101L11.2506 30.1601L10.2298 30.7495Z" fill="#4A4A4A"/>
<path d="M30.1972 2.86482C30.5498 2.86482 30.8357 2.57898 30.8357 2.22637V1.3446C30.8357 0.991981 30.5498 0.706146 30.1972 0.706146C29.8447 0.706146 29.5588 0.991981 29.5588 1.3446V2.22637C29.5588 2.57898 29.8447 2.86482 30.1972 2.86482Z" fill="#FFF5FD"/>
<path d="M30.1972 7.09072C30.5498 7.09072 30.8357 6.80489 30.8357 6.45227V5.57051C30.8357 5.21789 30.5498 4.93205 30.1972 4.93205C29.8447 4.93205 29.5588 5.21789 29.5588 5.57051V6.45227C29.5588 6.80489 29.8447 7.09072 30.1972 7.09072Z" fill="#FFF5FD"/>
<path d="M32.751 3.25999H31.8692C31.5166 3.25999 31.2307 3.54583 31.2307 3.89845C31.2307 4.25106 31.5166 4.5369 31.8692 4.5369H32.751C33.1036 4.5369 33.3895 4.25106 33.3895 3.89845C33.3895 3.54583 33.1036 3.25999 32.751 3.25999Z" fill="#FFF5FD"/>
<path d="M27.6434 4.5369H28.5252C28.8778 4.5369 29.1637 4.25106 29.1637 3.89845C29.1637 3.54583 28.8778 3.25999 28.5252 3.25999H27.6434C27.2908 3.25999 27.0049 3.54583 27.0049 3.89845C27.0049 4.25106 27.2908 4.5369 27.6434 4.5369Z" fill="#FFF5FD"/>
<path d="M3.89294 16.017C4.24549 16.017 4.53139 15.7311 4.53139 15.3785V14.4967C4.53139 14.1441 4.24549 13.8583 3.89294 13.8583C3.54039 13.8583 3.25449 14.1441 3.25449 14.4967V15.3785C3.25449 15.7311 3.54039 16.017 3.89294 16.017Z" fill="#FFF5FD"/>
<path d="M3.89294 20.2428C4.24549 20.2428 4.53139 19.9569 4.53139 19.6044V18.7225C4.53139 18.37 4.24549 18.0841 3.89294 18.0841C3.54039 18.0841 3.25449 18.37 3.25449 18.7225V19.6044C3.25449 19.9569 3.54039 20.2428 3.89294 20.2428Z" fill="#FFF5FD"/>
<path d="M5.56494 17.689H6.44677C6.79932 17.689 7.08522 17.4031 7.08522 17.0505C7.08522 16.6979 6.79932 16.4121 6.44677 16.4121H5.56494C5.21238 16.4121 4.92648 16.6979 4.92648 17.0505C4.92648 17.4031 5.21238 17.689 5.56494 17.689Z" fill="#FFF5FD"/>
<path d="M2.85942 17.0505C2.85942 16.6979 2.57352 16.4121 2.22097 16.4121H1.33914C0.986583 16.4121 0.700684 16.6979 0.700684 17.0505C0.700684 17.4031 0.986583 17.689 1.33914 17.689H2.22097C2.57352 17.689 2.85942 17.4031 2.85942 17.0505Z" fill="#FFF5FD"/>
<path d="M13.8623 28.1326C13.6937 28.1326 13.5297 28.2009 13.411 28.3197C13.2916 28.4384 13.2238 28.6032 13.2238 28.7711C13.2238 28.939 13.2916 29.1037 13.411 29.2225C13.5297 29.3412 13.6944 29.4095 13.8623 29.4095C14.0303 29.4095 14.1949 29.3412 14.3137 29.2225C14.4324 29.1037 14.5008 28.939 14.5008 28.7711C14.5008 28.6032 14.4325 28.4384 14.3137 28.3197C14.1949 28.2009 14.0303 28.1326 13.8623 28.1326Z" fill="#4A4A4A"/>
<path d="M6.3612 25.6567C6.24245 25.7755 6.17407 25.9402 6.17407 26.1081C6.17407 26.276 6.24239 26.4408 6.3612 26.5595C6.47989 26.6782 6.64461 26.7466 6.81253 26.7466C6.98114 26.7466 7.14516 26.6783 7.26391 26.5595C7.3833 26.4408 7.45098 26.276 7.45098 26.1081C7.45098 25.9402 7.3833 25.7755 7.26391 25.6567C7.14516 25.538 6.98108 25.4697 6.81253 25.4697C6.64468 25.4697 6.47996 25.538 6.3612 25.6567Z" fill="#4A4A4A"/>
</g>
<defs>
<clipPath id="clip0">
<rect width="32.6888" height="32.6888" fill="white" transform="translate(0.700684 0.700439)"/>
</clipPath>
</defs>
</svg>
