<svg width="525" height="327" viewBox="0 0 525 327" fill="none" xmlns="http://www.w3.org/2000/svg">
<g clip-path="url(#clip0)">
<path d="M515.086 267.383C492.917 301.101 454.88 320.916 414.584 320.916H80.1292C12.8973 320.916 -24.7987 242.15 18.7977 197.794C62.394 153.438 23.9136 115.559 91.137 79.996C156.288 45.5349 178.551 118.986 238.544 70.9215C298.537 22.8571 385.943 27.4029 405.136 76.3645C424.33 125.326 419.81 142.561 460.559 153.447C501.307 164.333 541.084 225.984 516.655 264.973C516.127 265.785 515.606 266.588 515.086 267.383Z" fill="#BDCAE0"/>
<path d="M500.216 281.046C464.984 284.045 441.229 350.259 353.15 310.449C353.15 310.449 362.827 281.559 406.151 263.546C449.474 245.534 500.216 281.046 500.216 281.046Z" fill="#CDDCF4"/>
<path d="M365.181 305.493C374.398 300.722 383.907 296.541 393.651 292.975C396.081 292.043 398.537 291.206 401.001 290.411C403.465 289.617 405.938 288.805 408.419 288.036C410.9 287.267 413.416 286.592 415.922 285.908C417.176 285.575 418.429 285.216 419.691 284.9L423.485 283.985L427.288 283.131L431.117 282.379L434.945 281.619C436.224 281.379 437.503 281.183 438.799 280.986C441.357 280.61 443.915 280.175 446.533 279.927C449.15 279.679 451.7 279.286 454.309 279.183C464.683 278.322 475.123 278.709 485.405 280.337C475.105 280.123 464.803 280.666 454.582 281.96L452.672 282.174L450.762 282.473L446.959 283.028C444.401 283.353 441.894 283.883 439.37 284.319C438.109 284.567 436.812 284.746 435.576 285.011L431.807 285.797L428.039 286.583L424.295 287.48L420.535 288.335C419.29 288.634 418.054 288.967 416.809 289.283L413.075 290.257C411.83 290.573 410.602 290.958 409.357 291.283C406.876 291.966 404.394 292.633 401.939 293.402C399.483 294.171 396.993 294.854 394.546 295.641C384.707 298.674 374.961 302.058 365.181 305.493Z" fill="#B0BDD1"/>
<path d="M504.53 168.417C461.539 199.179 481.423 302.417 337.956 318.669C337.956 318.669 328.38 274.15 370.356 217.84C412.333 161.53 504.53 168.417 504.53 168.417Z" fill="#DBE9FF"/>
<path d="M347.505 306.236C353.843 292.648 361.431 279.681 370.169 267.503C378.868 255.232 388.565 243.703 399.159 233.033C409.716 222.301 421.265 212.597 433.649 204.049C446.03 195.564 459.391 188.267 473.639 183.721C460.573 190.69 448.151 198.811 436.523 207.988C424.946 217.117 413.943 226.954 403.576 237.442C393.193 247.938 383.341 258.949 374.057 270.433C364.737 281.952 356.006 293.932 347.505 306.236Z" fill="#CDDCF4"/>
<path d="M40.7706 271.895C75.7295 277.372 94.7438 345.064 185.407 311.602C185.407 311.602 177.784 282.097 135.833 261.068C93.8826 240.04 40.7706 271.895 40.7706 271.895Z" fill="#CDDCF4"/>
<path d="M173.751 305.766C164.235 301.648 154.754 297.589 145.153 293.803C142.765 292.846 140.344 291.966 137.939 291.043C135.535 290.121 133.113 289.266 130.683 288.412C129.472 288.002 128.27 287.557 127.051 287.121L123.402 285.891C122.182 285.489 120.963 285.037 119.744 284.678L116.052 283.558L112.385 282.396L108.676 281.345L104.967 280.294C103.739 279.944 102.477 279.679 101.241 279.346C98.7513 278.705 96.2786 278.021 93.7632 277.517L90.003 276.663L88.1272 276.235L86.2343 275.885C76.1262 273.869 65.8837 272.6 55.5898 272.091C65.9627 271.194 76.4057 271.546 86.6947 273.142C89.2527 273.416 91.8106 273.997 94.3686 274.424C96.9266 274.851 99.4845 275.475 102.043 276.03C103.313 276.321 104.6 276.603 105.837 276.936L109.606 277.953L113.374 278.978L117.109 280.123L120.827 281.302C122.063 281.704 123.282 282.157 124.51 282.567C126.966 283.422 129.438 284.276 131.843 285.224C134.247 286.173 136.694 287.096 139.082 288.121C141.469 289.147 143.874 290.121 146.227 291.223C155.702 295.476 164.896 300.334 173.751 305.766Z" fill="#B0BDD1"/>
<path d="M63.997 163.675C102.708 195.769 76.9488 292.308 211.924 317.344C211.924 317.344 223.981 275.765 187.948 219.584C151.914 163.402 63.997 163.675 63.997 163.675Z" fill="#DBE9FF"/>
<path d="M203.696 304.912C196.406 292.701 188.894 280.773 180.836 269.246C172.779 257.719 164.184 246.619 155.035 236.007C145.905 225.373 136.138 215.306 125.789 205.861C115.392 196.35 104.182 187.772 92.2881 180.226C105.53 185.439 117.74 193.24 128.952 202.101C140.153 211.038 150.48 221.024 159.793 231.922C169.12 242.756 177.528 254.352 184.929 266.588C192.38 278.739 198.664 291.571 203.696 304.912Z" fill="#CDDCF4"/>
<path d="M291.656 253.549C286.813 259.317 282.422 268.878 279.719 270.399C277.016 271.92 272.344 272.442 268.029 286.421C263.715 300.4 285.611 298.512 285.611 298.512C285.611 298.512 294.99 293.111 298.776 280.072L308.155 271.732L291.656 253.549Z" fill="#F6A397"/>
<path d="M274.688 297.008C279.662 295.142 284.148 292.171 287.811 288.318C293.856 281.926 294.632 270.545 294.632 270.545L297.531 275.962L303.321 269.767L306.109 269.494L308.164 271.766L298.784 280.106C294.999 293.145 285.619 298.546 285.619 298.546C281.866 298.815 278.093 298.472 274.45 297.529C274.586 297.213 274.688 297.008 274.688 297.008Z" fill="#D65863"/>
<path d="M324.535 203.365C317.816 208.287 313.808 211.859 310.466 218.55C307.123 225.24 286.199 249.311 284.886 251.438C283.573 253.566 296.653 276.346 307.132 281.926C307.132 281.926 322.966 263.623 332.089 256.711C341.213 249.798 338.058 225.249 333.871 216.994C331.356 212.068 328.218 207.488 324.535 203.365Z" fill="#5470D3"/>
<path d="M324.287 247.653V233.982C324.287 233.982 326.069 233.272 327.451 237.887C327.934 239.663 328.024 241.523 327.715 243.338L337.904 235.648C338.331 244.244 336.949 252.994 332.064 256.694C322.94 263.606 307.106 281.909 307.106 281.909C303.955 280.02 301.137 277.621 298.767 274.809C305.213 268.391 317.441 255.976 324.287 247.653Z" fill="#314EC6"/>
<path d="M259.17 293.146C257.465 293.692 256.143 294.53 256.143 296.726C256.143 298.922 256.518 302.425 257.354 303.784C258.189 305.142 262.47 305.971 262.47 305.971C262.47 305.971 262.18 296.88 261.276 295.213C260.842 294.295 260.095 293.562 259.17 293.146Z" fill="#F6A397"/>
<path d="M257.354 303.784C257.082 303.285 256.881 302.75 256.757 302.194C257.048 302.543 257.416 302.819 257.832 303.002C258.248 303.184 258.7 303.267 259.153 303.245L262.419 304.262C262.47 305.288 262.487 305.971 262.487 305.971C262.487 305.971 258.19 305.151 257.354 303.784Z" fill="#D65863"/>
<path d="M263.34 289.839C261.216 290.069 259.076 291.659 259.076 293.863C259.076 296.068 258.317 302.212 259.076 303.194C259.835 304.177 263.544 306.988 264.832 307.219C266.119 307.449 268.311 307.065 268.012 306.364C267.714 305.664 263.34 289.839 263.34 289.839Z" fill="#F6A397"/>
<path d="M258.769 301.528C260.381 303.348 264.491 303.186 264.491 303.186C265.252 303.969 265.931 304.828 266.52 305.749C266.656 306.125 267.373 306.604 267.501 306.997C266.645 307.272 265.737 307.345 264.849 307.21C263.587 306.988 260.006 304.288 259.153 303.254L258.769 301.545V301.528Z" fill="#D65863"/>
<path d="M271.278 286.19C264.772 286.557 263.561 287.164 263.34 289.822C263.118 292.479 263.263 300.221 264.09 302.194C264.917 304.168 265.377 305.911 266.443 306.971C267.169 307.632 268.106 308.01 269.086 308.039C269.086 308.039 272.651 302.801 272.804 298.401C272.958 294 271.278 286.19 271.278 286.19Z" fill="#F6A397"/>
<path d="M267.535 303.681C268.326 300.49 268.716 297.211 268.694 293.923C268.694 291.659 270.826 303.493 269.888 306.74C269.419 307.543 269.086 308.039 269.086 308.039C268.106 308.01 267.169 307.631 266.443 306.971C265.377 305.911 264.925 304.168 264.09 302.194C264.031 302.043 263.98 301.889 263.936 301.733C264.363 302.844 265.71 303.57 267.535 303.681Z" fill="#D65863"/>
<path d="M285.526 299.537C285.116 303.16 280.41 304.467 279.847 306.287C279.284 308.108 279.693 309.782 278.781 310.235C277.869 310.688 274.092 308.569 274.236 306.142C273.916 306.755 273.465 307.291 272.916 307.71C272.366 308.129 271.731 308.423 271.056 308.569C268.865 308.945 268.336 307.338 268.711 304.92C269.022 302.736 269.099 300.525 268.942 298.324C268.865 295.436 268.183 292.787 269.47 289.6C270.758 286.412 272.497 283.618 275.984 284.131C279.472 284.644 281.586 289.061 283.479 290.582C285.372 292.103 285.986 295.513 285.526 299.537Z" fill="#F6A397"/>
<path d="M274.236 306.142C274.45 301.528 274.688 297.751 274.688 297.008C274.688 296.264 274.45 291.368 276.189 291.078C276.453 291.026 280.273 293.453 280.341 295.094C280.41 296.734 280.341 299.665 279.156 300.503C277.971 301.34 274.236 306.142 274.236 306.142Z" fill="#D65863"/>
<path d="M432.046 213.201C425.14 204.391 422.769 203.536 415.641 199.367C408.513 195.197 381.535 184.635 375.933 183.294C370.331 181.952 347.915 192.428 340.556 195.795C333.198 199.161 323.818 202.434 322.215 205.698C316.869 216.618 327.459 232.093 327.519 264.52C327.519 281.507 331.407 319.703 331.407 319.703C331.407 319.703 416.246 319.856 417.432 318.071C418.617 316.285 421.558 255.301 423.059 242.842C424.56 230.384 432.046 213.201 432.046 213.201Z" fill="#5470D3"/>
<path d="M322.522 222.796C321.92 220.751 321.476 218.663 321.192 216.55C320.869 214.443 320.704 212.316 320.698 210.184C321.303 212.229 321.751 214.317 322.036 216.43C322.353 218.538 322.515 220.665 322.522 222.796Z" fill="#314EC6"/>
<path d="M354.241 210.022C350.967 208.791 343.199 210.928 341.784 211.423C340.368 211.919 342.637 205.835 343.489 205.083C344.342 204.331 345.655 202.571 348.221 203.374C350.788 204.177 352.928 207.108 353.337 208.074C353.588 208.746 353.89 209.397 354.241 210.022Z" fill="#314EC6"/>
<path d="M381.552 215.098C380.384 215.038 373.571 211.893 371.934 211.116C370.297 210.338 362.904 209.971 357.933 211.363C357.933 211.363 367.5 204.887 373.068 204.938C378.636 204.989 380.742 207.006 381.194 208.791C381.491 210.879 381.611 212.989 381.552 215.098Z" fill="#314EC6"/>
<path d="M345.084 306.022C345.996 305.168 401.402 306.92 402.51 301.118C403.619 295.316 404.394 284.763 404.394 284.763C397.727 288.335 388.041 286.848 388.041 286.848C394.495 284.729 403.849 274.116 404.292 270.989C405.665 261.368 400.532 234.836 400.532 234.836L404.292 227.257L408.692 224.804C414.445 227.889 419.667 231.879 424.159 236.622C423.689 238.661 423.322 240.723 423.059 242.8C421.661 254.583 418.941 309.449 417.645 317.199C400.481 317.831 369.376 318.976 348.58 319.686C338.493 319.686 331.416 319.686 331.416 319.686C331.416 319.686 331.288 314.661 330.981 307.458C336.77 307.133 344.521 306.578 345.084 306.022Z" fill="#314EC6"/>
<path d="M356.339 211.637C362.307 210.911 371.925 205.724 375.711 207.51C379.497 209.296 380.384 213.867 381.168 214.645C381.953 215.422 385.286 211.526 385.286 201.93C385.286 192.334 385.576 182.508 378.525 181.175C371.473 179.842 353.218 186.754 349.535 189.549C346.658 191.621 344.483 194.525 343.302 197.871C342.304 200.588 339.627 211.543 340.855 211.637C342.082 211.731 345.527 204.604 348.094 204.382C350.66 204.16 354.719 211.833 356.339 211.637Z" fill="#5470D3"/>
<path d="M352.937 203.041C351.41 199.418 349.739 196.205 349.799 193.727C349.859 191.249 350.413 189.455 353.21 188.711C356.006 187.968 357.166 189.438 357.328 193.223C357.49 197.008 352.937 203.041 352.937 203.041Z" fill="#314EC6"/>
<path d="M374.765 196.282C380.58 190.993 381.236 185.08 380.733 183.858C380.23 182.636 377.783 181.739 377.783 181.739C377.783 181.739 376.837 185.584 377.391 186.532C377.945 187.481 374.765 196.282 374.765 196.282Z" fill="#314EC6"/>
<path d="M365.496 209.074C366.922 208.441 368.396 207.924 369.905 207.527C371.43 207.1 373.012 206.913 374.594 206.972C375.446 206.993 376.271 207.27 376.965 207.766C377.595 208.364 378.073 208.903 378.61 209.475C379.604 210.712 380.432 212.074 381.074 213.525C381.178 213.802 381.345 214.05 381.56 214.252C381.56 214.252 381.56 214.252 381.688 214.2C381.809 214.105 381.917 213.996 382.012 213.876C382.444 213.265 382.824 212.619 383.146 211.945C383.809 210.577 384.272 209.121 384.519 207.621C384.801 206.105 384.989 204.572 385.082 203.032C385.218 201.486 385.261 199.939 385.286 198.384C385.609 201.494 385.569 204.631 385.167 207.732C384.977 209.315 384.54 210.857 383.871 212.303C383.534 213.038 383.129 213.739 382.66 214.397C382.515 214.581 382.349 214.747 382.166 214.893C382.04 214.982 381.898 215.046 381.748 215.08C381.564 215.121 381.373 215.1 381.202 215.021C380.963 214.891 380.762 214.699 380.622 214.465C380.506 214.287 380.401 214.101 380.307 213.91C379.707 212.51 378.927 211.194 377.988 209.996C377.516 209.402 377.016 208.831 376.487 208.287C375.914 207.866 375.235 207.614 374.526 207.561C373.007 207.437 371.477 207.544 369.99 207.877C368.469 208.183 366.968 208.582 365.496 209.074Z" fill="#314EC6"/>
<path d="M351.786 207.074C351.161 206.488 350.497 205.946 349.799 205.45C349.468 205.21 349.114 205.004 348.742 204.835C348.572 204.764 348.394 204.712 348.213 204.681C348.142 204.672 348.071 204.672 348 204.681C347.949 204.681 347.914 204.681 347.812 204.775C346.408 205.679 345.213 206.874 344.308 208.279C343.822 208.954 343.404 209.723 342.833 210.423C342.546 210.783 342.22 211.11 341.861 211.398C341.647 211.586 341.383 211.707 341.102 211.748C340.898 211.763 340.697 211.699 340.539 211.568C340.418 211.458 340.33 211.316 340.283 211.158C340.162 210.696 340.138 210.212 340.215 209.74C340.275 209.296 340.351 208.885 340.445 208.441C340.65 207.601 340.904 206.774 341.204 205.963C341.085 206.818 340.931 207.672 340.863 208.527C340.809 208.943 340.781 209.363 340.778 209.783C340.746 210.169 340.789 210.558 340.906 210.928C340.923 210.972 340.949 211.013 340.982 211.047H341.025C341.165 211.003 341.294 210.927 341.4 210.825C341.699 210.572 341.968 210.286 342.202 209.971C342.696 209.321 343.105 208.578 343.609 207.843C344.108 207.112 344.679 206.434 345.314 205.818C345.953 205.197 346.68 204.673 347.471 204.263C347.593 204.191 347.725 204.139 347.863 204.109C348.005 204.088 348.148 204.088 348.29 204.109C348.532 204.158 348.765 204.244 348.98 204.365C349.368 204.592 349.731 204.858 350.063 205.16C350.696 205.743 351.272 206.383 351.786 207.074Z" fill="#314EC6"/>
<path d="M352.118 181.252C352.118 183.61 352.229 185.96 352.468 188.301C353.073 194.06 352.468 201.648 352.937 203.041C353.44 204.605 356.45 210.184 356.45 210.184C356.45 210.184 361.796 207.732 364.021 205.057C366.247 202.383 369.137 202.246 373.034 198.298C376.93 194.351 379.582 188.045 378.712 182.858C378.602 182.192 377.919 175.51 377.766 168.588C377.613 161.667 370.365 156.421 363.458 156.421C356.552 156.421 352.425 166.674 352.212 173.596C352.127 176.432 352.11 179.098 352.118 181.252Z" fill="#F6A397"/>
<path d="M377.766 168.58C377.92 175.501 378.619 182.183 378.712 182.85C378.973 184.524 378.927 186.233 378.576 187.891C377.05 188.173 357.388 188.651 352.297 186.276C352.178 184.567 352.127 182.926 352.118 181.252C352.118 179.098 352.118 176.432 352.212 173.561C352.367 170.257 353.148 167.012 354.514 164L370.715 158.258C374.662 160.402 377.672 164.145 377.766 168.58Z" fill="#D65863"/>
<path d="M340.01 139.775C329.565 139.775 325.652 147.816 325.652 153.849C325.652 159.249 327.357 167.913 340.01 167.913C346.32 167.913 350.592 161.616 350.592 153.849C350.592 146.081 346.32 139.775 340.01 139.775Z" fill="#504984"/>
<path d="M339.55 143.219C331.663 143.219 328.713 149.294 328.713 153.849C328.713 157.924 330.017 164.47 339.55 164.47C344.316 164.47 347.539 159.71 347.539 153.849C347.539 147.987 344.316 143.219 339.55 143.219Z" fill="#372D5B"/>
<path d="M326.828 144.526C327.451 148.192 329.258 149.593 330.068 154.541C330.878 159.488 328.721 166.666 331.936 172.929C335.15 179.192 340.36 187.412 343.37 187.763C346.38 188.113 370.45 184.029 378.576 167.836C380.912 163.188 385.892 144.971 381.629 133.837C377.365 122.703 370.425 112.475 354.395 112.201C338.365 111.928 323.563 125.087 326.828 144.526Z" fill="#F6A397"/>
<path d="M340.241 164.572C340.651 164.599 341.063 164.537 341.447 164.39C341.831 164.242 342.179 164.013 342.466 163.718C342.645 163.475 342.773 163.198 342.844 162.905C342.914 162.611 342.925 162.307 342.875 162.009C342.27 162.481 341.566 162.81 340.816 162.973C340.067 163.136 339.29 163.128 338.544 162.949C338.356 164.051 339.243 164.547 340.241 164.572Z" fill="#D65863"/>
<path d="M368.608 144.526C368.223 142.246 367.117 140.149 365.454 138.545C365.454 138.545 359.323 135.981 354.582 135.529C351.341 135.164 348.134 134.544 344.99 133.674C344.99 133.674 346.491 137.494 349.031 139.117C349.031 139.117 337.7 138.545 334.119 135.187C334.119 135.187 334.809 137.955 335.508 139.81C335.508 139.81 329.958 139.237 328.218 137.041C328.218 137.041 326.828 141.886 326.828 144.56C326.828 144.56 320.161 135.418 321.857 128.154C323.554 120.891 325.865 118.106 325.865 118.106C323.404 118.359 320.924 118.359 318.464 118.106C318.464 118.106 324.637 112.706 329.258 109.151C333.88 105.596 347.761 105.442 347.761 105.442C347.761 105.442 346.678 101.734 347.915 95.8638C347.915 95.8638 353.883 104.588 360.133 107.254C366.383 109.92 365.573 109.698 372.232 111.381C378.891 113.064 385.227 117.362 387.887 120.926C390.547 124.489 393.438 128.231 395.169 128.812C395.169 128.812 391.008 128.231 388.927 126.488C388.927 126.488 392.398 134.392 387.81 144.56C383.223 154.729 371.729 151.721 369.504 149.474C368.863 148.843 368.433 148.028 368.272 147.142C368.112 146.257 368.229 145.343 368.608 144.526Z" fill="#BA6454"/>
<path d="M369.546 149.439C368.913 148.811 368.487 148.003 368.327 147.124C368.167 146.245 368.28 145.338 368.651 144.526C368.349 142.69 367.58 140.962 366.417 139.51C368.074 129.329 367.395 118.902 364.43 109.023C366.135 109.735 367.894 110.306 369.691 110.732C372.738 115.411 375.085 120.512 376.658 125.873C378.67 132.606 379.65 139.878 377.766 146.645C377.28 148.392 376.584 150.073 375.694 151.653C372.804 151.413 370.399 150.345 369.546 149.439Z" fill="#874438"/>
<path d="M372.642 140.749C372.642 140.749 373.434 115.329 360.133 107.22C363.428 107.042 366.705 107.81 369.58 109.432C372.456 111.055 374.81 113.465 376.368 116.38C382.259 126.693 381.867 135.537 381.714 140.493C381.56 145.449 372.642 140.749 372.642 140.749Z" fill="#504984"/>
<path d="M376.692 139.775C387.137 139.775 391.05 147.816 391.05 153.849C391.05 159.249 389.345 167.913 376.692 167.913C370.382 167.913 366.11 161.616 366.11 153.849C366.11 146.081 370.399 139.775 376.692 139.775Z" fill="#504984"/>
<path d="M371.064 153.849C371.064 146.944 375.609 141.356 381.211 141.356C386.813 141.356 391.05 146.944 391.05 153.849C391.05 160.753 386.787 166.332 381.211 166.332C375.634 166.332 371.064 160.744 371.064 153.849Z" fill="#372D5B"/>
<path d="M382.549 162.351C386.364 162.351 389.456 158.544 389.456 153.849C389.456 149.153 386.364 145.347 382.549 145.347C378.735 145.347 375.643 149.153 375.643 153.849C375.643 158.544 378.735 162.351 382.549 162.351Z" fill="#504984"/>
<path d="M350.217 167.913C347.394 169.468 338.177 169.99 337.546 169.904C336.915 169.819 338.211 176.825 340.471 177.09C342.73 177.355 347.241 176.74 349.125 174.928C351.01 173.117 350.217 167.913 350.217 167.913Z" fill="#D65863"/>
<path d="M349.628 169.955L349.185 168.349C346.081 169.409 339.968 169.861 338.1 169.904C338.262 170.872 338.534 171.818 338.91 172.724C338.97 172.724 338.91 172.818 338.953 172.775C340.83 173.072 342.749 172.974 344.586 172.489C346.424 172.003 348.141 171.141 349.628 169.955Z" fill="white"/>
<path d="M348.972 151.14C348.972 149.858 349.603 148.824 350.379 148.824C351.155 148.824 351.786 149.858 351.786 151.14C351.786 152.422 351.163 153.455 350.379 153.455C349.594 153.455 348.972 152.422 348.972 151.14Z" fill="#3F1751"/>
<path d="M332.882 152.268C332.882 150.986 333.428 149.944 334.093 149.944C334.758 149.944 335.304 150.986 335.304 152.268C335.304 153.549 334.767 154.583 334.093 154.583C333.419 154.583 332.882 153.498 332.882 152.268Z" fill="#3F1751"/>
<path d="M356.85 142.108C354.89 141.063 352.717 140.479 350.498 140.399C349.35 140.265 348.188 140.379 347.087 140.732C345.992 141.113 345.024 141.79 344.291 142.689L344.376 142.826C345.536 142.698 346.499 142.416 347.514 142.279C348.528 142.142 349.458 141.766 350.498 141.681C352.601 141.499 354.72 141.69 356.757 142.245L356.85 142.108Z" fill="#3F1751"/>
<path d="M328.807 145.099C329.308 144.906 329.833 144.78 330.367 144.723C330.885 144.659 331.406 144.625 331.927 144.62C332.441 144.696 332.962 144.714 333.479 144.672C333.75 144.627 334.016 144.556 334.272 144.458C334.575 144.36 334.862 144.219 335.125 144.039V143.877C334.678 143.427 334.103 143.128 333.479 143.022C332.897 142.986 332.314 143.082 331.774 143.304C331.207 143.445 330.658 143.648 330.137 143.911C329.616 144.172 329.141 144.515 328.73 144.928L328.807 145.099Z" fill="#3F1751"/>
<path d="M345.084 311.525C345.084 311.884 344.589 312.38 343.378 312.38H304.745C300.294 312.38 299.253 310.62 300.592 308.389C301.931 306.159 307.567 301.246 321.516 297.828C335.466 294.41 342.833 302.399 345.075 306.005C346.746 308.637 345.084 311.525 345.084 311.525Z" fill="#504984"/>
<path d="M300.268 309.073C301.035 311.636 330.503 310.295 330.503 310.295C330.503 310.295 327.51 306.253 324.211 306.142C320.911 306.031 319.299 307.176 314.874 307.937C310.449 308.697 313.723 306.134 313.723 306.134C313.723 306.134 310.594 305.433 309.323 304.425C309.323 304.425 316.622 302.263 319.683 301.759C322.744 301.255 330.537 301.588 331.535 301.759C332.251 301.878 335.841 299.785 340.189 300.836C342.122 302.228 343.782 303.966 345.084 305.963C346.746 308.603 345.084 311.466 345.084 311.466C345.084 311.824 344.589 312.32 343.378 312.32H304.745C300.754 312.397 299.518 310.978 300.268 309.073Z" fill="#372D5B"/>
<path d="M426.291 287.327C426.291 287.327 398.835 291.599 383.948 294.256C369.845 296.82 357.669 297.879 354.224 297.213C350.779 296.546 338.97 292.189 335.184 290.625C331.399 289.061 323.827 288.172 319.93 289.403C316.034 290.633 312.845 291.966 311.284 291.966C309.724 291.966 310.022 294.53 312.137 295.017C313.423 295.333 314.744 295.482 316.068 295.461C316.068 295.461 309.016 299.332 307.754 299.734C306.492 300.135 307.993 302.417 309.698 302.297C309.698 302.297 308.198 303.194 308.718 304.083C309.238 304.972 312.981 304.98 312.981 304.98C312.981 304.98 308.454 307.21 312.231 308.099C316.008 308.988 320.544 304.749 322.403 304.382C324.262 304.015 328.568 304.237 330.64 305.792C332.712 307.347 341.63 314.567 353.798 310.261C353.798 310.261 436.42 313.61 444.657 313.61C452.894 313.61 457.873 306.313 455.23 292.248C453.627 283.752 450.998 275.483 447.402 267.622L418.907 269.63L426.291 287.327Z" fill="#F6A397"/>
<path d="M322.539 293.257C323.099 293.111 323.669 293.01 324.245 292.958L322.539 293.257Z" fill="#D65863"/>
<path d="M316.034 295.461C314.71 295.482 313.389 295.333 312.103 295.017C311.58 294.888 311.114 294.587 310.781 294.162C313.092 295.188 315.897 294.538 317.492 294.162C318.472 293.932 320.902 293.487 322.539 293.197C320.307 293.753 318.13 294.511 316.034 295.461Z" fill="#D65863"/>
<path d="M316.4 298.811C316.539 298.743 316.681 298.683 316.827 298.631L316.4 298.811Z" fill="#D65863"/>
<path d="M307.737 301.357C307.737 301.357 308.59 302.101 310.295 301.357C311.719 300.733 315.19 299.306 316.4 298.794C314.883 299.486 310.756 301.81 309.664 302.212C309.299 302.228 308.935 302.159 308.601 302.011C308.267 301.863 307.971 301.639 307.737 301.357Z" fill="#D65863"/>
<path d="M312.001 304.091C313.263 303.715 315.897 302.118 317.509 301.357C318.676 300.863 319.919 300.574 321.184 300.503C320.402 300.668 319.65 300.956 318.958 301.357C317.347 302.152 312.921 304.912 312.921 304.912C311.707 304.915 310.498 304.76 309.323 304.45C310.227 304.444 311.127 304.323 312.001 304.091Z" fill="#D65863"/>
<path d="M335.491 305.911C337.828 307.364 344.734 309.261 348.852 308.475C350 308.298 351.076 307.805 351.96 307.05C352.844 306.296 353.501 305.31 353.858 304.202L355.051 307.954C355.051 307.954 412.35 309.594 424.006 309.073C435.525 308.552 453.49 308.287 455.835 301.383C455.196 309.432 450.847 313.568 444.64 313.568C436.403 313.568 353.781 310.218 353.781 310.218C341.613 314.49 332.703 307.313 330.623 305.749C328.917 304.45 325.635 304.083 323.52 304.202C326.632 303.075 333.155 304.459 335.491 305.911Z" fill="#D65863"/>
<path d="M426.291 287.327C426.291 287.327 437.026 285.865 439.183 285.618L437.546 278.927L423.963 281.678L426.291 287.327Z" fill="#D65863"/>
<path d="M454.983 268.588C455.18 269.1 455.223 269.659 455.106 270.195C454.989 270.731 454.718 271.221 454.326 271.604C449.338 276.483 442.79 283.131 436.054 284.156C428.704 285.276 416.443 285.72 415.786 284.156C415.129 282.593 412.674 262.735 408.214 252.695C403.755 242.654 400.873 237.519 399.756 231.717C398.639 225.915 408.666 212.303 413.117 211.21C417.568 210.116 427.808 209.424 432.046 213.218C436.284 217.012 439.387 231.512 444.29 242.449C448.238 251.251 453.209 263.999 454.983 268.588Z" fill="#5470D3"/>
<path d="M427.416 210.996C426.06 210.842 424.696 210.723 423.332 210.697C421.971 210.629 420.608 210.629 419.248 210.697C417.896 210.773 416.549 210.927 415.215 211.158C414.541 211.261 413.885 211.415 413.228 211.569C412.605 211.75 412.002 211.997 411.429 212.303C410.832 212.609 410.262 212.964 409.724 213.363C409.221 213.807 408.692 214.217 408.231 214.705C407.277 215.659 406.396 216.684 405.597 217.772C404.785 218.871 404.031 220.012 403.337 221.19C402.612 222.352 401.964 223.557 401.342 224.787C402.278 222.185 403.527 219.706 405.06 217.405C405.811 216.241 406.667 215.148 407.618 214.141C408.108 213.636 408.626 213.16 409.169 212.714C409.729 212.278 410.325 211.892 410.951 211.56C411.588 211.221 412.26 210.955 412.955 210.765C413.637 210.62 414.311 210.458 415.002 210.372C416.372 210.157 417.758 210.051 419.145 210.056C421.931 210.023 424.709 210.339 427.416 210.996Z" fill="#314EC6"/>
<path d="M449.423 272.698C449.423 269.135 441.869 236.451 435.235 218.234C438.057 224.454 440.692 234.4 444.29 242.432C448.238 251.251 453.209 263.999 454.983 268.588C455.18 269.1 455.223 269.659 455.106 270.195C454.989 270.731 454.718 271.221 454.326 271.604C452.416 273.475 450.276 275.603 447.982 277.586C448.153 277.406 449.457 276.03 449.423 272.698Z" fill="#314EC6"/>
<path d="M91.2564 235.878C91.1296 236.978 91.3503 238.09 91.8874 239.057C93.8385 242.623 94.8039 246.647 94.6841 250.712C94.6074 253.37 94.0617 256.095 94.7779 258.659C96.0313 263.076 100.687 265.811 102.187 270.16C103.509 274.005 102.281 278.85 105.035 281.841C105.341 282.245 105.759 282.549 106.237 282.715C106.715 282.881 107.232 282.901 107.721 282.772C108.177 282.544 108.574 282.214 108.881 281.807C112.044 278.209 115.429 273.826 114.457 269.126C113.536 264.709 109 261.726 108.139 257.3C107.431 253.686 109.282 249.507 107.21 246.465C106.638 245.611 105.828 244.979 105.197 244.175C102.742 241.014 103.654 235.972 100.815 233.136C99.8937 232.252 98.7347 231.658 97.4808 231.427C96.7768 231.278 96.0497 231.278 95.3455 231.426C94.6414 231.573 93.9755 231.866 93.3903 232.286C92.8051 232.705 92.3132 233.242 91.9459 233.862C91.5785 234.482 91.3437 235.171 91.2564 235.887V235.878Z" fill="#BA5E5B"/>
<path d="M109.265 291.983C109.452 289.625 109.537 287.267 109.623 284.908C109.52 282.55 109.392 280.2 109.188 277.842C108.983 275.483 108.727 273.134 108.335 270.792C107.955 268.445 107.299 266.15 106.383 263.957C104.677 259.633 103.296 255.113 101.906 250.635L99.8853 243.893C99.0326 241.689 98.2482 239.476 97.4637 237.254C97.8048 239.595 98.3164 241.894 98.8109 244.21L100.832 250.969C102.23 255.472 103.594 259.958 105.342 264.384C106.235 266.516 106.868 268.748 107.227 271.032C107.636 273.322 107.9 275.654 108.079 277.979C108.258 280.303 108.412 282.653 108.506 284.994L109.265 291.983Z" fill="#FFA6A4"/>
<path d="M96.8584 244.244C97.2418 244.8 97.7246 245.281 98.2823 245.662C98.557 245.833 98.8418 245.987 99.135 246.124C99.4458 246.268 99.7333 246.458 99.9876 246.688L100.098 246.782L100.192 246.636C100.414 246.294 100.687 245.978 100.9 245.628C101.113 245.278 101.326 244.927 101.514 244.568C101.882 243.824 102.138 243.03 102.273 242.21H102.205C101.635 242.809 101.16 243.492 100.798 244.235C100.619 244.603 100.474 244.987 100.32 245.363C100.167 245.739 100.081 246.158 99.945 246.542L100.15 246.491C99.8595 246.326 99.5952 246.118 99.3652 245.876C99.1453 245.621 98.9119 245.379 98.666 245.149C98.1371 244.73 97.536 244.412 96.8925 244.21L96.8584 244.244Z" fill="#FFA6A4"/>
<path d="M97.4296 252.293C97.8304 252.626 98.2823 252.985 98.683 253.293C99.1128 253.611 99.566 253.897 100.039 254.147C100.525 254.378 101.036 254.566 101.505 254.822C101.965 255.097 102.401 255.408 102.81 255.754L102.963 255.873L103.108 255.677C103.736 254.827 104.305 253.937 104.814 253.011C105.323 252.078 105.737 251.096 106.05 250.08H105.99C105.287 250.872 104.662 251.731 104.123 252.643C103.597 253.56 103.133 254.51 102.733 255.489L103.032 255.412C102.539 255.193 102.065 254.933 101.616 254.634C101.181 254.335 100.764 253.959 100.354 253.634C99.9193 253.31 99.4571 253.024 98.9729 252.78C98.4889 252.524 97.9727 252.334 97.4381 252.216L97.4296 252.293Z" fill="#FFA6A4"/>
<path d="M100.286 262.923C100.716 263.345 101.2 263.707 101.727 263.999C102.237 264.303 102.793 264.522 103.373 264.649C103.949 264.792 104.489 265.054 104.959 265.418C105.428 265.777 105.897 266.17 106.365 266.477L106.724 266.717L106.988 266.315C107.385 265.733 107.728 265.115 108.011 264.469C108.302 263.814 108.522 263.129 108.668 262.427L108.582 262.384C108.07 262.883 107.612 263.436 107.218 264.034C106.825 264.618 106.488 265.239 106.212 265.888L106.834 265.725C106.286 265.455 105.715 265.232 105.129 265.059C104.564 264.873 104.037 264.583 103.577 264.204C103.126 263.815 102.609 263.508 102.051 263.299C101.49 263.066 100.898 262.916 100.295 262.854L100.286 262.923Z" fill="#FFA6A4"/>
<path d="M112.999 292.445C114.841 292.137 121.73 289.933 121.244 288.13C119.181 280.397 117.117 271.621 124.263 267.836C127.673 266.016 132.022 265.093 133.983 261.726C135.944 258.36 134.512 253.839 132.704 250.259C130.896 246.679 128.714 242.842 129.49 238.903C130.3 234.776 134.196 231.734 134.819 227.581C135.671 221.899 130.163 217.328 124.877 215.106C123.086 214.354 121.108 213.713 119.215 214.166C117.879 214.55 116.69 215.331 115.804 216.405C112.087 220.566 112.24 226.838 113.084 232.358C113.929 237.878 115.233 243.697 113.161 248.875C111.686 252.558 108.531 256.018 109.375 259.889C109.716 261.444 110.68 262.794 111.081 264.341C112.078 268.502 108.625 272.253 107.039 276.227C106.075 278.821 105.867 281.636 106.439 284.345C107.011 287.053 108.34 289.542 110.271 291.522C110.631 291.889 111.073 292.165 111.561 292.325C112.049 292.486 112.569 292.527 113.076 292.445H112.999Z" fill="#E67471"/>
<path d="M112.351 292.53C112.777 289.463 113.204 286.412 113.75 283.387C113.877 282.627 114.039 281.875 114.159 281.114C114.278 280.354 114.338 279.594 114.466 278.842C114.696 277.321 114.952 275.817 115.233 274.313C115.779 271.316 116.551 268.365 117.544 265.486C118.019 264.079 118.667 262.735 119.471 261.487C119.839 260.912 120.31 260.411 120.861 260.009C121.575 259.552 122.204 258.974 122.719 258.3C123.689 256.894 124.16 255.203 124.058 253.498C123.991 251.906 123.76 250.325 123.367 248.781C122.66 245.748 121.773 242.8 121.278 239.826C120.692 236.892 120.753 233.865 121.458 230.957C121.696 230.256 121.892 229.547 122.114 228.838C122.35 228.132 122.635 227.444 122.967 226.778C123.682 225.428 124.539 224.159 125.525 222.993C124.285 223.953 123.181 225.077 122.242 226.334C121.779 226.963 121.362 227.626 120.997 228.316C120.606 229.017 120.319 229.771 120.144 230.555C119.38 233.66 119.307 236.895 119.931 240.031C120.443 243.133 121.347 246.107 122.037 249.072C122.404 250.521 122.624 252.004 122.694 253.498C122.784 254.893 122.409 256.279 121.628 257.437C121.211 257.989 120.7 258.463 120.119 258.838C119.417 259.336 118.815 259.962 118.345 260.684C117.48 262.019 116.779 263.453 116.256 264.956C115.24 267.908 114.451 270.933 113.894 274.005C113.605 275.526 113.343 277.053 113.11 278.585C113.008 279.354 112.863 280.115 112.769 280.884C112.675 281.653 112.658 282.43 112.615 283.208C112.411 286.344 112.3 289.437 112.351 292.53Z" fill="#FFA6A4"/>
<path d="M124.553 232.153C123.569 232.573 122.718 233.252 122.088 234.118C121.826 234.576 121.517 235.005 121.168 235.4C120.791 235.769 120.389 236.111 119.965 236.425H120.511C120.323 236.024 120.102 235.656 119.889 235.272C119.684 234.893 119.457 234.528 119.206 234.178C118.968 233.819 118.695 233.477 118.439 233.135C118.183 232.794 117.885 232.469 117.646 232.11H117.552C117.559 232.576 117.651 233.037 117.825 233.469C117.981 233.884 118.17 234.287 118.388 234.674C118.597 235.062 118.837 235.433 119.104 235.784C119.377 236.135 119.633 236.485 119.957 236.81L120.298 237.169L120.503 236.844C120.747 236.389 121.032 235.957 121.355 235.554C121.715 235.173 122.122 234.84 122.566 234.562C122.98 234.249 123.35 233.881 123.666 233.469C124.007 233.067 124.315 232.639 124.587 232.187L124.553 232.153Z" fill="#FFA6A4"/>
<path d="M117.876 243.868C118.104 244.383 118.39 244.871 118.729 245.32C119.048 245.771 119.402 246.197 119.786 246.594C120.179 246.97 120.639 247.294 121.065 247.645C121.482 247.999 121.857 248.4 122.182 248.841L122.293 248.978L122.438 248.858C122.951 248.454 123.433 248.011 123.879 247.534C124.288 247.064 124.732 246.611 125.115 246.115C125.499 245.619 125.874 245.115 126.215 244.594C126.556 244.073 126.88 243.526 127.239 243.013L127.187 242.936C126.616 243.245 126.093 243.637 125.636 244.099C125.175 244.536 124.742 245.001 124.339 245.491C123.939 245.978 123.598 246.508 123.223 247.012C122.847 247.516 122.549 248.115 122.208 248.55H122.464C122.039 248.205 121.658 247.809 121.33 247.371C121.014 246.927 120.724 246.448 120.392 246.021C120.059 245.594 119.65 245.226 119.258 244.842C118.858 244.46 118.431 244.109 117.979 243.791L117.876 243.868Z" fill="#FFA6A4"/>
<path d="M130.155 252.908C129.575 253.592 128.978 254.216 128.355 254.822C127.733 255.429 127.076 255.95 126.437 256.531C125.79 257.121 125.026 257.567 124.195 257.839C123.362 258.068 122.499 258.166 121.637 258.129L122.02 258.402C121.861 257.692 121.656 256.993 121.406 256.309C121.185 255.617 120.9 254.948 120.554 254.31C120.2 253.662 119.774 253.057 119.283 252.507C118.792 251.945 118.18 251.504 117.493 251.216V251.302C118.002 251.774 118.436 252.322 118.78 252.925C119.133 253.517 119.455 254.128 119.744 254.754L120.596 256.651C120.878 257.292 121.125 257.958 121.372 258.599L121.492 258.907H121.756C122.652 258.737 123.531 258.485 124.382 258.155C125.235 257.83 126.087 257.539 126.897 257.121C127.711 256.701 128.43 256.12 129.012 255.412C129.607 254.713 130.056 253.903 130.334 253.028L130.155 252.908Z" fill="#FFA6A4"/>
<path d="M113.545 259.829C113.277 260.511 113.155 261.242 113.187 261.974C113.209 262.708 113.344 263.435 113.587 264.128C113.866 264.804 114.239 265.437 114.696 266.007L115.975 267.716L116.069 267.836L116.222 267.725C116.941 267.258 117.687 266.836 118.456 266.46C119.215 266.059 119.991 265.708 120.775 265.375C121.56 265.042 122.327 264.7 123.129 264.401C123.93 264.102 124.749 263.811 125.576 263.495V263.41C123.792 263.377 122.022 263.735 120.392 264.461C119.583 264.831 118.804 265.265 118.064 265.76C117.332 266.27 116.644 266.841 116.009 267.469H116.248C115.76 266.97 115.359 266.392 115.063 265.76C114.794 265.132 114.569 264.487 114.389 263.828C113.969 262.528 113.723 261.178 113.656 259.812L113.545 259.829Z" fill="#FFA6A4"/>
<path d="M100.516 312.397H120.178C122.003 312.397 123.589 310.816 123.828 308.68L126.94 284.447C127.281 281.798 125.55 279.406 123.291 279.406H97.404C95.1445 279.406 93.4136 281.798 93.7547 284.447L96.8669 308.68C97.1397 310.816 98.6916 312.397 100.516 312.397Z" fill="#504984"/>
<path d="M97.404 279.406H110.637C108.378 279.406 106.647 281.798 106.988 284.447L110.1 308.68C110.373 310.816 111.925 312.397 113.749 312.397H100.516C98.6916 312.397 97.1056 310.816 96.8669 308.68L93.7547 284.447C93.4136 281.798 95.1445 279.406 97.404 279.406Z" fill="#372D5B"/>
<path d="M276.607 305.749H194.394C194.197 305.748 194.002 305.786 193.82 305.86C193.638 305.935 193.473 306.045 193.333 306.184C193.194 306.323 193.083 306.488 193.007 306.67C192.932 306.852 192.893 307.047 192.893 307.244V310.902C192.893 311.099 192.932 311.294 193.007 311.476C193.083 311.658 193.194 311.823 193.333 311.962C193.473 312.101 193.638 312.211 193.82 312.286C194.002 312.36 194.197 312.398 194.394 312.397H276.607V305.749Z" fill="#282142"/>
<path d="M297.778 310.346V311.833C297.776 311.986 297.714 312.131 297.605 312.238C297.497 312.345 297.351 312.405 297.198 312.405H276.488C276.335 312.407 276.183 312.377 276.041 312.319C275.899 312.261 275.771 312.176 275.662 312.068C275.553 311.96 275.467 311.832 275.408 311.69C275.35 311.548 275.319 311.397 275.319 311.243V306.928C275.318 306.763 275.352 306.6 275.419 306.449C275.485 306.299 275.583 306.164 275.706 306.054C275.828 305.944 275.973 305.862 276.13 305.812C276.287 305.762 276.452 305.747 276.615 305.766L297.258 309.774C297.4 309.788 297.531 309.855 297.627 309.96C297.723 310.066 297.777 310.203 297.778 310.346Z" fill="#504984"/>
<path d="M132.926 165.7H286.6C288.117 165.7 289.597 166.17 290.838 167.045C292.078 167.92 293.019 169.157 293.532 170.588L327.144 264.119C328.551 268.938 325.029 272.553 319.368 273.168C318.515 273.253 314.371 271.399 307.891 268.34H170.511C168.993 268.342 167.512 267.875 166.27 267.001C165.028 266.128 164.085 264.892 163.57 263.461L133.207 178.97L125.15 174.749C125.15 174.749 123.248 165.7 132.926 165.7Z" fill="#504984"/>
<path d="M281.782 170.519H128.117C127.611 170.52 127.113 170.642 126.664 170.876C126.215 171.11 125.829 171.448 125.538 171.863C125.247 172.277 125.06 172.756 124.992 173.258C124.925 173.761 124.979 174.272 125.15 174.749L158.761 268.28C159.274 269.711 160.215 270.948 161.456 271.823C162.696 272.698 164.176 273.168 165.693 273.168H319.368C319.873 273.167 320.372 273.045 320.82 272.812C321.269 272.578 321.655 272.239 321.946 271.825C322.237 271.41 322.424 270.931 322.492 270.429C322.56 269.927 322.506 269.415 322.335 268.938L288.723 175.407C288.209 173.976 287.266 172.738 286.024 171.863C284.782 170.988 283.301 170.519 281.782 170.519Z" fill="#372D5B"/>
<path d="M247.096 273.168L240.275 247.807L214.423 273.168H247.096Z" fill="#282142"/>
<path d="M209.682 203.366C210.355 207.553 213.093 209.236 216.29 209.236C217.036 209.267 217.779 209.129 218.464 208.834C219.15 208.539 219.761 208.093 220.252 207.53C220.743 206.966 221.101 206.3 221.301 205.579C221.501 204.858 221.537 204.102 221.406 203.366C221.136 201.78 220.333 200.335 219.132 199.269C217.93 198.203 216.401 197.58 214.798 197.504C214.053 197.475 213.312 197.613 212.628 197.909C211.944 198.204 211.334 198.649 210.844 199.211C210.353 199.773 209.994 200.438 209.793 201.156C209.592 201.875 209.554 202.63 209.682 203.366Z" fill="#504984"/>
<path d="M281.902 257.599L279.924 252.105H282.413L284.383 257.599H281.902Z" fill="#282142"/>
<path d="M276.675 257.599L274.697 252.105H277.178L279.156 257.599H276.675Z" fill="#282142"/>
<path d="M271.44 257.599L269.462 252.105H271.951L273.93 257.599H271.44Z" fill="#282142"/>
<path d="M266.213 257.599L264.235 252.105H266.716L268.694 257.599H266.213Z" fill="#282142"/>
<path d="M191.913 257.599L189.934 252.105H192.424L194.394 257.599H191.913Z" fill="#282142"/>
<path d="M186.686 257.599L184.708 252.105H187.189L189.167 257.599H186.686Z" fill="#282142"/>
<path d="M181.45 257.599L179.481 252.105H181.962L183.94 257.599H181.45Z" fill="#282142"/>
<path d="M176.224 257.599L174.245 252.105H176.727L178.705 257.599H176.224Z" fill="#282142"/>
<path d="M195.204 303.365C196.722 298.99 215.105 239.527 215.105 239.527H238.715L240.275 247.807C240.275 247.807 224.45 298.99 222.932 303.348C222.813 303.684 222.702 304.017 222.6 304.348C221.218 308.62 224.876 308.62 228.995 308.62H270.638V312.397H201.266C192.927 312.397 193.686 307.731 195.204 303.365Z" fill="#372D5B"/>
<path d="M238.715 239.527C238.715 239.527 220.332 298.99 218.805 303.365C217.279 307.74 216.529 312.397 224.876 312.397H197.148C188.809 312.397 189.568 307.731 191.077 303.365C192.586 298.999 210.952 239.527 210.952 239.527H238.715Z" fill="#504984"/>
<path d="M232.934 239.527C231.101 239.442 229.276 239.399 227.443 239.339C225.61 239.279 223.785 239.262 221.96 239.228C220.135 239.194 218.302 239.143 216.469 239.143H210.986H210.679L210.586 239.442C209.818 241.834 209.068 244.227 208.352 246.636L206.16 253.857C204.754 258.684 203.347 263.512 202.059 268.383C203.764 263.649 205.316 258.864 206.885 254.087L209.162 246.901C209.929 244.509 210.662 242.099 211.387 239.698L210.986 239.989H216.469C218.302 239.989 220.127 239.937 221.96 239.912C223.793 239.886 225.618 239.852 227.443 239.792C229.267 239.732 231.101 239.613 232.934 239.527Z" fill="#7F74D1"/>
<path d="M72.1228 327H479.13C481.061 327 482.913 326.231 484.279 324.863C485.644 323.494 486.411 321.638 486.411 319.703C486.413 318.744 486.225 317.794 485.86 316.907C485.494 316.021 484.958 315.216 484.282 314.537C483.605 313.859 482.802 313.32 481.918 312.953C481.034 312.586 480.087 312.397 479.13 312.397H72.1228C70.1893 312.397 68.335 313.167 66.9678 314.537C65.6006 315.907 64.8326 317.765 64.8326 319.703C64.8348 321.639 65.6039 323.495 66.9708 324.863C68.3378 326.231 70.1908 327 72.1228 327Z" fill="#8E5058"/>
<path d="M72.1228 327H479.13C481.061 327 482.913 326.231 484.279 324.863C485.644 323.494 486.411 321.638 486.411 319.703H64.8326C64.8348 321.639 65.6039 323.495 66.9708 324.863C68.3378 326.231 70.1908 327 72.1228 327Z" fill="#64364A"/>
<path d="M156.5 95.3446C164.209 62.3294 143.751 29.3025 110.806 21.5771C77.8612 13.8517 44.9047 34.3531 37.1957 67.3684C29.4868 100.384 49.9446 133.411 82.8895 141.136C115.834 148.861 148.791 128.36 156.5 95.3446Z" fill="#5470D3"/>
<path d="M183.002 130.368C184.162 136.221 178.739 141.433 177.034 142.407C175.328 143.381 163.962 147.936 157.133 148.098C150.303 148.26 141.29 133.786 144.982 132.154C148.674 130.521 173.802 128.736 176.531 128.736C179.259 128.736 183.002 130.368 183.002 130.368Z" fill="#FFC5C7"/>
<path d="M165.088 127.274C162.104 144.851 155.027 158.514 152.818 158.762C150.61 159.01 129.379 151.678 123.529 148.995C117.68 146.312 125.32 105.066 128.961 105.793C132.602 106.519 140.591 114.44 147.182 118.243C153.773 122.045 165.088 127.274 165.088 127.274Z" fill="white"/>
<path d="M130.12 134.58C132.167 138.101 149.041 147.013 158.326 150.26C156.033 155.447 153.867 158.642 152.818 158.762C150.925 158.967 135.091 153.635 126.906 150.405C127.636 145.066 128.71 139.78 130.12 134.58Z" fill="#DCEDFF"/>
<path d="M183.028 129.556C183.19 136.52 176.923 137.528 169.428 135.734C161.933 133.939 149.672 117.021 144.223 109.373C138.775 101.725 128.594 88.1051 126.539 86.8832C124.484 85.6613 119.607 85.0119 115.455 78.1334C111.302 71.2548 116.759 56.8569 118.712 55.1479C120.665 53.439 137.36 59.1298 139.329 62.035C141.299 64.9402 137.948 80.4148 138.536 82.363C139.125 84.3112 153.355 100.264 159.563 104.169C165.77 108.074 182.9 124.506 183.028 129.556Z" fill="#FFC5C7"/>
<path d="M127.256 66.6578C125.286 65.6837 124.808 61.249 126.045 62.0265C127.281 62.8041 129.455 62.7956 132.38 62.7528C133.761 62.7689 135.141 62.6717 136.507 62.4623C136.676 63.6225 136.764 64.7931 136.771 65.9657C136.771 65.9657 129.217 67.6746 127.256 66.6578Z" fill="#FE8A8B"/>
<path d="M114.236 67.6745C115.429 65.4529 116.35 63.7695 116.35 63.7695L127.844 74.8777C130.068 72.9959 132.403 71.2497 134.836 69.6483L135.85 71.4598C133.992 74.6128 132.372 81.2863 132.329 82.9098C132.329 82.9098 130.564 84.8666 129.583 85.0289C129.583 85.0289 141.887 104.554 149.791 114.158C157.695 123.762 163.042 131.948 166.742 134.606C159.264 130.282 149.067 116.192 144.223 109.399C138.775 101.708 128.594 88.1307 126.497 86.9088C124.399 85.6869 119.565 85.0375 115.412 78.1589C113.801 75.4075 113.681 71.5026 114.236 67.6745Z" fill="#FE8A8B"/>
<path d="M138.17 68.7768C138.033 69.9133 126.608 79.8851 125.38 80.9788C125.294 81.0642 124.399 81.201 124.152 80.9788C121.116 78.3043 107.849 54.1567 107.61 53.2852C107.372 52.4136 116.197 44.1679 118.891 41.9463C119.239 41.8174 119.613 41.7726 119.982 41.8157C120.351 41.8588 120.705 41.9884 121.014 42.1941C123.751 46.2186 138.349 67.3071 138.17 68.7768Z" fill="#0C0835"/>
<path d="M136.942 68.7768C136.805 69.9133 125.38 79.885 124.152 80.9788C122.924 82.0725 106.638 54.2251 106.383 53.2851C106.161 52.4307 115.966 44.3046 118.661 42.0829C118.739 42.0093 118.832 41.9533 118.933 41.9187C119.034 41.884 119.142 41.8715 119.249 41.882C119.355 41.8926 119.459 41.9258 119.551 41.9797C119.644 42.0335 119.724 42.1066 119.786 42.194C122.523 46.2186 137.121 67.3071 136.942 68.7768Z" fill="#252384"/>
<path d="M135.015 67.1447C134.887 68.2128 124.195 77.501 123.078 78.5605C121.961 79.6201 106.689 53.5329 106.451 52.6528C106.212 51.7727 115.421 44.2447 117.936 42.1683C118.01 42.1 118.098 42.0482 118.193 42.0164C118.289 41.9847 118.39 41.9737 118.49 41.9842C118.59 41.9947 118.686 42.0265 118.773 42.0774C118.86 42.1283 118.935 42.1972 118.993 42.2794C121.526 46.0477 135.185 65.769 135.015 67.1447Z" fill="#57AFF7"/>
<path d="M128.168 53.5329C126.394 52.4648 124.22 48.8504 124.024 47.6285C123.828 46.4066 123.956 45.3043 124.877 45.0651C125.798 44.8258 128.756 48.6453 130.223 49.7818C131.689 50.9182 133.454 53.2766 132.73 54.9087C132.005 56.5407 128.765 55.8828 128.415 55.6435C128.066 55.4043 128.168 53.5329 128.168 53.5329Z" fill="#FFC5C7"/>
<path d="M124.357 45.3812C123.794 46.774 127.452 52.3367 130.658 53.926L129.464 55.2932L128.228 55.0026C128.17 54.5093 128.15 54.0122 128.168 53.5158C126.394 52.4478 124.22 48.8333 124.024 47.6114C123.92 47.2372 123.895 46.845 123.953 46.4607C124.01 46.0764 124.148 45.7086 124.357 45.3812Z" fill="#FE8A8B"/>
<path d="M132.278 59.1298C129.234 57.4978 126.846 57.6772 125.192 57.0107C123.538 56.3442 123.231 53.7723 124.339 53.345C125.448 52.9178 132.32 54.0201 134.094 54.8147C135.867 55.6094 136.703 59.258 136.703 59.258L132.278 59.1298Z" fill="#FFC5C7"/>
<path d="M130.948 57.2585C132.653 57.5832 133.258 57.2585 133.258 57.2585C133.258 57.9335 133.847 58.2668 134.563 59.2324L132.278 59.164C129.234 57.5319 126.846 57.7114 125.192 57.0449C124.843 56.8879 124.535 56.6518 124.292 56.3553C124.05 56.0587 123.879 55.7098 123.794 55.3359C124.527 56.7287 129.234 56.9338 130.948 57.2585Z" fill="#FE8A8B"/>
<path d="M139.329 62.035C137.701 64.2822 129.737 63.3081 128.125 63.0603C126.514 62.8125 125.516 61.8042 125.678 60.7789C126.011 58.711 136.532 59.0699 137.402 59.4032C138.272 59.7364 139.329 62.035 139.329 62.035Z" fill="#FFC5C7"/>
<path d="M125.687 61.2745C126.77 62.3597 129.387 62.9835 132.244 63.2057C133.646 63.3484 135.058 63.3741 136.464 63.2826C133.67 63.5677 130.85 63.4931 128.074 63.0604C127.543 63.0389 127.03 62.8568 126.604 62.5381C126.178 62.2194 125.858 61.7789 125.687 61.2745Z" fill="#FE8A8B"/>
<path d="M102.017 93.5909C118.925 102.213 121.705 101.879 128.961 105.793C136.217 109.706 134.077 150.867 133.608 157.215C133.139 163.564 131.391 188.78 132.363 195.616C133.335 202.451 137.087 227.829 138.749 231.734C140.412 235.639 143.584 242.227 138.673 246.132C133.761 250.037 123.376 252.729 100.815 251.259C78.2534 249.789 53.9186 235.879 52.8613 233.93C51.804 231.982 63.6474 196.103 64.1419 189.267C64.5721 184.16 65.4278 179.098 66.6999 174.134C67.4161 170.964 60.2368 156.07 59.0942 146.551C57.9516 137.033 47.626 110.774 49.5871 105.972C51.5482 101.17 69.5137 95.7955 81.7578 89.6859C94.002 83.5764 102.017 93.5909 102.017 93.5909Z" fill="white"/>
<path d="M118.78 104.263C115.957 113.494 110.377 121.636 102.793 127.591C93.6353 125.343 84.3243 121.302 76.8209 115.568C85.1565 121.831 94.3449 126.864 104.106 130.513C112.207 123.999 117.468 114.588 118.78 104.263Z" fill="#DCEDFF"/>
<path d="M115.327 99.9055C112.087 98.5127 107.909 96.5986 102.017 93.5909C102.017 93.5909 93.9934 83.5679 81.7578 89.6859C77.4945 91.805 72.5747 93.8387 67.851 95.7869C75.2412 108.33 86.8493 117.824 100.593 122.566C107.794 116.784 112.958 108.843 115.327 99.9055Z" fill="#FFC5C7"/>
<path d="M52.8613 233.93C51.7869 231.982 63.6474 196.103 64.1419 189.267C64.5721 184.16 65.4278 179.098 66.6999 174.134C67.4161 170.964 60.2368 156.07 59.0942 146.551C58.786 144.432 58.3446 142.335 57.7726 140.271L65.3953 134.58C69.8718 147.081 72.66 169.041 76.8977 174.416C81.1354 179.791 91.6913 181.978 91.6913 181.978C91.6913 181.978 81.2633 184.422 76.7186 183.448C76.7186 183.448 71.8585 202.725 71.8073 212.244C71.7562 221.763 72.66 236.169 72.7452 238.117C72.7879 238.844 72.6259 241.381 72.4127 244.287C61.4817 239.946 53.4667 235.033 52.8613 233.93Z" fill="#DCEDFF"/>
<path d="M83.6763 72.34C83.4972 82.5253 82.8236 89.5235 80.5811 91.4803C80.5811 91.4803 84.4522 108.382 99.9109 106.938C105.146 106.451 104.643 97.6581 102.017 93.5908L103.577 81.0984L83.6763 72.34Z" fill="#FFC5C7"/>
<path d="M81.7578 89.6858C83.0794 86.5584 83.5313 80.4746 83.6763 72.34L103.577 81.0984L102.58 89.1133C99.0497 90.6941 81.7578 89.6858 81.7578 89.6858Z" fill="#FE8A8B"/>
<path d="M28.8761 154.712C25.4655 159.437 20.8611 171.152 22.5835 176.518C24.3058 181.884 42.0496 205.809 50.1669 214.756C58.2842 223.702 60.1259 225.172 61.5414 228.094C62.9568 231.017 69.8633 243.107 71.6794 244.936C73.4956 246.765 76.7954 247.012 76.7954 247.012C77.7434 247.888 78.8749 248.539 80.1068 248.919C81.3388 249.299 82.64 249.398 83.9151 249.208C83.9151 249.208 87.9993 252.02 91.2309 252.746C91.2309 252.746 92.2967 254.822 93.3795 255.002C94.4624 255.181 95.8437 252.994 93.8485 248.602C91.8533 244.21 88.5791 242.373 88.0504 239.57C87.5218 236.767 84.9894 231.025 84.9894 231.025C84.9894 231.025 90.6766 236.878 94.181 237.246C97.6855 237.613 98.163 235.537 96.236 233.828C93.71 231.57 91.45 229.03 89.5 226.257C88.4364 224.591 87.0193 223.18 85.3494 222.126C83.6796 221.071 81.7982 220.399 79.8394 220.156C75.38 219.549 72.2422 219.062 71.0911 218.208C69.94 217.353 64.0993 209.056 60.1174 200.102C56.1355 191.147 52.5544 179.722 42.4248 169.674L46.8927 161.864L28.8761 154.712Z" fill="#FFC5C7"/>
<path d="M91.0603 252.19C90.1189 249.767 88.6878 247.565 86.8567 245.722L86.1661 245.038C85.9614 244.833 85.6033 244.56 85.518 244.44C85.1685 243.987 84.87 243.406 84.5375 242.877C83.8895 241.774 83.267 240.655 82.5508 239.578C82.9025 240.831 83.3383 242.059 83.8554 243.253C84.1067 243.868 84.412 244.46 84.7677 245.021C84.9865 245.28 85.223 245.522 85.4754 245.748L86.132 246.423C86.9846 247.328 87.8373 248.277 88.6899 249.217C89.5426 250.157 90.2844 251.157 91.0603 252.19Z" fill="#FE8A8B"/>
<path d="M83.7019 248.362C83.0283 247.055 82.2353 245.91 81.5276 244.714C80.8199 243.518 80.1207 242.347 79.4471 241.048C79.4301 242.547 79.8607 244.017 80.6835 245.269C81.4439 246.515 82.4758 247.573 83.7019 248.362Z" fill="#FE8A8B"/>
<path d="M80.1378 248.884C78.8625 248.556 77.6897 247.912 76.7271 247.012C76.7271 247.012 73.4529 246.773 71.6112 244.936C70.1043 243.025 68.7474 240.999 67.5526 238.878C67.5526 238.92 69.633 241.142 71.0996 242.979C71.6897 243.713 72.4762 244.264 73.3671 244.566C74.2579 244.869 75.2164 244.911 76.1303 244.688L75.7295 242.304C75.7295 242.304 77.7759 247.73 80.1378 248.884Z" fill="#FE8A8B"/>
<path d="M22.5152 170.554C22.609 172.775 22.6346 174.553 25.9259 180.397C29.6349 186.968 51.9319 214.687 56.792 219.806C61.6522 224.924 61.5158 225.257 64.3892 233.358C63.0932 231.068 62.0103 229.085 61.5413 228.094C60.1259 225.172 58.2842 223.702 50.1669 214.756C42.0496 205.809 24.3058 181.884 22.5835 176.518C22.1091 174.561 22.0858 172.521 22.5152 170.554Z" fill="#FE8A8B"/>
<path d="M39.9777 164.145L38.17 167.17C39.7721 167.651 41.2346 168.513 42.4333 169.682L45.9633 163.701L39.9777 164.145Z" fill="#FE8A8B"/>
<path d="M61.3452 147.602C66.0007 138.425 67.868 123.532 63.6644 115.688C59.4608 107.844 51.5056 105.024 49.5871 105.972C47.6686 106.921 42.3651 119.14 37.4197 124.771C32.4743 130.402 18.9597 146.287 18.5504 147.602C18.1411 148.918 28.3133 159.693 47.4554 167.597C49.732 168.503 61.3452 147.602 61.3452 147.602Z" fill="white"/>
<path d="M47.1485 154.712L44.096 160.992C44.096 160.992 59.1368 145.876 65.4124 134.606C64.7263 139.117 63.3638 143.499 61.3708 147.602C61.3708 147.602 49.7576 168.537 47.481 167.597C44.2068 166.247 41.214 164.803 38.477 163.325L47.1485 154.712Z" fill="#DCEDFF"/>
<path d="M104.728 73.2543C103.688 69.0588 103.714 64.7608 103.466 60.4371C103.279 57.2243 103.117 54.2849 100.209 52.3709C98.0182 51.0624 95.4341 50.5777 92.9191 51.0037C86.2002 51.8582 84.7507 58.4206 85.2452 64.6326C85.6374 69.3921 87.4877 73.955 89.3294 78.3043C86.8567 78.1932 83.4802 76.8944 82.0051 74.8351C82.6061 77.5299 83.9538 80 85.8932 81.9614C78.7309 81.8333 72.0802 77.1422 68.2858 70.8532C64.4915 64.5643 63.2978 56.8483 63.6986 49.4229C64.1761 40.6133 66.9216 31.7865 72.353 25.002C83.2841 11.3303 104.353 9.77518 117.186 21.4986C121.628 25.6257 124.819 30.9237 126.394 36.7852C128.399 44.5598 128.542 52.6991 126.812 60.5397C126.197 63.5933 125.762 66.6804 125.508 69.7851C125.405 70.7849 124.195 82.4143 124.894 82.3716C120.366 82.645 115.173 81.7307 112.104 78.2615C113.477 80.6455 114.662 82.9355 116.035 85.3195C110.339 84.4052 106.161 79.0733 104.728 73.2543Z" fill="#372D5B"/>
<path d="M81.2547 57.4208C79.2339 56.2245 76.8039 55.5751 74.928 57.4806C72.1654 60.2833 76.0876 73.3397 82.0477 70.1696C82.0477 70.1696 90.6681 82.2519 96.9948 85.6698C103.321 89.0877 107.832 87.3788 110.194 84.935C112.556 82.4912 120.647 72.4852 122.131 61.8641C122.643 58.0787 122.088 50.6362 122.208 49.0469C122.557 44.1678 124.408 40.1603 120.562 36.3323C116.62 32.4345 111.37 30.1495 105.837 29.9237C102.379 29.8478 98.9464 30.5277 95.7775 31.9163C92.6086 33.3049 89.7797 35.3688 87.4876 37.9643C82.4229 43.6893 81.5446 50.1577 81.2547 57.4208Z" fill="#FFC5C7"/>
<path d="M75.9086 61.0439C76.4202 58.6513 78.4666 58.1728 79.9758 59.8476C81.485 61.5224 81.7834 66.9654 81.3912 67.76C80.999 68.5547 78.3216 68.5034 77.8186 66.8457C77.3155 65.1881 78.8673 64.1627 80.3765 64.6497C80.3765 64.6497 80.7943 62.2401 79.575 60.685C78.3557 59.1298 77.0682 59.728 76.7613 60.1296C76.4929 60.4488 76.2083 60.7539 75.9086 61.0439Z" fill="#FE8A8B"/>
<path d="M92.4331 50.4568C93.0123 49.9186 93.6215 49.4136 94.2578 48.9444C94.9079 48.474 95.5985 48.0622 96.3212 47.714C97.0339 47.3228 97.8107 47.0623 98.6148 46.945C99.4042 46.8532 100.204 46.9589 100.943 47.2526V47.3636C100.574 47.504 100.199 47.6238 99.8171 47.7225L98.7513 48.0216C98.0521 48.2267 97.3273 48.295 96.6196 48.5257C95.9074 48.7623 95.2122 49.0478 94.5391 49.3802C93.8485 49.722 93.1834 50.1151 92.5098 50.5167L92.4331 50.4568Z" fill="#3F1751"/>
<path d="M119.326 47.714C118.676 47.3709 117.981 47.1207 117.262 46.9706C116.548 46.8106 115.82 46.7218 115.088 46.7057C114.346 46.7057 113.613 46.8424 112.888 46.8339C112.129 46.8588 111.369 46.8416 110.612 46.7826V46.6801C111.29 46.2054 112.064 45.8873 112.88 45.7487C113.669 45.64 114.471 45.6689 115.25 45.8341C116.017 45.9432 116.767 46.1469 117.484 46.4408C118.189 46.7303 118.842 47.1313 119.42 47.6285L119.326 47.714Z" fill="#3F1751"/>
<path d="M99.621 54.7463C99.621 53.7124 99.0753 52.9263 98.4614 52.9861C97.8475 53.0459 97.37 53.9346 97.3955 54.9685C97.4211 56.0024 97.9412 56.7885 98.5551 56.7287C99.1691 56.6689 99.6466 55.7803 99.621 54.7463Z" fill="#3F1751"/>
<path d="M115.881 53.4475C115.881 52.4136 115.429 51.6104 114.926 51.6616C114.423 51.7129 114.074 52.593 114.074 53.6184C114.074 54.6438 114.525 55.4555 115.028 55.4042C115.532 55.353 115.915 54.4729 115.881 53.4475Z" fill="#3F1751"/>
<path d="M104.711 64.7778C105.463 65.2595 106.338 65.5113 107.23 65.5022C108.122 65.4931 108.992 65.2235 109.733 64.7266C109.693 65.1207 109.553 65.498 109.326 65.8225C109.099 66.147 108.793 66.4081 108.437 66.5808C107.672 66.8479 106.833 66.8019 106.101 66.4526C105.393 66.1279 105.163 65.4101 104.711 64.7778Z" fill="#FE8A8B"/>
<path d="M99.0668 70.8362C103.823 70.7618 108.573 70.4452 113.298 69.8877C112.249 73.3056 109.495 76.7235 105.624 76.7235C102.187 76.7406 99.8938 73.8952 99.0668 70.8362Z" fill="#C31F2A"/>
<path d="M102.187 75.6127C103.259 75.3156 104.39 75.3156 105.462 75.6127C106.12 75.2226 106.856 74.9816 107.618 74.9063C108.379 74.831 109.148 74.9234 109.87 75.1769C108.692 76.1855 107.198 76.748 105.649 76.7662C104.402 76.765 103.187 76.3604 102.187 75.6127Z" fill="#FB8384"/>
<path d="M110.987 72.8015C107.558 73.7968 103.901 73.656 100.559 72.3999C100.559 71.8872 100.525 71.3745 100.457 70.8618C103.816 70.7934 109.256 70.3833 112.164 70.0586C111.915 71.0281 111.518 71.9533 110.987 72.8015Z" fill="white"/>
<path d="M84.6483 46.1759C90.2031 45.9422 95.673 44.7273 100.806 42.5871C101.787 40.3227 101.812 38.3147 101.957 35.8623C103.363 38.4283 104.173 41.2789 104.328 44.202C107.551 43.9884 110.791 43.8175 114.022 43.6125C114.83 41.0554 115.12 38.3623 114.875 35.6915C115.908 38.4411 116.582 41.3132 116.879 44.2362C118.831 43.5441 121.295 44.5524 123.333 44.9198C125.891 39.2888 125.687 29.0949 120.358 24.8225C115.165 20.6612 106.135 19.5333 99.7915 20.4561C86.2854 22.4129 75.6698 33.6493 76.5054 47.6541C76.9829 55.635 80.9819 63.1885 86.7373 68.7597C83.3465 61.7305 82.6046 53.71 84.6483 46.1759Z" fill="#372D5B"/>
<path d="M253.336 93.5696C258.254 74.4445 246.771 54.9447 227.687 50.0155C208.602 45.0864 189.144 56.5945 184.225 75.7196C179.307 94.8447 190.79 114.345 209.875 119.274C228.959 124.203 248.417 112.695 253.336 93.5696Z" fill="#E67471"/>
<path d="M201.343 99.4269H236.489C238.105 99.4269 239.414 98.1147 239.414 96.496V74.4078C239.414 72.7891 238.105 71.4769 236.489 71.4769H201.343C199.728 71.4769 198.418 72.7891 198.418 74.4078V96.496C198.418 98.1147 199.728 99.4269 201.343 99.4269Z" fill="#DBE9FF"/>
<path d="M201.334 99.4268H236.532C236.916 99.4268 237.296 99.351 237.651 99.2038C238.006 99.0565 238.328 98.8406 238.6 98.5684C238.872 98.2963 239.087 97.9732 239.234 97.6176C239.381 97.262 239.457 96.8809 239.457 96.496L218.993 83.5848L198.529 96.496C198.526 97.2536 198.817 97.9828 199.341 98.5295C199.864 99.0763 200.579 99.3981 201.334 99.4268Z" fill="#CDDCF4"/>
<path d="M201.334 71.4769H236.532C237.306 71.4769 238.049 71.7845 238.597 72.3323C239.145 72.8801 239.454 73.6234 239.457 74.3992L218.993 87.319L198.529 74.3992C198.529 73.6431 198.821 72.9161 199.344 72.3712C199.867 71.8262 200.58 71.5057 201.334 71.4769Z" fill="#5470D3"/>
<path d="M479.527 171.652C498.694 167.203 510.634 148.025 506.195 128.817C501.756 109.609 482.619 97.644 463.452 102.093C444.284 106.541 432.345 125.719 436.784 144.927C441.223 164.135 460.36 176.1 479.527 171.652Z" fill="#E67471"/>
<path d="M481.483 129.846H477.902C477.584 128.451 477.034 127.119 476.273 125.907L478.831 123.344C478.918 123.264 478.987 123.167 479.034 123.059C479.082 122.95 479.106 122.834 479.106 122.716C479.106 122.598 479.082 122.481 479.034 122.373C478.987 122.265 478.918 122.168 478.831 122.088L476.018 119.268C475.938 119.181 475.841 119.112 475.733 119.065C475.625 119.017 475.509 118.993 475.391 118.993C475.273 118.993 475.157 119.017 475.049 119.065C474.941 119.112 474.844 119.181 474.764 119.268L472.206 121.831C470.997 121.07 469.668 120.518 468.276 120.199V116.61C468.276 116.384 468.186 116.166 468.026 116.006C467.866 115.846 467.649 115.756 467.423 115.756H463.441C463.215 115.756 462.998 115.846 462.838 116.006C462.678 116.166 462.588 116.384 462.588 116.61V120.199C461.199 120.519 459.873 121.071 458.666 121.831L456.108 119.268C456.028 119.181 455.931 119.112 455.824 119.065C455.716 119.017 455.599 118.993 455.481 118.993C455.364 118.993 455.247 119.017 455.139 119.065C455.031 119.112 454.935 119.181 454.855 119.268L452.032 122.088C451.868 122.255 451.777 122.481 451.777 122.716C451.777 122.951 451.868 123.176 452.032 123.344L454.59 125.907C453.83 127.119 453.28 128.451 452.962 129.846H449.372C449.146 129.846 448.929 129.936 448.769 130.097C448.609 130.257 448.52 130.474 448.52 130.701V134.691C448.52 134.918 448.609 135.135 448.769 135.295C448.929 135.456 449.146 135.546 449.372 135.546H452.962C453.281 136.938 453.832 138.267 454.59 139.476L452.032 142.04C451.868 142.207 451.777 142.433 451.777 142.668C451.777 142.903 451.868 143.128 452.032 143.296L454.855 146.124C455.022 146.289 455.247 146.381 455.481 146.381C455.716 146.381 455.941 146.289 456.108 146.124L458.666 143.561C459.873 144.321 461.199 144.873 462.588 145.193V148.85C462.588 149.077 462.678 149.294 462.838 149.454C462.998 149.614 463.215 149.704 463.441 149.704H467.423C467.649 149.704 467.866 149.614 468.026 149.454C468.186 149.294 468.276 149.077 468.276 148.85V145.261C469.668 144.943 470.997 144.391 472.206 143.629L474.764 146.192C474.932 146.357 475.157 146.449 475.391 146.449C475.625 146.449 475.85 146.357 476.018 146.192L478.831 143.364C478.918 143.284 478.987 143.187 479.034 143.079C479.082 142.971 479.106 142.854 479.106 142.736C479.106 142.618 479.082 142.501 479.034 142.393C478.987 142.285 478.918 142.188 478.831 142.108L476.273 139.545C477.032 138.335 477.583 137.006 477.902 135.614H481.483C481.709 135.614 481.926 135.524 482.086 135.364C482.246 135.204 482.336 134.986 482.336 134.76V130.735C482.34 130.62 482.322 130.505 482.281 130.397C482.24 130.29 482.178 130.192 482.099 130.109C482.019 130.026 481.923 129.96 481.818 129.914C481.712 129.869 481.598 129.846 481.483 129.846ZM465.402 138.237C464.314 138.239 463.25 137.917 462.344 137.313C461.439 136.708 460.733 135.848 460.315 134.841C459.897 133.834 459.787 132.726 459.999 131.656C460.21 130.586 460.733 129.603 461.502 128.832C462.271 128.06 463.25 127.534 464.318 127.321C465.385 127.108 466.491 127.216 467.496 127.633C468.502 128.05 469.361 128.757 469.966 129.663C470.57 130.57 470.893 131.636 470.893 132.726C470.893 134.186 470.315 135.587 469.285 136.62C468.256 137.653 466.859 138.235 465.402 138.237Z" fill="#DBE9FF"/>
<path d="M465.402 125.061C463.884 125.061 462.401 125.512 461.139 126.357C459.877 127.202 458.893 128.403 458.312 129.809C457.732 131.214 457.58 132.76 457.876 134.252C458.172 135.744 458.903 137.114 459.976 138.189C461.049 139.265 462.416 139.997 463.905 140.294C465.394 140.591 466.937 140.439 468.339 139.856C469.741 139.274 470.94 138.289 471.783 137.024C472.626 135.759 473.076 134.273 473.076 132.752C473.076 130.712 472.268 128.756 470.828 127.314C469.389 125.871 467.437 125.061 465.402 125.061ZM465.402 137.408C464.478 137.408 463.575 137.134 462.806 136.619C462.038 136.105 461.439 135.373 461.085 134.518C460.732 133.662 460.639 132.721 460.819 131.812C461 130.904 461.445 130.07 462.098 129.415C462.752 128.76 463.584 128.314 464.491 128.133C465.397 127.953 466.336 128.045 467.19 128.4C468.044 128.754 468.774 129.354 469.287 130.124C469.801 130.895 470.075 131.8 470.075 132.726C470.075 133.968 469.582 135.159 468.706 136.037C467.83 136.915 466.641 137.408 465.402 137.408Z" fill="#5470D3"/>
<path d="M496.78 145.569H494.955C494.785 144.856 494.497 144.177 494.102 143.561L495.398 142.262C495.44 142.22 495.474 142.17 495.497 142.115C495.519 142.06 495.531 142.001 495.531 141.941C495.531 141.882 495.519 141.823 495.497 141.768C495.474 141.713 495.44 141.663 495.398 141.621L493.957 140.177C493.915 140.135 493.866 140.101 493.811 140.079C493.756 140.056 493.697 140.044 493.638 140.044C493.578 140.044 493.52 140.056 493.465 140.079C493.41 140.101 493.36 140.135 493.318 140.177L492.022 141.476C491.407 141.08 490.729 140.791 490.018 140.621V138.793C490.018 138.673 489.971 138.557 489.886 138.472C489.801 138.388 489.686 138.34 489.566 138.34H487.528C487.409 138.34 487.294 138.388 487.209 138.472C487.124 138.557 487.077 138.673 487.077 138.793V140.621C486.366 140.793 485.689 141.082 485.073 141.476L483.802 140.177C483.76 140.135 483.711 140.101 483.656 140.079C483.601 140.056 483.542 140.044 483.483 140.044C483.423 140.044 483.364 140.056 483.31 140.079C483.255 140.101 483.205 140.135 483.163 140.177L481.722 141.621C481.639 141.707 481.593 141.822 481.593 141.941C481.593 142.061 481.639 142.176 481.722 142.262L483.018 143.561C482.62 144.175 482.331 144.855 482.165 145.569H480.392C480.272 145.569 480.157 145.616 480.072 145.701C479.988 145.786 479.94 145.901 479.94 146.022V148.064C479.94 148.184 479.988 148.299 480.072 148.384C480.157 148.469 480.272 148.517 480.392 148.517H482.225C482.392 149.23 482.681 149.909 483.078 150.525L481.782 151.824C481.699 151.91 481.653 152.024 481.653 152.144C481.653 152.263 481.699 152.378 481.782 152.464L483.223 153.908C483.308 153.991 483.423 154.038 483.542 154.038C483.662 154.038 483.776 153.991 483.862 153.908L485.158 152.61C485.772 153.007 486.45 153.296 487.162 153.464V155.301C487.162 155.421 487.209 155.537 487.294 155.621C487.379 155.706 487.494 155.754 487.614 155.754H489.652C489.771 155.754 489.886 155.706 489.971 155.621C490.056 155.537 490.103 155.421 490.103 155.301V153.464C490.816 153.298 491.494 153.009 492.107 152.61L493.403 153.908C493.489 153.991 493.604 154.038 493.723 154.038C493.842 154.038 493.957 153.991 494.043 153.908L495.484 152.464C495.526 152.422 495.559 152.372 495.582 152.317C495.605 152.262 495.616 152.203 495.616 152.144C495.616 152.084 495.605 152.025 495.582 151.97C495.559 151.916 495.526 151.866 495.484 151.824L494.119 150.559C494.512 149.941 494.801 149.263 494.972 148.551H496.797C496.917 148.551 497.032 148.503 497.116 148.418C497.201 148.333 497.249 148.218 497.249 148.098V146.056C497.254 145.992 497.245 145.928 497.223 145.868C497.202 145.808 497.168 145.753 497.123 145.707C497.079 145.661 497.025 145.625 496.966 145.601C496.907 145.577 496.843 145.566 496.78 145.569ZM488.569 149.841C488.012 149.843 487.467 149.679 487.003 149.37C486.539 149.061 486.177 148.621 485.963 148.106C485.749 147.591 485.692 147.024 485.799 146.476C485.907 145.929 486.174 145.426 486.568 145.03C486.961 144.635 487.462 144.366 488.008 144.256C488.554 144.147 489.12 144.202 489.635 144.415C490.15 144.629 490.59 144.99 490.899 145.454C491.209 145.918 491.374 146.463 491.374 147.021C491.376 147.392 491.305 147.76 491.165 148.104C491.026 148.447 490.819 148.76 490.559 149.023C490.298 149.287 489.988 149.496 489.647 149.639C489.305 149.783 488.939 149.857 488.569 149.858V149.841Z" fill="#DBE9FF"/>
<path d="M488.569 143.125C487.794 143.123 487.036 143.352 486.391 143.782C485.746 144.213 485.243 144.825 484.946 145.542C484.649 146.259 484.571 147.048 484.721 147.81C484.872 148.572 485.245 149.271 485.793 149.82C486.341 150.369 487.039 150.743 487.799 150.894C488.559 151.045 489.346 150.967 490.062 150.669C490.777 150.371 491.389 149.867 491.818 149.221C492.247 148.574 492.476 147.815 492.474 147.038C492.474 146.524 492.373 146.016 492.177 145.541C491.98 145.066 491.693 144.635 491.33 144.271C490.968 143.908 490.537 143.619 490.063 143.423C489.589 143.226 489.082 143.125 488.569 143.125ZM488.569 149.431C488.097 149.431 487.635 149.291 487.242 149.028C486.85 148.765 486.544 148.391 486.363 147.954C486.182 147.517 486.135 147.036 486.227 146.572C486.319 146.108 486.547 145.681 486.881 145.347C487.214 145.012 487.64 144.784 488.103 144.692C488.566 144.6 489.046 144.647 489.482 144.828C489.919 145.009 490.292 145.316 490.554 145.709C490.816 146.103 490.956 146.565 490.956 147.038C490.956 147.673 490.705 148.281 490.257 148.73C489.809 149.179 489.202 149.431 488.569 149.431Z" fill="#5470D3"/>
<path d="M324.058 68.8081C342.312 61.4509 351.158 40.6577 343.816 22.3652C336.475 4.07266 315.726 -4.79212 297.472 2.56513C279.219 9.92237 270.373 30.7156 277.714 49.0081C285.056 67.3006 305.805 76.1654 324.058 68.8081Z" fill="#E67471"/>
<path d="M293.089 54.0541L328.457 54.0541C330.011 54.0541 331.271 52.7916 331.271 51.2343V21.7463C331.271 20.189 330.011 18.9265 328.457 18.9265L293.089 18.9265C291.535 18.9265 290.275 20.189 290.275 21.7463V51.2343C290.275 52.7916 291.535 54.0541 293.089 54.0541Z" fill="white"/>
<path d="M290.249 26.2751H331.262V21.7463C331.262 20.9977 330.966 20.2796 330.439 19.7494C329.911 19.2193 329.195 18.9203 328.448 18.918H293.089C292.717 18.9158 292.348 18.9873 292.003 19.1284C291.659 19.2695 291.346 19.4775 291.082 19.7403C290.818 20.0032 290.609 20.3158 290.466 20.66C290.323 21.0043 290.249 21.3735 290.249 21.7463V26.2751Z" fill="#5470D3"/>
<path d="M321.474 20.4903C321.7 20.4903 321.917 20.4003 322.077 20.24C322.236 20.0798 322.326 19.8624 322.326 19.6358V18.1832C322.326 17.9566 322.236 17.7393 322.077 17.579C321.917 17.4188 321.7 17.3287 321.474 17.3287C321.247 17.3287 321.031 17.4188 320.871 17.579C320.711 17.7393 320.621 17.9566 320.621 18.1832V19.6529C320.625 19.8766 320.717 20.0895 320.877 20.2461C321.036 20.4027 321.25 20.4903 321.474 20.4903Z" fill="white"/>
<path d="M323.853 20.4903C324.079 20.4903 324.296 20.4003 324.456 20.24C324.615 20.0798 324.705 19.8624 324.705 19.6358V18.1832C324.705 17.9566 324.615 17.7393 324.456 17.579C324.296 17.4188 324.079 17.3287 323.853 17.3287C323.626 17.3287 323.41 17.4188 323.25 17.579C323.09 17.7393 323 17.9566 323 18.1832V19.6529C323.004 19.8766 323.096 20.0895 323.256 20.2461C323.415 20.4027 323.629 20.4903 323.853 20.4903Z" fill="white"/>
<path d="M297.685 20.4903C297.911 20.4903 298.128 20.4003 298.287 20.24C298.447 20.0798 298.537 19.8624 298.537 19.6358V18.1832C298.537 17.9566 298.447 17.7393 298.287 17.579C298.128 17.4188 297.911 17.3287 297.685 17.3287C297.458 17.3287 297.242 17.4188 297.082 17.579C296.922 17.7393 296.832 17.9566 296.832 18.1832V19.6529C296.836 19.8766 296.928 20.0895 297.088 20.2461C297.247 20.4027 297.461 20.4903 297.685 20.4903Z" fill="white"/>
<path d="M300.063 20.4903C300.29 20.4903 300.506 20.4003 300.666 20.24C300.826 20.0798 300.916 19.8624 300.916 19.6358V18.1832C300.916 17.9566 300.826 17.7393 300.666 17.579C300.506 17.4188 300.29 17.3287 300.063 17.3287C299.837 17.3287 299.62 17.4188 299.461 17.579C299.301 17.7393 299.211 17.9566 299.211 18.1832V19.6529C299.215 19.8766 299.307 20.0895 299.466 20.2461C299.626 20.4027 299.84 20.4903 300.063 20.4903Z" fill="white"/>
<path d="M315.565 30.6415H313.356C312.984 30.6415 312.683 30.9437 312.683 31.3165V33.5296C312.683 33.9024 312.984 34.2047 313.356 34.2047H315.565C315.937 34.2047 316.238 33.9024 316.238 33.5296V31.3165C316.238 30.9437 315.937 30.6415 315.565 30.6415Z" fill="#DBE9FF"/>
<path d="M307.115 30.6415H304.907C304.535 30.6415 304.233 30.9437 304.233 31.3165V33.5296C304.233 33.9024 304.535 34.2047 304.907 34.2047H307.115C307.487 34.2047 307.789 33.9024 307.789 33.5296V31.3165C307.789 30.9437 307.487 30.6415 307.115 30.6415Z" fill="#DBE9FF"/>
<path d="M298.665 30.6415H296.457C296.085 30.6415 295.783 30.9437 295.783 31.3165V33.5296C295.783 33.9024 296.085 34.2047 296.457 34.2047H298.665C299.037 34.2047 299.339 33.9024 299.339 33.5296V31.3165C299.339 30.9437 299.037 30.6415 298.665 30.6415Z" fill="#DBE9FF"/>
<path d="M324.006 37.9387H321.806C321.434 37.9387 321.133 38.2409 321.133 38.6138V40.8268C321.133 41.1997 321.434 41.5019 321.806 41.5019H324.006C324.378 41.5019 324.68 41.1997 324.68 40.8268V38.6138C324.68 38.2409 324.378 37.9387 324.006 37.9387Z" fill="#DBE9FF"/>
<path d="M315.565 37.9387H313.356C312.984 37.9387 312.683 38.2409 312.683 38.6138V40.8268C312.683 41.1997 312.984 41.5019 313.356 41.5019H315.565C315.937 41.5019 316.238 41.1997 316.238 40.8268V38.6138C316.238 38.2409 315.937 37.9387 315.565 37.9387Z" fill="#DBE9FF"/>
<path d="M307.115 37.9387H304.907C304.535 37.9387 304.233 38.2409 304.233 38.6138V40.8268C304.233 41.1997 304.535 41.5019 304.907 41.5019H307.115C307.487 41.5019 307.789 41.1997 307.789 40.8268V38.6138C307.789 38.2409 307.487 37.9387 307.115 37.9387Z" fill="#DBE9FF"/>
<path d="M298.665 37.9387H296.457C296.085 37.9387 295.783 38.2409 295.783 38.6138V40.8268C295.783 41.1997 296.085 41.5019 296.457 41.5019H298.665C299.037 41.5019 299.339 41.1997 299.339 40.8268V38.6138C299.339 38.2409 299.037 37.9387 298.665 37.9387Z" fill="#DBE9FF"/>
<path d="M324.006 45.2274H321.806C321.434 45.2274 321.133 45.5296 321.133 45.9025V48.1156C321.133 48.4884 321.434 48.7906 321.806 48.7906H324.006C324.378 48.7906 324.68 48.4884 324.68 48.1156V45.9025C324.68 45.5296 324.378 45.2274 324.006 45.2274Z" fill="#DBE9FF"/>
<path d="M315.565 45.2274H313.356C312.984 45.2274 312.683 45.5296 312.683 45.9025V48.1156C312.683 48.4884 312.984 48.7906 313.356 48.7906H315.565C315.937 48.7906 316.238 48.4884 316.238 48.1156V45.9025C316.238 45.5296 315.937 45.2274 315.565 45.2274Z" fill="#DBE9FF"/>
<path d="M307.115 45.2274H304.907C304.535 45.2274 304.233 45.5296 304.233 45.9025V48.1156C304.233 48.4884 304.535 48.7906 304.907 48.7906H307.115C307.487 48.7906 307.789 48.4884 307.789 48.1156V45.9025C307.789 45.5296 307.487 45.2274 307.115 45.2274Z" fill="#DBE9FF"/>
<path d="M437.945 79.2942C451.857 65.3525 451.857 42.7484 437.945 28.8067C424.033 14.8649 401.477 14.8649 387.565 28.8067C373.653 42.7484 373.653 65.3524 387.565 79.2942C401.477 93.2359 424.033 93.236 437.945 79.2942Z" fill="#E67471"/>
<path d="M430.01 71.3428C439.54 61.7925 439.54 46.3083 430.01 36.758C420.48 27.2077 405.029 27.2077 395.499 36.758C385.969 46.3083 385.969 61.7925 395.499 71.3428C405.029 80.8931 420.48 80.8931 430.01 71.3428Z" fill="white"/>
<path d="M412.751 29.599C407.924 29.599 403.205 31.0335 399.192 33.721C395.179 36.4086 392.051 40.2284 390.204 44.6975C388.357 49.1666 387.875 54.0842 388.817 58.8283C389.759 63.5723 392.084 67.9298 395.498 71.3496C398.912 74.7693 403.261 77.0978 407.995 78.0404C412.729 78.9831 417.636 78.4976 422.095 76.6453C426.554 74.793 430.365 71.6572 433.045 67.6345C435.725 63.6117 437.155 58.8827 437.154 54.0456C437.154 50.8345 436.522 47.6549 435.296 44.6883C434.069 41.7218 432.272 39.0264 430.006 36.7562C427.739 34.486 425.049 32.6855 422.089 31.4574C419.128 30.2294 415.955 29.5979 412.751 29.599ZM414.797 74.8863V71.5453C414.798 71.3976 414.77 71.2511 414.714 71.1143C414.659 70.9775 414.577 70.8531 414.473 70.7483C414.369 70.6434 414.245 70.5602 414.109 70.5034C413.973 70.4466 413.827 70.4174 413.68 70.4174H411.83C411.682 70.4174 411.536 70.4466 411.4 70.5034C411.264 70.5602 411.141 70.6434 411.037 70.7483C410.933 70.8531 410.851 70.9775 410.795 71.1143C410.74 71.2511 410.712 71.3976 410.713 71.5453V74.8863C405.898 74.413 401.396 72.2804 397.975 68.8522C394.555 65.4241 392.427 60.9128 391.954 56.0878H395.288C395.585 56.0878 395.87 55.9702 396.081 55.7605C396.292 55.5508 396.411 55.2661 396.414 54.9684V53.1484C396.414 53.0003 396.385 52.8536 396.328 52.7168C396.271 52.5799 396.188 52.4556 396.084 52.3508C395.979 52.2461 395.855 52.163 395.719 52.1063C395.582 52.0497 395.436 52.0205 395.288 52.0205H391.954C392.427 47.1955 394.555 42.6842 397.975 39.2561C401.396 35.8279 405.898 33.6953 410.713 33.222V36.563C410.712 36.7103 410.74 36.8564 410.795 36.9927C410.851 37.129 410.933 37.2529 411.037 37.357C411.141 37.4612 411.265 37.5436 411.401 37.5995C411.537 37.6553 411.683 37.6835 411.83 37.6824H413.68C413.827 37.6835 413.973 37.6553 414.109 37.5995C414.245 37.5436 414.368 37.4612 414.472 37.357C414.576 37.2529 414.658 37.129 414.714 36.9927C414.77 36.8564 414.798 36.7103 414.797 36.563V33.2134C419.612 33.6868 424.113 35.8194 427.534 39.2475C430.955 42.6757 433.083 47.187 433.555 52.0119H430.221C430.074 52.0119 429.927 52.0411 429.791 52.0978C429.654 52.1545 429.53 52.2376 429.426 52.3423C429.321 52.447 429.238 52.5714 429.182 52.7082C429.125 52.8451 429.096 52.9917 429.096 53.1399V54.9941C429.098 55.2917 429.218 55.5764 429.429 55.7861C429.639 55.9958 429.924 56.1134 430.221 56.1134H433.555C433.077 60.9338 430.947 65.4391 427.527 68.8621C424.106 72.285 419.608 74.414 414.797 74.8863Z" fill="#5470D3"/>
<path d="M408.978 61.399H399.447V60.0703L404.482 54.4758C405.228 53.63 405.741 52.944 406.021 52.4178C406.307 51.885 406.45 51.3356 406.45 50.7694C406.45 50.0102 406.221 49.3875 405.761 48.9013C405.301 48.4151 404.689 48.172 403.923 48.172C403.004 48.172 402.288 48.4351 401.775 48.9612C401.269 49.4807 401.016 50.2067 401.016 51.1391H399.167C399.167 49.8004 399.597 48.7181 400.456 47.8923C401.322 47.0664 402.478 46.6535 403.923 46.6535C405.275 46.6535 406.344 47.0098 407.13 47.7224C407.916 48.4284 408.308 49.3708 408.308 50.5497C408.308 51.9816 407.396 53.6866 405.571 55.6647L401.675 59.8905H408.978V61.399ZM418.738 56.5138H420.756V58.0223H418.738V61.399H416.88V58.0223H410.257V56.9334L416.77 46.8533H418.738V56.5138ZM412.355 56.5138H416.88V49.3808L416.66 49.7804L412.355 56.5138ZM422.984 62.6478H421.396L427.47 46.8533H429.048L422.984 62.6478ZM408.838 71.8923L402.814 85.399H400.876L406.88 72.3718H399.008V70.8533H408.838V71.8923Z" fill="#D1C8D9"/>
</g>
<defs>
<clipPath id="clip0">
<rect width="524" height="327" fill="white" transform="translate(0.115967 -0.00012207)"/>
</clipPath>
</defs>
</svg>
